<svg id="Layer_1" data-name="Layer 1" xmlns="http://www.w3.org/2000/svg" viewBox="0 0 2222.5 1029.33"><defs><style>.cls-1{fill:#231f20;}.cls-1,.cls-2,.cls-3{stroke:#000;stroke-miterlimit:10;}.cls-3{stroke-width:3px;}</style></defs><title>toronto-blue-jays1 (1)</title><path d="M450,819.21v37.57c1.16-8.23,2.21-16.48,3.37-24.72C452.2,827.79,451,823.51,450,819.21Z" transform="translate(0.5 3.83)"/><path d="M455.8,675.48c0.13-1.49.27-3,.39-4.47a395.08,395.08,0,0,0,1.13-51.12C455.86,638.4,455.46,656.94,455.8,675.48Z" transform="translate(0.5 3.83)"/><path d="M458.84,880.44c0.34-5.82.47-11.66,0.43-17.5-2.2,15.43-4.9,30.85-9.27,45.66v19.22c0.78-2.51,1.54-5,2.25-7.57,0.7-13.19,4.4-25.85,6.46-38.9C458.76,881,458.79,880.74,458.84,880.44Z" transform="translate(0.5 3.83)"/><path d="M450.15,958c0.13,0.3.27,0.59,0.39,0.89a71,71,0,0,1,5.61,20.4,97.36,97.36,0,0,0-.15-11.67c-0.48-6.7-1.34-13.36-2.13-20Q452,952.78,450.15,958Z" transform="translate(0.5 3.83)"/><path d="M471.85,165.66c-6.21,10.78-10.49,22.65-13.64,34.75a66.94,66.94,0,0,0,2.58,7.09C468.1,195.24,470.56,180.26,471.85,165.66Z" transform="translate(0.5 3.83)"/><path d="M450,0V6.58c3.5,0.48,6.36,5.16,3.16,8.57-0.13.14-.24,0.29-0.36,0.44,4.78,6.58,8.83,13.7,10.65,21.7a5.22,5.22,0,0,1,0,2,4.14,4.14,0,0,1,1,1.32c3.87,8.27,5.12,17.61,2,26.35-1.85,5.2-9.76,4.51-9.82-1.33a60.62,60.62,0,0,0-1-10.68,66.24,66.24,0,0,0-4,5.94,4,4,0,0,1,2.85,3.41c1,5.71,1.91,11.46,2.92,17.18a38.52,38.52,0,0,1,1.87,9.61c0.68,3.11,1.43,6.19,2.31,9.24a127.5,127.5,0,0,1,4.9,13.46c1,3.38-2,6.1-4.92,6.34a236.6,236.6,0,0,1-.23,44.08,111.6,111.6,0,0,1,13.28-19.63c2.76-3.25,8.83-.65,8.54,3.54-1.76,24.85-3.12,52.31-19.46,72.53-2.11,2.61-6.3,1.47-7.85-1-0.46-.74-0.89-1.5-1.31-2.26-2,10.49-3.32,21.07-4.49,31.68v59c3.54,19.58,7.22,39.13,8.63,59a183.35,183.35,0,0,1-1.61,42c-1.74,11-4.37,21.82-7,32.63v95.11c3.71,11.29,7.59,22.51,10.4,34.09a260.5,260.5,0,0,1,6.53,42.23c2.1,28.28-.28,56.61-3.35,84.73-0.8,7.35-1.64,14.69-2.46,22l0,0.07a136.89,136.89,0,0,1,8.24,35.35c2,19.39-.38,38.27-3.16,57.27,0.07,0.82.15,1.64,0.22,2.46,1.21,14.18,2.35,28.48,2.66,42.78,0.15,1.3.29,2.6,0.4,3.91a86.74,86.74,0,0,1-.72,18.63c-0.31,5.61-.8,11.21-1.54,16.78a184,184,0,0,1-4.78,23.46,145.15,145.15,0,0,0,.74,21.44c1.22,11.75,3.28,23.47,3.12,35.32a83.36,83.36,0,0,1-9.39,37.17c-1.34,2.64-4.65,3-6.94,1.66V1024H1815V0H450ZM1581.4,628A463.54,463.54,0,0,1,1213,967.4c-30.2,5.3-40.9,6.1-80,6.1-38.1,0-48.7-.8-77.5-5.6A458.81,458.81,0,0,1,809.6,843c-50.4-49.2-86.4-104-111-169.3-32.6-86.2-38-185.2-15.1-275.8C718.6,259.7,818.3,143.2,949.7,87.1c70.3-30,141.5-41.6,219.8-36,61.2,4.4,124.6,22.8,179.6,52a465.33,465.33,0,0,1,190,186.4C1595.5,391.3,1611,514.7,1581.4,628Z" transform="translate(0.5 3.83)"/><path d="M450,570.79V612c2.26-1.28,5.5-.78,6.92,1.28a244.73,244.73,0,0,0-3.35-26.46C452.58,581.39,451.36,576.07,450,570.79Z" transform="translate(0.5 3.83)"/><path d="M450,41.38V46c0.57-.67,1.16-1.32,1.76-2A25.06,25.06,0,0,0,450,41.38Z" transform="translate(0.5 3.83)"/><path d="M1109.6,59c-103.1,5.5-198.8,44.3-276.1,112.1A452.77,452.77,0,0,0,727.2,308.5c-25,49.6-38.7,96-45.9,155.5-2.5,20.5-2.5,76.3,0,97,6.7,55.4,19.9,101.6,42.1,147.5,22.9,47.2,48.4,83.8,84.1,120.4,46.1,47.3,97.3,81.4,159,106,76.2,30.4,163.2,39,246.3,24.5,125.2-21.9,237.2-97.8,305.4-206.9,83.5-133.6,91.4-302.4,20.7-443.8-20-39.9-48.2-79.3-80.4-112.6A453.61,453.61,0,0,0,1109.6,59Zm56.1,17c124.5,10.1,233.9,68.5,311.7,166.5,9.6,12,28.5,40.1,36.1,53.4,13.2,23.4,27.9,56.8,36,82.1,19.7,61.3,25.4,126.7,17,192-15.9,122.5-85.9,234.5-190.4,304.5-67.4,45.1-144.4,70.2-224.3,73.3-114.3,4.4-220.2-32.5-306.3-106.9-12.1-10.5-35.6-34.1-46-46.4a436.84,436.84,0,0,1-82.8-418c29.6-91.2,90.1-171.7,169.8-225.7,65.1-44.2,137.1-69.1,216.5-75.1C1113.9,74.9,1154,75.1,1165.7,76Z" transform="translate(0.5 3.83)"/><path d="M1131.2,108.7c-5.9.3-7.2,0.6-6.3,1.7,0.7,0.8,1.4,9.4,1.8,21.2l0.6,19.8-2.4-1.9c-1.3-1.1-12.6-10.2-25.1-20.2L1077.1,111l0.5,4.8c1,10.9,3.5,72.2,3,73.9s0.2,1.8,9.4,1.5,9.9-.5,9.1-2.1c-1.1-2-2.7-39.1-1.7-39.1,0.3,0,11.3,8.4,24.4,18.6,22.5,17.6,23.7,18.4,24,15.9,0.2-1.5-.6-17.2-1.8-34.8s-2-34.3-1.7-37c0.4-4.3.2-4.7-1.7-4.5C1139.4,108.3,1135.2,108.6,1131.2,108.7Z" transform="translate(0.5 3.83)"/><path d="M1180.3,118.2c-1.2,3.5-2.5,7.1-2.8,8-0.6,1.5-.2,1.6,2.9,1.1,4.7-.7,18.6,1.6,19.3,3.3,0.4,1.2-10.4,55.9-11.5,57.9a24.15,24.15,0,0,1-2.4,3.1l-1.9,2.1,10.8,2.2c5.9,1.1,11.2,2.1,11.6,2.1s0.6-1.4.2-3c-0.7-3,9-59.7,10.4-61.2,0.9-.9,17.8,3,20.5,4.7l2.3,1.6,0.5-8.3a85.44,85.44,0,0,0,.3-8.6c-0.2-.3-55.6-11.2-57-11.2C1182.9,112,1181.5,114.8,1180.3,118.2Z" transform="translate(0.5 3.83)"/><path d="M1000.4,131a41.8,41.8,0,0,0-27.1,16.3,41.3,41.3,0,0,0,25.1,65.3c18.9,3.9,36.7-4.9,45.3-22.4,3.7-7.3,3.8-8,3.8-18.1,0-9.5-.3-11.2-2.8-16.5C1036.5,138,1019.2,128.4,1000.4,131Zm17.1,17.9c20.8,9.6,19.3,40.2-2.3,47.5a25.58,25.58,0,0,1-32.8-17.2c-3.5-11.8,2.7-25.2,14.1-30.3C1001.9,146.4,1012.2,146.4,1017.5,148.9Z" transform="translate(0.5 3.83)"/><path d="M1282,146.4a42.54,42.54,0,0,0-27.3,22.5c-3,6.2-3.2,7.2-3.2,17.6s0.2,11.4,3.2,17.7a41.77,41.77,0,0,0,20.1,20.1c8.5,4,20.9,4.9,29.4,2.2,23.4-7.6,35.3-32.1,26.7-55C1323.8,152.6,1301.9,141.4,1282,146.4Zm21.6,17.4a25.69,25.69,0,0,1,7.5,40.5c-15.2,16.9-44.1,5.5-44.1-17.3C1267,168.4,1287.4,155.5,1303.6,163.8Z" transform="translate(0.5 3.83)"/><path d="M904,184.9a24.88,24.88,0,0,0-6,2.1c-3.7,1.9-26.8,17.9-27.5,18.9-0.3.5,0.3,1.2,1.3,1.5,3,1,6.2,4.9,25.6,32,11.4,15.9,18.8,27.2,19.2,29.2l0.6,3.2,8.4-6.6c8.1-6.4,8.4-6.7,6.2-7.8s-20.5-26.1-19.7-26.8c0.2-.2,9.6,2.9,20.9,7s20.7,7.4,21,7.4,4.1-2.9,8.3-6.5c7.7-6.3,7.8-6.4,5-7-3.4-.7-34.3-11.6-34.3-12.1,0-.2.7-2.9,1.5-6.1,1.3-4.7,1.3-6.7.4-10.6-1.4-5.8-8.2-13.8-13.8-16C916.2,184.7,908.6,183.9,904,184.9Zm11.7,17.7c2.9,1.9,4.3,7.1,2.9,10.7-0.6,1.5-3.5,4.7-6.5,7.1l-5.4,4.5-1.7-2.2c-3.4-4.5-10-14.3-10-14.9,0-.9,8.1-6,10.9-6.9A12,12,0,0,1,915.7,202.6Z" transform="translate(0.5 3.83)"/><path d="M1373.5,231.9c-28.1,27.3-69.3,47.2-134.5,65-37.5,10.2-61,14.7-109.1,20.6-67.6,8.3-89.8,11.6-109.6,16.5-32.4,7.9-49.1,16.8-69.4,37-12.4,12.3-17.9,20.6-17.9,26.9,0.1,18,13.2,34.8,29.3,37.6l3.9,0.6-0.9-3.3c-1.6-6.5-.9-17,1.6-21.7,10.1-19.4,46-30.4,88.9-27.2a286.5,286.5,0,0,1,62.7,11.9l6,1.8h-20c-11-.1-23.1.3-27,0.8l-6.9.8,15.9,5.5c35.8,12.3,54.7,18.2,67.6,21.2a433.47,433.47,0,0,0,48.2,7.7l7.7,0.7v-4.7c0-2.5.3-4.6,0.8-4.6s11.5,1.8,24.7,3.9,24,3.9,24.1,3.8,2.4-6.1,5.3-13.2,5.7-13.4,6.2-13.9,8.4,6.4,20,18l19.1,18.9-0.6-4.5c-1.5-11.2-7.7-73.3-7.3-73.6,0.2-.2,7.9,2.6,17.1,6.2s17.1,6.2,17.5,5.8,8.6-13.7,18.1-29.3l17.3-28.3,4.4,6.8c2.4,3.8,9.1,14.9,15,24.6s11,17.5,11.4,17.2,1.2-3.2,1.8-6.6c6.1-31.2,15.3-56.8,24-66.2l2.6-2.8-7.5.5c-9.3.6-16.3,3.2-27.4,10.2-4.7,2.9-8.6,4.9-8.6,4.3s2.4-6.1,5.4-12.3c6.1-12.6,17.7-30.4,29-44.4,4.2-5.2,7.4-9.6,7.2-9.9-0.8-.7-15.6,2.7-24.6,5.8a151.38,151.38,0,0,0-17.9,7.5c-5,2.5-9.2,4.5-9.5,4.5s0.4-2.6,1.4-5.8c2-6.6,4.4-22.4,3.8-26.4C1382.5,223.2,1382.1,223.5,1373.5,231.9Z" transform="translate(0.5 3.83)"/><path d="M1110,226c-40.6,3.9-84,16.8-116.9,34.7-12,6.5-30.2,18.9-39.6,26.9-20,17.1-41,39.1-53.8,56.5-10.2,13.9-24,38.4-29.8,53.2-1.2,2.9-2.9,7.2-3.9,9.7l-1.8,4.6,8.6-1.3c4.8-.7,8.8-1.7,9-2.1s3.9-8.3,8.3-17.3c8.6-17.5,19.5-34.9,23.5-37.5a5.41,5.41,0,0,0,2.4-3.6c0-1.1,1.2-3.5,2.7-5.5l2.7-3.5,1.7,2.1,1.7,2.1,2.2-2.7a6,6,0,0,0,1.5-5.2c-0.4-1.9.3-3.8,2.6-6.9,1.7-2.3,3.5-4.2,4-4.2s1.5,1.3,2.4,3c1.8,3.5,2.5,3.6,5.4,1.2l2.2-1.7-2.6-3.8c-1.4-2-2.3-4.1-2-4.6a43,43,0,0,1,5.4-5l4.9-4.1,2.6,4.4c3.3,5.7,3.9,6,7.6,4.1l3-1.6-4.1-6.1-4.2-6.1,3.9-3.3c2.2-1.8,4.4-3.3,5.1-3.4s2.6,2.1,4.4,4.7c5.6,8.4,5.7,8.5,9.1,6.7l2.9-1.5-4.1-7.6c-2.2-4.2-3.9-8.1-3.7-8.7a24.85,24.85,0,0,1,5-4.4l4.6-3.3,4,5.3a28.48,28.48,0,0,1,4.8,9.8c0.9,4.5.9,4.5,4.8,4.3a19.92,19.92,0,0,0,4.2-.6,29.49,29.49,0,0,0-.3-5.1c-0.5-3.1-2.2-7-5-11.4l-4.2-6.6,3.1-2.4c4.2-3.1,14.6-9.2,15.7-9.2,0.5,0-.1,2.3-1.4,5.1l-2.4,5,3.4,5.6a34.75,34.75,0,0,1,4,10c0.6,3.9.9,4.4,2.8,3.9a21.26,21.26,0,0,1,4.5-.6c2.2,0,2.3-.2,1.7-4.8a44.28,44.28,0,0,0-3.6-10.6l-2.8-6,2.5-6.4c2.5-6.2,2.8-6.6,8.7-9.2,3.4-1.5,7.1-3.1,8.4-3.5,2.1-.6,2.2-0.4,1.6,2.2a50.3,50.3,0,0,1-3.7,8.4l-3,5.7,2.1,2.7c2.7,3.4,6.2,12.7,6.2,16.5,0,2.9.2,3,4.5,3h4.5v-4.9a24.07,24.07,0,0,0-4.7-14.9l-2.5-3.3,3.7-8.7c2-4.8,3.9-9.3,4.4-10.1,0.9-1.8,25.1-8.2,42.1-11.3,10.9-2,15.9-2.3,40-2.3,28.6,0,35.4.6,59,5.6,25.3,5.3,48.8,13.6,64.1,22.5l6,3.5,9.6-3.4,9.7-3.4-4.4-2.8c-8.1-5.1-32-16.3-43.8-20.5a278.17,278.17,0,0,0-60.2-14.5C1157.1,225.6,1123,224.8,1110,226Z" transform="translate(0.5 3.83)"/><path d="M830.9,255.6a40.7,40.7,0,0,0-18.2,11.3,41.46,41.46,0,0,0,19.7,68.7c21.4,5.7,43.6-6.9,50.2-28.5,2.8-9.1,1.4-22.3-3.2-31.2C870.8,259.2,848.9,250,830.9,255.6Zm24.3,17.7c5.7,3.3,8.2,6.2,10.8,12A25.35,25.35,0,0,1,842.5,321c-9.9-.1-17.8-5-22.8-14.4-3-5.7-3-16.5,0-22.1A29.31,29.31,0,0,1,833,272C839.2,269.1,849.1,269.7,855.2,273.3Z" transform="translate(0.5 3.83)"/><path d="M1067,259.7a84.29,84.29,0,0,1-6.3,9.6c-2.7,3.5-2.8,3.9-1.4,5.5,2.9,3.2,4.7,9,4.7,15.2v6h4.5c4.3,0,4.4-.1,5.1-3.5a24.2,24.2,0,0,0-3.2-16.1c-2.5-3.6-2.5-3.7-.6-5.8a76.35,76.35,0,0,0,6.1-8.6c4-6.4,4-6.5,1.8-7.2C1071.7,253.1,1070.3,253.7,1067,259.7Z" transform="translate(0.5 3.83)"/><path d="M1097.3,261.2a64.43,64.43,0,0,1-7.2,8.2l-4.9,4.8,2.3,3.5c2.7,3.9,5,13.3,4.1,17.3-0.4,2.5-.2,2.8,2.6,3.4,7.1,1.4,7.2,1.4,6.4-6.4-0.7-7.5-1.9-11.3-4.8-14.6-1.8-2.1-1.8-2.1.5-3.7,3.9-2.5,12.1-12.7,11.1-13.7a15.31,15.31,0,0,0-4.4-1.5C1099.9,258,1099.3,258.2,1097.3,261.2Z" transform="translate(0.5 3.83)"/><path d="M1119.4,271.4l-6,8.1,2.3,4.5a46.77,46.77,0,0,1,3.5,9.7l1.3,5.3h9.7l-0.7-3.3a52,52,0,0,0-3.7-9.5l-3.1-6.2,2.1-2c2.6-2.4,8.2-10.5,8.2-11.8,0-.5-1.7-1.4-3.8-1.9l-3.9-1Z" transform="translate(0.5 3.83)"/><path d="M1145.8,278.2l-5.8,7.2,2.7,4.6c3.6,6.2,3.7,6.3,7.8,5.6,2.9-.6,3.5-1.1,3-2.4-3-7-3-6.5,1.3-13,2.3-3.3,4.2-6.5,4.2-7,0-.8-4.8-2.3-6.9-2.2A66.82,66.82,0,0,0,1145.8,278.2Z" transform="translate(0.5 3.83)"/><path d="M761.4,359l-11.2,27,6.9,4.5a80.71,80.71,0,0,0,7.4,4.5c0.3,0,.5-1.6.5-3.5,0-3.6,5.7-18.5,7-18.5,2.5,0,54,22.7,56.2,24.8,1.5,1.4,2.9,2.4,3.1,2.1s2.2-4.9,4.5-10.4l4.1-10-4.7-.5c-3.5-.4-54.7-19.8-57-21.6-0.8-.5,7-16.9,9-19.1,1.6-1.7,1.8-2.4.7-2.7-2.3-.8-13.6-3.6-14.5-3.6C772.9,332,767.5,344.2,761.4,359Z" transform="translate(0.5 3.83)"/><path d="M1356.5,364.9c-8.7,13.9-16.1,25.4-16.5,25.6s-5.9-1.9-12.4-4.7-12-4.7-12.3-4.4,0.4,9.9,1.6,21.3c2.5,23.7,4,47.1,3.3,52.5-0.3,2.5-1,3.9-2.2,4.3-4,1.3-9.4-2.8-26-19.1s-17-16.6-17.9-14.1c-2.3,6.1-7.3,17.2-7.9,17.9-0.4.3-10.4-.9-22.2-2.7s-21.6-3.2-21.8-3.1,0.4,9.8,1.3,21.2,1.6,22.4,1.7,24.3l0.3,3.5-7.8,2.5c-4.2,1.4-7.7,2.8-7.7,3.1s20.9,18.7,46.5,40.9S1303,574.6,1303,575s-3.2,4.4-7.1,8.9-7,8.4-6.8,8.6,16.2-.8,35.4-2.1,36.5-2.3,38.4-2.2c3,0.3,3.8,1,6.6,6.1l3.2,5.7,3.2-5.9a40.18,40.18,0,0,1,3.9-6.5c0.4-.2,16.7.9,36.2,2.5s36.5,2.9,37.8,2.9c2.1,0,1.5-1-4.7-8.6-3.9-4.8-7.1-9-7.1-9.4s21-18.9,46.6-41.1l46.5-40.4-7.5-3.4c-8.9-4-8.2-.5-6.1-30.5,0.8-11.5,1.4-21,1.3-21.2s-10.1,1.5-22.1,3.5l-21.9,3.7-1.3-2.6c-0.7-1.4-2.5-6.4-4.1-11.2l-2.8-8.6L1456.9,437c-12.9,12.9-24.3,22-27.5,22a6.52,6.52,0,0,1-3.4-2c-2.7-2.7-2.6-6.4.9-44.5,1.6-17.1,2.8-31.1,2.6-31.3s-5.5,2-11.9,4.9-12.1,4.9-12.8,4.6-7.7-11-15.5-23.9-14.8-24.1-15.6-25.2C1372.5,339.9,1370.9,342,1356.5,364.9Z" transform="translate(0.5 3.83)"/><path d="M913.1,400.8c-7.6,3.8-15.2,11-20.7,19.7-4.5,7-4.8,7.3-9.3,7.9-9.5,1.4-44.1,7.8-57.1,10.7-53.4,11.8-87.7,23.8-98.2,34.2l-4.3,4.2,104.4,0.3L932.2,478l3.6-3.1c7-6.2,11.2-7.4,25.7-7.4,12.6,0,13.2.1,19.5,3.2,3.6,1.7,10.6,6.6,15.5,10.7,16,13.3,23.4,16.6,37.7,16.6,13.6,0,21-3.3,35.7-16.3a82.3,82.3,0,0,1,12.1-9.1c10.1-5.5,11.6-5.6,73.2-5.6H1212v-3.9c0-2.1-.3-5.9-0.6-8.4l-0.7-4.6-58.1-.3c-56.8-.3-58.2-0.3-63.3-2.5-5.9-2.3-12.8-7.1-21.8-14.7-12.9-11.1-18.4-13.9-29.1-15.1-7.4-.8-18.6,1.4-25.4,5.1a98.39,98.39,0,0,0-12.2,8.6c-19.5,15.8-24,18.1-35.3,18.1-11.1,0-20.2-4.2-29.7-13.7-7.1-7.1-13.7-21.3-15.3-32.9-0.3-2.6-.9-4.7-1.3-4.7S916.1,399.3,913.1,400.8ZM1021,442v11h-5.5c-5.4,0-5.5-.1-5.5-2.9,0-4.8,2.9-11.4,6.7-15.4a47.66,47.66,0,0,1,4-3.7C1020.9,431,1021,435.9,1021,442Z" transform="translate(0.5 3.83)"/><path d="M725,484.7c0,2,7.1,7.3,15.3,11.4,28.5,14.4,86.2,32,141.7,43.4,9.6,2,22.2,5.2,28,7.2,51.9,17.6,100.2,64.2,151.3,145.9,28.2,45.1,58.1,107.9,76.3,160.1,1.6,4.6,3.1,8.3,3.4,8.3s2.3-3.3,4.5-7.2c31.8-59.1,71.1-118.9,106.7-162.1a783.6,783.6,0,0,1,75.2-78.6c11-10,12.5-11.6,10.5-11.9-1.3-.2-18.6,1.1-38.3,2.8s-36.1,2.9-36.2,2.7,5.4-6.9,12.3-15,12.4-15,12.2-15.1-7.8-6.9-16.8-15S1254.4,547,1254,547c-1,0-18.8,29.5-27.6,45.9-7,13-17.4,34.9-17.4,36.6,0,0.3,8.3.5,18.5,0.5H1246l-13.1,15.2c-27.2,31.6-41.4,50.3-58.2,76.6-4.5,7.1-8.5,13.1-9,13.3s-2.2-3-4-7.2c-9.3-21.2-27.2-49.8-45.1-71.9-8.1-10.1-33.7-35.5-46.1-45.9-27.9-23.2-48.5-35.8-86.5-52.6-9.6-4.3-21.5-9.7-26.5-12.1-24-11.5-35.6-23.4-38.9-39.8l-1.3-6.1-9.8-1.7c-24.5-4.3-74.8-9.5-114.9-11.8C761.8,484.3,725,483.6,725,484.7Z" transform="translate(0.5 3.83)"/><path d="M849,551.9c0,3,5.7,28.2,9.1,40.3,8.8,31.2,22.9,60.4,41.1,85,13.6,18.4,37.1,43.9,52.8,57.2,26.9,22.8,63.7,42,101,52.6,11.6,3.3,37,9.1,37,8.4,0-.2-1.7-4.1-3.9-8.7l-3.8-8.4-5.9-.6c-18.2-1.9-58.1-17.9-84.4-33.9-13-7.8-25-16.7-25-18.5a40.19,40.19,0,0,1,2.4-7.2c2.2-5.4,2.2-6,.8-9.2-1-2.2-1.5-6.7-1.6-12.6l-0.1-9.1-3.1-1.6-3.2-1.5-0.6,3.7c-1,6.2-.7,10,1.4,15.8l1.9,5.6-2.7,5.4c-1.4,3-2.9,5.4-3.2,5.4s-3.2-2.7-6.4-5.9l-5.9-5.9,2.2-3.1c1.2-1.7,2-3.5,1.7-3.9a40.1,40.1,0,0,1-1.4-6.7,25.39,25.39,0,0,1,1.2-14.1c0.5-1.6-.1-2.4-3.3-4.2l-4-2.3-1,3.8c-1.4,5.1-1.3,12,.3,16.5,1.1,3,1.1,4.2-.1,6.9l-1.4,3.3-5.4-5.4-5.5-5.4v-9.3c0-6.6.5-10.2,1.7-12.8l1.7-3.6-2.9-2.4A34,34,0,0,0,927,663c-0.3,0-1.5,2.4-2.7,5.4-1.7,4.3-2.1,6.6-1.6,10.8l0.6,5.3-5.2-6.4c-2.8-3.5-5.1-6.8-5.1-7.4a67.4,67.4,0,0,1,2.2-8l2.2-6.9L915,654c-2.9-2.2-3-2.1-5.1,3.2-0.8,2.2-1.9,4-2.3,4.1s-2.1-1.7-3.8-3.9l-3-4.2,2-4.5,2-4.5-3-2.9c-1.8-1.6-3.2-2.3-3.5-1.7a16.2,16.2,0,0,1-1.7,2.9c-1.3,1.8-1.4,1.7-2.9-1.2a10.94,10.94,0,0,1-1.1-6.4,7.53,7.53,0,0,0-4.7-8.1c-1-.4-3.8-6-6.7-13.5-5.9-15.1-9-25.1-13.2-42.8-1.7-7.2-3.4-13.8-3.6-14.7-0.3-1.1-2.4-2-6.2-2.8-3.1-.6-6.5-1.4-7.4-1.6S849,551.3,849,551.9Z" transform="translate(0.5 3.83)"/><path d="M1388.6,605.2c-1,2.9-5.8,13.6-10.8,23.7-8,16.5-9.1,18.3-10.4,16.9-0.9-.8-1.8-3.4-2.1-5.7-0.5-3.9-.7-4.1-4.1-4.1h-3.5l0.7,4.6a33.77,33.77,0,0,0,3.2,9.4l2.6,4.7-3.8,5.9c-28.4,45.1-77.1,83.9-132.6,105.8l-9.7,3.8-5.9,9.2c-3.3,5-5.8,9.2-5.7,9.4,0.5,0.6,26.1-8,36.6-12.3,36.9-15,66.8-35.8,97.5-67.8,23-23.9,42-52.1,54.6-80.9,3.8-8.8,9.8-25.2,9.8-27,0-.4-3.3-0.8-7.3-0.8h-7.2Z" transform="translate(0.5 3.83)"/><path d="M837,608.4c0,4-2.8,8.1-6.9,10.1-2,1-20.2,9.6-40.6,19.2-38.3,17.9-41.6,19-46.3,15.7-1.2-.8-2.2-1.3-2.2-1,0,1.6,15.4,34.6,18.9,40.5,5.1,8.7,12.9,16.7,19,19.5,3.7,1.7,6.5,2.1,14.1,2.1,8.7,0,10-.3,14.9-3a26.19,26.19,0,0,0,12.5-15.3l1.6-4.7h8.2c7.2,0,8.9-.4,12.9-2.7a31.58,31.58,0,0,0,15.7-25.4c0.8-10.1-1-15.3-14.7-43.4C839,609.7,837,606.3,837,608.4Zm6,30.7c6.6,13.3,7.8,18.8,6.1,26.2-1.5,6.7-4.9,10.9-11.3,14.1s-12,3.3-17.9.3l-4.5-2.2-0.1,4.5c-0.1,8.2-6.5,17.1-14.8,20.5-2.1,1-6.5,1.7-9.6,1.7-12.4,0-20.2-7.9-30-30.6a87.68,87.68,0,0,1-3.9-9.7c0-.4,1.7-1.4,3.8-2.2s19.7-9.2,39.2-18.6,35.8-16.7,36.3-16.4S839.8,632.6,843,639.1Z" transform="translate(0.5 3.83)"/><path d="M817.2,640.3l-14.3,7.3,4.5,8.9c7.3,14.7,13.6,20.5,21.9,20.5,7.2,0,14.7-8.5,14.7-16.7,0-6.7-8.7-27.4-11.5-27.2C832,633.1,825.1,636.4,817.2,640.3Zm17.2,19.6A7.14,7.14,0,0,1,827,667c-3.1,0-6.8-3.7-10.1-10.2l-2-3.8,7.3-3.4,7.3-3.3,2.4,5.1A24,24,0,0,1,834.4,659.9Z" transform="translate(0.5 3.83)"/><path d="M781.3,657.6c-9.5,4.6-17.3,8.9-17.3,9.6s2.1,5.4,4.6,10.6c5.3,10.9,12.8,19.4,18.5,21a18.16,18.16,0,0,0,20.9-10c3.7-8.6,2-17.3-6.7-34l-2.8-5.5ZM800,673.1c1.5,4.7,1.8,7.2,1.2,9a9.67,9.67,0,0,1-9.2,6.4c-4.9,0-9-3.7-13.1-11.8l-3-5.8,7.3-3.2c13.2-5.9,12.2-5.7,13.5-3.3A54.15,54.15,0,0,1,800,673.1Z" transform="translate(0.5 3.83)"/><path d="M1425.2,638.5c-18.2,6.6-28.2,20.4-28.2,38.8,0,14.9,7,25.9,19.5,30.6,12.7,4.8,21.4,2.5,36.6-9.8,14.4-11.6,19.8-13,23.4-6,4.1,7.9-1.8,16.8-12.2,18.5a13.08,13.08,0,0,1-6.2-.5c-2.6-1.4-2.7-.6-0.7,5.9l1.4,4.5,4.9-.1c5.1-.2,13.3-3.2,16.6-6.2,3.9-3.5,6.7-9.9,7.3-16.3,0.5-5.4.2-7.1-1.8-10.9-4-7.8-13.6-11.1-22.8-7.8-1.9.6-8.1,4.9-13.8,9.6-12.3,9.9-15.7,11.6-22.9,11-11.7-1-20.6-11.1-20.5-23.3,0.1-10.5,8.2-22.4,18.4-27.3a24.14,24.14,0,0,1,7.2-2.2c1.4,0,2.8-.5,3.1-1,0.6-1-1.2-7.9-2.4-9.2C1431.8,636.5,1428.7,637.2,1425.2,638.5Z" transform="translate(0.5 3.83)"/><path d="M1338.6,637.8c-0.6.9,3.3,10.6,6.1,15.3l2,3.4-4.4,8.8-4.4,8.8,3.7-.3c3.5-.3,3.7-0.6,7.9-9.5l4.3-9.1-2.2-3.4a61.36,61.36,0,0,1-6-13.1C1345,637,1339.6,636.2,1338.6,637.8Z" transform="translate(0.5 3.83)"/><path d="M1318.7,644.8c-4.4,4.5-4.3,5.3,1.8,12.1l3.4,3.7-3.5,7.9c-1.9,4.3-3.4,8.1-3.4,8.4s1.8,0.5,4,.3c4-.4,4.1-0.5,8.6-9.4,4.3-8.5,4.4-9.1,2.7-10.4a8.24,8.24,0,0,0-2.5-1.4c-1.2,0-6-8.9-6.7-12.1l-0.6-3Z" transform="translate(0.5 3.83)"/><path d="M1429.3,653.3a27.53,27.53,0,0,0-14.6,12.8c-7,13.9-.4,27.1,13.6,27.2,6.4,0.1,9.2-1.4,18.2-9.3,12.9-11.5,20.4-14.3,29.9-11.6,10.8,3.2,17.4,13.5,16.4,26-1.2,14.1-12.1,25.7-25.9,27.3-2.7.3-5.1,0.9-5.4,1.3s0.2,2.8.9,5.6c1.2,4.6,1.4,4.9,4.2,4.6,5-.6,17-6.8,21.9-11.3,9.7-9,13.8-18.1,13.7-30.8-0.1-13.9-6-24.4-17-29.8-5-2.5-6.8-2.8-15.2-2.8-11.8,0-15.5,1.7-27.3,12-12,10.5-14.4,11.4-19.2,7.2-8.2-7,3-21.3,15.1-19.4,1.9,0.3,3.4.3,3.2-.1s-1.1-2.8-2.2-5.5C1437.5,651.5,1435.8,650.9,1429.3,653.3Z" transform="translate(0.5 3.83)"/><path d="M1300.1,662.3c-1.5,1.7-1.8,2.6-1,3.4s0.4,3.2-1.5,9c-1.4,4.3-2.6,8.2-2.6,8.6s1.7,0.7,3.8.5l3.7-.3,3.1-9c3-8.4,3.1-9.1,1.5-10.8C1304.1,660.2,1302.4,659.9,1300.1,662.3Z" transform="translate(0.5 3.83)"/><path d="M879,693.5c0,4.7.7,4-39,39.9-15.1,13.7-29.1,25.6-30.9,26.4a14.19,14.19,0,0,1-7.4.8l-3.9-.7,6.8,7.8c3.8,4.3,13.9,15.8,22.4,25.5l15.4,17.6,4.4-3,4.4-3-3.4-3.7c-1.9-2-9.7-10.5-17.3-19-13.6-15.1-13.8-15.4-11.8-17,1.2-.9,17.7-15.5,36.7-32.5l34.5-30.9-2.8-3.6a67.65,67.65,0,0,0-5.5-6l-2.6-2.4v3.8Z" transform="translate(0.5 3.83)"/><path d="M983.3,695.6c-0.3.8-.3,4.5-0.1,8.2,0.5,6.7,2.8,12.7,5.7,14.8,1.4,1.1,1.3,1.6-.1,5-2.6,6.1-3,8.3-2.3,12,0.5,2.9,1,3.4,3.4,3.4,2.7,0,2.9-.4,3.6-4.8a27.71,27.71,0,0,1,2.8-8.4c1.9-3.5,1.9-3.9.4-5.6-3.1-3.4-4.7-9-4.7-16.6v-7.4l-3.1-1.1C984.7,693.7,984,693.7,983.3,695.6Z" transform="translate(0.5 3.83)"/><path d="M1376.6,702.9l-5.7,5.8,11.3,35.4,11.3,35.4,14.5,14.8,14.5,14.8,6.4-6.5,6.4-6.4-4.1.5c-4,.5-4.3.4-12.9-7.7-16.9-15.8-15.1-12.6-26.2-46.4-5.5-16.5-10.2-31.7-10.6-33.7a19.21,19.21,0,0,1,.4-7.5,15.76,15.76,0,0,0,.8-4.1C1382.5,697.2,1379.8,699.7,1376.6,702.9Z" transform="translate(0.5 3.83)"/><path d="M1007.2,708.1c0.5,7.9,2.4,12.8,6.4,16.3,2.3,2,2.3,2.3.9,6.1-1.5,4.2-1.9,9.5-.9,13.2,0.5,1.9,1.3,2.3,4.5,2.3h3.9v-5.5a28.78,28.78,0,0,1,1.5-9.1c1.4-3.5,1.4-3.7-1.2-6.8a25.15,25.15,0,0,1-6.3-16.9c0-4.2-.4-5.7-1.4-5.7a30.35,30.35,0,0,1-4.6-.7l-3.3-.6Z" transform="translate(0.5 3.83)"/><path d="M1034,709c0,5.4,3.3,12.2,8,16.4l3.9,3.5-1.1,6.4c-0.6,3.6-.8,7.7-0.4,9.1,0.5,2.2,1.2,2.6,4.5,2.6h3.8l0.6-9.8c0.5-9.6.5-9.7-2.3-12.7a28.81,28.81,0,0,1-7-13.7c-1-3.9-1.6-4.7-4.2-5.2C1034.4,704.5,1034,704.7,1034,709Z" transform="translate(0.5 3.83)"/><path d="M858.4,736.9l-34.2,30.8,15.5,16.9c8.5,9.3,15.8,16.8,16.2,16.8,1.3-.4,11.1-6.9,11.1-7.5,0-.4-1.2-1-2.7-1.3-4.4-1.2-10.5-6-18.6-14.9-4.2-4.7-7.7-8.7-7.7-9,0-.9,50.5-45.5,54.7-48.3a14.15,14.15,0,0,1,7.5-2.4h3.9l-5.2-6c-2.9-3.3-5.5-6-5.8-6S877.1,719.9,858.4,736.9Z" transform="translate(0.5 3.83)"/><path d="M1358.7,720.8c-6.2,6.3-6.6,6.8-4,6.5a7.18,7.18,0,0,1,4.5.9c1.3,1,12.8,29.3,12.8,31.4,0,1.1-3.6-.2-16.7-5.7-15-6.4-14.8-6.3-15.5-13.2-0.3-2.7-.5-2.6-7.6,4.5l-7.2,7.4,30.7,11.6c17,6.4,30.9,11.5,31,11.4,0.5-.4-20.2-61.6-20.7-61.6C1365.7,714,1362.4,717.1,1358.7,720.8Z" transform="translate(0.5 3.83)"/><path d="M929.3,750.7c0.2,5.3-1.7,8.7-24,42.5-5.7,8.6-11.7,18.6-13.4,22.2-7.3,15.6-4.9,28.7,7.6,41.2,14.8,15,36.6,18.6,51.6,8.7,5.3-3.5,9.3-9,27.3-37.9,16.3-26.2,19.2-30.1,23.5-31,1.4-.3,3-0.7,3.6-0.8s-2.2-2.1-6-4.4c-5.5-3.2-7.2-3.9-8.1-2.9-0.7.6-8.7,13.1-17.9,27.7-25.4,40.2-27.8,43.2-36.5,44.3-5.8.7-15.7-1.1-21.2-3.9-7-3.5-15.3-12-16.7-17-1.6-5.9-1.3-12.7.8-17.6,1-2.4,10.9-18.4,22-35.7s19.8-31.7,19.4-32.2-3.4-2.3-6.5-4.3l-5.7-3.6Z" transform="translate(0.5 3.83)"/><path d="M1315.6,761.9l-5.5,5.6,6.7,0.2c5.9,0.1,10.2,1.4,37.2,11.7l30.5,11.5,10.2,10.8c10.4,10.9,13.2,15.8,11.9,20.6-0.3,1.4,1.7-.1,5.6-4l6.1-6.1-14.4-15-14.4-15.1-13.5-5-34.2-12.9-20.6-7.9Z" transform="translate(0.5 3.83)"/><path d="M941.2,765.5c-2.6,4.2-10.5,16.7-17.6,27.8s-14.2,22.4-15.9,25c-3.5,5.5-4.6,13.4-2.8,19,2.3,7,11.9,14.5,22.6,17.7,8.6,2.5,16.6-2.3,25.5-15.5,2.5-3.8,11.3-17.7,19.4-30.9,12.2-19.6,14.6-24,13.4-25-0.7-.7-3.6-2.9-6.4-4.9l-5.2-3.7,0.8,3.4a11.21,11.21,0,0,1-.5,6.3c-1.4,3.3-33.8,54.8-36.3,57.5-4.4,5.1-13.4,3.9-19.9-2.7-7.2-7.2-7.1-7.5,12.8-39.5,9.4-15.1,18.2-28.7,19.6-30.1a12.08,12.08,0,0,1,5.6-3.3l3.2-.6-6-4c-3.3-2.2-6.4-4-6.8-4S943.8,761.4,941.2,765.5Z" transform="translate(0.5 3.83)"/><path d="M1273,779.6c0,1.6,1.4,27.9,3,58.4s2.7,56.8,2.4,58.5a38.53,38.53,0,0,1-2,5.7c-0.8,1.6-1.2,2.8-.8,2.8,2,0,13.4-7.4,13.4-8.7,0-.9-1.4-23.4-3-50.1s-2.9-48.9-2.8-49.3,17.9,13.1,39.3,30.2,39.5,31.2,40.1,31.5,4.2-1.2,7.9-3.2l6.8-3.7-4.7-1.2c-6-1.5-5.8-1.4-55.6-39.8-22.8-17.6-42.1-32.5-42.7-33C1273.3,777,1273,777.5,1273,779.6Z" transform="translate(0.5 3.83)"/><path d="M1027.1,806.2a18.13,18.13,0,0,1,1.9,6.1c0,1.4-2.9,14.3-6.4,28.8s-8.1,33.6-10.1,42.4c-3.6,15.5-3.9,16.1-8,20.2l-4.2,4.2,5.6,1.1c3.1,0.6,17.9,4.3,33,8.1s27.6,6.9,28,6.9,1.7-2,2.8-4.4l2.2-4.3-27-6.9c-14.8-3.7-26.9-7-26.9-7.3,0-1.2,20.8-85.2,21.2-85.6s42.1,10,48.9,12.1c1.4,0.4,1.8-.4,2-4l0.4-4.5-14-3.6c-7.7-2-22.4-5.7-32.7-8.3l-18.6-4.7Z" transform="translate(0.5 3.83)"/><path d="M1288.3,810.1c0.4,2.4,1.2,13.1,1.8,23.6s1.6,19.3,2.1,19.3c1.2,0,32.8-17.4,32.7-18,0-.3-5-4.4-11.2-9.1s-14.5-11.3-18.6-14.4l-7.4-5.8Z" transform="translate(0.5 3.83)"/><path d="M1221.3,809.2c-3.5,1.1-6.3,2.4-6.3,2.9s3.1,13.4,6.9,28.7c10.2,40.8,11.5,47.2,10.7,52.5-1.4,9.3-10.3,17.9-21.6,21.1-9.4,2.7-20.6,0-28.8-6.9l-3.1-2.6-3.1,4.5-3.1,4.5,4.3,3.2c12.4,9,29.6,10.1,45.3,3,12.5-5.7,19.4-14.9,20.2-27,0.4-5.8-.6-10.8-8.1-40.9-4.7-18.8-8.6-35-8.6-36a17.75,17.75,0,0,1,2-5.5C1230.3,806.4,1230.1,806.4,1221.3,809.2Z" transform="translate(0.5 3.83)"/><path d="M1200.6,814.3c-7.6,1.9-7.8,2-5,3.2a18.56,18.56,0,0,1,4.8,3.3c2.4,2.8,17.8,66.4,17,70.1s-5.1,7.8-9.1,9.2c-6.9,2.2-14.1-1.2-17.2-8.2l-1.7-3.8-3.4,5.6c-2.3,3.9-3,6-2.4,7,0.5,0.8,3.5,3.1,6.8,5.1,4.9,3.1,6.9,3.7,12.7,4,8,0.5,13.4-1.6,19.3-7.5,7.1-7.1,7.1-6.5-3.4-49.6-5.1-21-9.5-38.7-9.9-39.3S1206,813,1200.6,814.3Z" transform="translate(0.5 3.83)"/><path d="M1042.1,826.8c-3.4,12.8-7,27.7-6.7,27.9,0.1,0.2,9.2,2.5,20.2,5.1l19.9,4.9,1.7-6.1c1-3.3,1.6-6.1,1.4-6.3s-2.1.3-4.4,1.1c-3.8,1.4-5.2,1.3-15.4-.6-6.2-1.1-11.6-2.3-12-2.7-0.6-.5,2.6-15.2,3.6-16.8,0.2-.2,26.8,7.4,29.7,8.5a24.67,24.67,0,0,1,5.7,3.7l3.2,2.7v-7.1c0-8.5,1.6-7.5-19.5-12.1-8.2-1.7-17.6-3.8-20.7-4.5l-5.8-1.3Z" transform="translate(0.5 3.83)"/><path d="M1311.1,849.3l-18.3,10.2,0.6,13.5c0.4,7.4.9,15.4,1.3,17.7l0.5,4.2,7.7-4.1,7.6-4.2-3.9-3.7c-4-3.6-4-3.7-4-11.5l-0.1-7.8,12-6.8c6.6-3.6,12.5-6.7,13.1-6.7s4.4,3,8.4,6.8c6.7,6.3,7.2,7.1,6.7,10-0.4,1.7-.4,3.1-0.1,3.1,1,0,14.4-7.5,14.4-8s-26.7-23-27.2-22.9C1329.6,839.1,1321.2,843.7,1311.1,849.3Z" transform="translate(0.5 3.83)"/><path d="M1029.1,878.5c-2.6,11-4,18.9-3.5,19.4,0.8,0.8,45.2,12.1,47.4,12.1,1,0,8.4-13.9,7.7-14.6-0.2-.2-2.5.5-5.2,1.7-5.5,2.4-7.6,2.2-27.3-3.2l-11.4-3.2,0.6-3.1c0.3-1.7,1.3-6.4,2.2-10.4l1.6-7.3,3.2,0.7c1.7,0.3,7.2,1.9,12.3,3.5,6.7,2.2,9.8,3.7,11.6,5.8l2.4,2.9,1.7-6a41.88,41.88,0,0,0,1.4-6.3c-0.2-.1-8.6-2.3-18.8-4.8s-19.3-4.9-20-5.2C1033.8,860.1,1032.6,863.9,1029.1,878.5Z" transform="translate(0.5 3.83)"/><path class="cls-1" d="M2222,0h0Z" transform="translate(0.5 3.83)"/><path class="cls-2" d="M446,284.77c1.21,7.79,2.59,15.56,4,23.32v-59c-0.87,7.88-1.64,15.78-2.43,23.67C447.16,276.77,446.63,280.78,446,284.77Z" transform="translate(0.5 3.83)"/><path class="cls-2" d="M416.52,753.67c-2.29,18.11-4.86,36.2-6.38,54.4-3,35.75-1,71.93,14.77,104.77q0.66,1.38,1.36,2.74c2.32-17.77,5.58-35.42,7.95-53.19,3.73-28,3.14-56.14,1.72-84.34C433.35,727,425.12,676.21,427.78,625c1.8-34.62,6.32-69.34,7-104-1-3.92-1.84-7.87-2.45-11.88-1.81-11.87-1.24-23.59.49-35.22-1.42-12-3.68-23.9-4.32-36a334.08,334.08,0,0,1,.41-37.42c1.34-22.53,4.31-45,5-67.59-11.71,36.14-28.7,74.26-26.59,113,3.74-1.62,7.66-2.87,11.22-5,2.5-1.53,6.86-.23,7.34,3,6.43,42.52-.72,85.36-2.55,127.95-0.85,19.86.26,39.7,0.29,59.56q0,31-1.74,61.93C420.78,713.42,419.06,733.58,416.52,753.67Z" transform="translate(0.5 3.83)"/><path class="cls-2" d="M450,856.78V819.21a146.38,146.38,0,0,1-3.15-16.46,414.11,414.11,0,0,1-4,69.25c-2.29,15.62-5.06,31.18-7,46.84,5.21-13.65,8.49-28.1,11.06-42.44C448.09,869.88,449.08,863.34,450,856.78Z" transform="translate(0.5 3.83)"/><path class="cls-2" d="M427.57,184.56c0.73,7.26,2,14.91,4.95,21.69,5.15-2.7,8.87-7.3,11.57-12.73q0.59-2.95,1.22-5.89a232.1,232.1,0,0,1-2-23.21c-0.71-16.08-.65-34.55,5.24-50.11-0.09-.84-0.18-1.68-0.27-2.52a3.87,3.87,0,0,1-1.47-1.66c-3.66-8.06-3.59-16.27-2-24.85a4,4,0,0,1,1.39-2.37c0-1.27-.06-2.53-0.07-3.8a4.42,4.42,0,0,1,.46-2c-0.29-1.66-.58-3.33-0.87-5l-0.33.71c-10.54,23.32-15.71,49.67-17.79,75.07A201.44,201.44,0,0,0,427.57,184.56Z" transform="translate(0.5 3.83)"/><path class="cls-2" d="M448.24,531.45q0.87,2.71,1.76,5.41V441.75c-0.85,3.49-1.71,7-2.54,10.47-1.7,7.16-3.46,14.44-4.71,21.78,0.81,7.14,1.5,14.3,1.81,21.51,0.35,8.1.41,16.18,0.27,24.26C445.84,523.69,447,527.58,448.24,531.45Z" transform="translate(0.5 3.83)"/><path class="cls-2" d="M439.26,443.49c1.27-5.16,2.56-10.3,3.76-15.44,3.24-13.87,6-27.92,6.2-42.21,0.21-15.23-1.38-30.43-3.68-45.46-0.48-3.1-1-6.2-1.51-9.3-0.18,4.89-.42,9.77-0.75,14.65-1.72,25.27-4.91,50.46-5.09,75.81C438.13,428.91,438.58,436.22,439.26,443.49Z" transform="translate(0.5 3.83)"/><path class="cls-2" d="M443.62,35.84c-7.21-3.7-15.86-1.23-23,2.59-5.67,3-10.72-5.59-5-8.63,7.49-4,16-6.5,24-5.46a23.15,23.15,0,0,1,6.49-16.25A4.41,4.41,0,0,1,450,6.58V0L432.22,12.79C438.6,4.65,442.12,0,442.12,0H0V1024H450v-7.75a4.82,4.82,0,0,1-1.69-1.66c-5.24-8.8-2.7-18.26-2.07-27.84A44.51,44.51,0,0,0,445,973.4c-1.2,4-2.26,8-3.09,12.08-1,5-3.23,14.24.78,18.55,4.38,4.71-2.68,11.79-7.07,7.07-5.87-6.32-5.37-15.57-4.19-23.52,1.48-10,4.63-19.68,8-29.17l-0.34-.71c-1.83-3.7-3.87-7.29-6-10.84l-0.14.23c-2.55,4-9.53,2.66-9.32-2.52,0.16-4,.43-7.9.76-11.83l-0.07-.11a173.16,173.16,0,0,1-13.78-28c-12.89-33.51-13.16-69.6-9.64-104.86,1.83-18.32,4.5-36.54,6.7-54.82,2.45-20.38,3.87-40.9,4.86-61.4q1.52-31.45,1.16-62.94c-0.22-19.63-.87-39.1.29-58.73,2.15-36.27,7.57-73.2,3.19-109.5-3.73,1.37-7.53,2.65-10.44,5.28-3.45,3.12-8,.71-8.54-3.54-3-23.46,2-47.17,8.48-69.62,6.15-21.16,14-41.79,20.42-62.85,2.86-9.31,5.47-18.71,7.45-28.24q0.17-7.27.44-14.54a189.21,189.21,0,0,1-2.3-22.73c-0.43-14.24,2.53-28.14,6.09-42a31.29,31.29,0,0,1-7.26,3.27,5.08,5.08,0,0,1-5.65-2.3c-5.73-9.93-7.53-21.83-8.47-33.09-2.23-26.93,1.36-54.84,8-80.94a190.61,190.61,0,0,1,13.16-37A84.86,84.86,0,0,1,450,46V41.38c-0.17-.22-0.36-0.43-0.54-0.65A19,19,0,0,1,443.62,35.84Z" transform="translate(0.5 3.83)"/><path class="cls-2" d="M450,927.81V908.59A158.89,158.89,0,0,1,438.78,937c1.77,2.89,3.51,5.79,5.18,8.74C446.09,939.76,448.13,933.81,450,927.81Z" transform="translate(0.5 3.83)"/><path class="cls-2" d="M441.9,721.7c1.72,19.71,3.21,39.44,4.15,59.2,0.23-8.33.91-16.68,1.53-24.89,0.47-6.2,1.05-12.38,1.67-18.56q-1.07-13-1.89-26c-0.54-1.55-1.06-3.11-1.56-4.67a144.57,144.57,0,0,1-6.36-30.09c-2-21,2.65-41.85,8.34-61.95A4.59,4.59,0,0,1,450,612V570.79c-1.89-7.34-4.09-14.59-6.46-21.8-2.11,32-6,64-6.46,96.13C436.68,670.79,439.68,696.17,441.9,721.7Z" transform="translate(0.5 3.83)"/><path class="cls-2" d="M458.36,221.7a5.44,5.44,0,0,1-2.56-2.07c-0.46-.74-0.89-1.5-1.31-2.26-3.4,18.29-5.06,36.85-6.92,55.35-0.41,4-.94,8.06-1.57,12,1.17,7.55,2.51,15.07,3.86,22.59l11.73-41.47Z" transform="translate(0.5 3.83)"/><path class="cls-2" d="M427.57,184.56c0.73,7.26,2,14.91,4.95,21.69,5.15-2.7,8.87-7.3,11.57-12.73q0.59-2.95,1.22-5.89a232.1,232.1,0,0,1-2-23.21c-0.71-16.08-.65-34.55,5.24-50.11-0.09-.84-0.18-1.68-0.27-2.52a3.87,3.87,0,0,1-1.47-1.66c-3.66-8.06-3.59-16.27-2-24.85a4,4,0,0,1,1.39-2.37c0-1.27-.06-2.53-0.07-3.8a4.42,4.42,0,0,1,.46-2c-0.29-1.66-.58-3.33-0.87-5l-0.33.71c-10.54,23.32-15.71,49.67-17.79,75.07A201.44,201.44,0,0,0,427.57,184.56Z" transform="translate(0.5 3.83)"/><path class="cls-2" d="M438.5,64.11a98.81,98.81,0,0,1,7.38-12.81l-1-14a17.88,17.88,0,0,1-1.23-1.4,17,17,0,0,0-8-1.84L247.13,1024,407.57,456.89c-0.31.24-.61,0.48-0.9,0.74-3.45,3.12-8,.71-8.54-3.54-3-23.46,2-47.17,8.48-69.62,6.15-21.16,14-41.79,20.42-62.85,2.86-9.31,5.47-18.71,7.45-28.24q0.17-7.27.44-14.54a189.21,189.21,0,0,1-2.3-22.73c-0.43-14.24,2.53-28.14,6.09-42a31.29,31.29,0,0,1-7.26,3.27,5.08,5.08,0,0,1-5.65-2.3c-5.73-9.93-7.53-21.83-8.47-33.09-2.23-26.93,1.36-54.84,8-80.94A190.61,190.61,0,0,1,438.5,64.11Z" transform="translate(0.5 3.83)"/><path class="cls-2" d="M407.39,445.82c1.24-.54,2.49-1,3.75-1.53L431,373.92c1.23-13.69,2.5-27.38,2.93-41.1C422.26,369,405.27,407.08,407.39,445.82Z" transform="translate(0.5 3.83)"/><path class="cls-2" d="M443,12.12L442.12,0l-4.6,24.14c0.69,0,1.38.11,2.07,0.2A22.33,22.33,0,0,1,443,12.12Z" transform="translate(0.5 3.83)"/><polygon class="cls-2" points="525.12 46.95 462.1 269.72 517.62 1027.83 525.12 46.95"/><polyline class="cls-2" points="2222.5 1027.83 1815.5 1027.83 1815.5 3.83 2222.5 3.83"/><polygon class="cls-3" points="327.13 3.83 391.63 1027.83 499.62 1027.83 565.62 3.83 327.13 3.83"/><polygon class="cls-3" points="1743.06 3.83 1909.55 3.83 1924.55 1027.83 1719.06 1027.83 1743.06 3.83"/></svg>