<svg height="464pt" viewBox="0 -16 464.00002 464" width="464pt" xmlns="http://www.w3.org/2000/svg"><path d="m0 224h128v176h-128zm0 0" fill="#e3584b"/><path d="m80 224h48v176h-48zm0 0" fill="#cf4e42"/><path d="m112 432h-96l-16-32h128zm0 0" fill="#d6d9db"/><path d="m248 78.816406v-46.816406h-48v46.816406c0 27.007813-6.882812 53.574219-20 77.183594s-20 50.175781-20 77.183594v182.816406c0 8.835938 7.164062 16 16 16h96c8.835938 0 16-7.164062 16-16v-182.816406c0-27.007813-6.882812-53.574219-20-77.183594s-20-50.175781-20-77.183594zm0 0" fill="#88b337"/><path d="m160 394.753906v21.246094c0 8.835938 7.164062 16 16 16h96c8.835938 0 16-7.164062 16-16v-182.816406c-.003906-20.476563-3.972656-40.761719-11.679688-59.734375-23.71875 118-75.609374 185.199219-116.320312 221.304687zm0 0" fill="#7da332"/><path d="m200 0h48v32h-48zm0 0" fill="#d6d9db"/><path d="m288 360h-96v-136h96" fill="#d6d9db"/><path d="m200 32h48v16h-48zm0 0" fill="#6a941c"/><path d="m128 224h-128l16-32h96zm0 0" fill="#d6d9db"/><path d="m128 336-17.71875 7.089844c-14.71875 5.886718-30.429688 8.910156-46.28125 8.910156s-31.5625 3.023438-46.28125 8.910156l-17.71875 7.089844v-80l17.71875-7.089844c14.71875-5.886718 30.429688-8.910156 46.28125-8.910156s31.5625-3.023438 46.28125-8.910156l17.71875-7.089844zm0 0" fill="#d6d9db"/><path d="m360 96h64v16h-64zm0 0" fill="#5e5e5e"/><path d="m416 124.183594v-20.183594h-48v20.183594c-28.746094 10.164062-47.972656 37.328125-48 67.816406v216c0 13.253906 10.746094 24 24 24s24-10.746094 24-24c0 13.253906 10.746094 24 24 24s24-10.746094 24-24c0 13.253906 10.746094 24 24 24s24-10.746094 24-24v-216c-.027344-30.488281-19.253906-57.652344-48-67.816406zm0 0" fill="#5e5e5e"/><path d="m416 96h-48v-16c0-4.417969 3.582031-8 8-8h32c4.417969 0 8 3.582031 8 8zm0 0" fill="#d6d9db"/><path d="m320 208h144v152h-144zm0 0" fill="#e3584b"/><g fill="#474747"><path d="m416 124.183594v-12.183594h-48v12.183594c-3 1.078125-5.921875 2.351562-8.753906 3.816406h65.507812c-2.832031-1.464844-5.753906-2.738281-8.753906-3.816406zm0 0"/><path d="m320 383.902344v24.097656c0 13.253906 10.746094 24 24 24s24-10.746094 24-24c0 13.253906 10.746094 24 24 24s24-10.746094 24-24c0 13.253906 10.746094 24 24 24s24-10.746094 24-24v-48h-113.601562c-9.230469 9.050781-19.425782 17.066406-30.398438 23.902344zm0 0"/><path d="m449.007812 148.160156c-3.796874 20.175782-8.601562 40.144532-14.398437 59.839844h29.390625v-16c.011719-15.875-5.261719-31.296875-14.992188-43.839844zm0 0"/></g><path d="m350.398438 360h113.601562v-152h-29.375c-23.511719 79.472656-57.023438 125.753906-84.226562 152zm0 0" fill="#cf4e42"/></svg>