<svg height="464pt" viewBox="0 0 464 464" width="464pt" xmlns="http://www.w3.org/2000/svg"><path d="m448 288h-208v-184c0-57.4375 46.5625-104 104-104s104 46.5625 104 104zm0 0" fill="#8e4d30"/><path d="m272 256h144c26.507812 0 48 21.492188 48 48v160h-240v-160c0-26.507812 21.492188-48 48-48zm0 0" fill="#4398d1"/><path d="m376 248v-56h-64v56c0 4.417969-3.582031 8-8 8h-16c12.191406 19.136719 33.308594 30.722656 56 30.722656s43.808594-11.585937 56-30.722656h-16c-4.417969 0-8-3.582031-8-8zm0 0" fill="#f8cab9"/><path d="m376 224.425781v-32.425781h-64v32.425781c20.136719 10.101563 43.863281 10.101563 64 0zm0 0" fill="#f6baa4"/><path d="m416 464h-144v-56c-22.09375-26.507812-18.511719-65.910156 8-88h128c26.511719 22.089844 30.09375 61.492188 8 88zm0 0" fill="#8f4b08"/><path d="m280 328c-.957031-.003906-1.910156-.175781-2.808594-.503906-1.988281-.742188-3.601562-2.25-4.484375-4.183594-.878906-1.933594-.953125-4.140625-.203125-6.128906l24-64c1.546875-4.140625 6.15625-6.242188 10.296875-4.695313s6.242188 6.15625 4.695313 10.296875l-24 64c-1.164063 3.132813-4.152344 5.214844-7.496094 5.214844zm0 0" fill="#8f4b08"/><path d="m408 328c-3.335938.003906-6.320312-2.0625-7.496094-5.183594l-24-64c-1.546875-4.140625.554688-8.75 4.695313-10.296875s8.75.554688 10.296875 4.695313l24 64c.75 1.988281.675781 4.195312-.203125 6.128906-.882813 1.933594-2.496094 3.441406-4.484375 4.183594-.902344.320312-1.851563.480468-2.808594.472656zm0 0" fill="#8f4b08"/><path d="m416 464v-49.71875c-41.84375 24.429688-87.683594 41.261719-135.390625 49.71875zm0 0" fill="#804307"/><path d="m344 216c-39.765625 0-72-32.234375-72-72v-40c15.726562-10.484375 28.445312-24.894531 36.894531-41.800781l3.105469-6.199219 4.542969 3.785156c28.410156 23.675782 62.847656 38.984375 99.457031 44.214844v40c0 39.765625-32.234375 72-72 72zm0 0" fill="#f8cab9"/><path d="m308 136c-6.628906 0-12-5.371094-12-12s5.371094-12 12-12 12 5.371094 12 12-5.371094 12-12 12zm0 0" fill="#8f4b08"/><path d="m380 136c-6.628906 0-12-5.371094-12-12s5.371094-12 12-12 12 5.371094 12 12-5.371094 12-12 12zm0 0" fill="#8f4b08"/><path d="m224 464h-224v-112h160l64 72zm0 0" fill="#d45246"/><path d="m96 464h-96v-112h32l64 72zm0 0" fill="#e3584b"/><path d="m56 272h32v80h-32zm0 0" fill="#e3584b"/><path d="m0 192h144v80h-144zm0 0" fill="#4398d1"/><path d="m48 272h96v-80h-16zm0 0" fill="#3e8dc2"/><path d="m104 232h16v16h-16zm0 0" fill="#5eb3d1"/><path d="m72 232h16v16h-16zm0 0" fill="#5eb3d1"/><path d="m40 232h16v16h-16zm0 0" fill="#5eb3d1"/><g fill="#ff7230"><path d="m136 376h16v16h-16zm0 0"/><path d="m104 376h16v16h-16zm0 0"/><path d="m160 408h16v16h-16zm0 0"/><path d="m128 408h16v16h-16zm0 0"/></g><path d="m56 272h32v16h-32zm0 0" fill="#d45246"/></svg>