<svg height="464pt" viewBox="0 0 464 464" width="464pt" xmlns="http://www.w3.org/2000/svg"><path d="m0 303.992188h128v144c0 8.839843-7.164062 16-16 16h-96c-8.835938 0-16-7.160157-16-16zm0 0" fill="#5e5e5e"/><path d="m72 303.992188v144c0 8.839843-7.164062 16-16 16h56c8.835938 0 16-7.160157 16-16v-144zm0 0" fill="#525252"/><path d="m96 271.992188h-64v-256l64 24zm0 0" fill="#c74a44"/><path d="m16 143.992188h96v160h-96zm0 0" fill="#b8bbbd"/><path d="m16 263.992188h96v40h-96zm0 0" fill="#d6d9db"/><path d="m81.601562 15.242188c-14.761718-13.761719-34.601562-19.199219-44.320312-12.167969-9.722656 7.03125-5.632812 23.902343 9.117188 37.671875 14.753906 13.769531 34.601562 19.199218 44.320312 12.167968 9.722656-7.03125 5.632812-23.902343-9.117188-37.671874zm0 0" fill="#e3584b"/><path d="m464 215.992188c0 101.621093-82.378906 184-184 184s-184-82.378907-184-184c0-101.617188 82.378906-184 184-184s184 82.382812 184 184zm0 0" fill="#5e5e5e"/><path d="m416 215.992188c0 75.113281-60.890625 136-136 136s-136-60.886719-136-136c0-75.109376 60.890625-136 136-136s136 60.890624 136 136zm0 0" fill="#71c4d1"/><path d="m392 215.992188c0 61.859374-50.144531 112-112 112s-112-50.140626-112-112c0-61.855469 50.144531-112 112-112s112 50.144531 112 112zm0 0" fill="#87ced9"/><path d="m96 399.992188h368v32c0 17.675781-14.328125 32-32 32h-304c-17.671875 0-32-14.324219-32-32zm0 0" fill="#5e5e5e"/><g fill="#d8eff2"><path d="m222.34375 258.332031 104-104 11.3125 11.3125-104 104zm0 0"/><path d="m202.339844 198.339844 52-52 11.3125 11.3125-51.996094 52zm0 0"/><path d="m294.347656 262.339844 51.996094-52 11.3125 11.316406-51.996094 51.996094zm0 0"/></g><path d="m24 327.992188h16v16h-16zm0 0" fill="#b8bbbd"/><path d="m24 359.992188h16v80h-16zm0 0" fill="#b8bbbd"/><path d="m232 399.992188v16c0 8.839843 7.164062 16 16 16h64c8.835938 0 16-7.160157 16-16v-16zm0 0" fill="#525252"/></svg>