<svg height="464pt" viewBox="0 0 464 464.07326" width="464pt" xmlns="http://www.w3.org/2000/svg"><path d="m152.035156 96v304c83.949219 0 152-68.050781 152-152s-68.050781-152-152-152zm0 0" fill="#6e9918"/><path d="m176.035156 98.070312c-7.933594-1.316406-15.957031-2.011718-24-2.070312v304c8.042969-.058594 16.066406-.753906 24-2.070312zm0 0" fill="#648c15"/><path d="m272.035156 248c0-66.273438-53.722656-120-120-120v240c66.277344 0 120-53.726562 120-120zm0 0" fill="#e3584b"/><path d="m176.035156 130.398438c-7.898437-1.601563-15.9375-2.402344-24-2.398438v240c8.0625.003906 16.101563-.796875 24-2.398438zm0 0" fill="#d64740"/><path d="m152.035156 322.824219v45.175781c42.734375.039062 82.253906-22.667969 103.742188-59.605469 21.488281-36.9375 21.6875-82.515625.53125-119.640625-24.359375 51.882813-59.980469 97.6875-104.273438 134.070313zm0 0" fill="#d64740"/><path d="m.0351562 248c0 83.949219 68.0546878 152 151.9999998 152v-304c-83.945312 0-151.9999998 68.050781-151.9999998 152zm0 0" fill="#77a321"/><path d="m120.035156 342.398438c.277344-12.664063-2.753906-25.183594-8.796875-36.320313-4.996093-8.941406-7.484375-19.0625-7.203125-29.300781-.28125-10.230469 2.207032-20.347656 7.203125-29.28125 6.042969-11.125 9.074219-23.636719 8.796875-36.296875.277344-12.664063-2.757812-25.179688-8.796875-36.3125-4.996093-8.933594-7.484375-19.054688-7.203125-29.285157-.28125-10.230468 2.207032-20.347656 7.203125-29.28125 1.414063-2.894531 2.8125-5.800781 4.078125-9.007812l3.9375-7.648438c-7.074218 1.582032-14.027344 3.675782-20.800781 6.257813-.535156 1.132813-1.066406 2.257813-1.601563 3.375-6.050781 11.125-9.089843 23.640625-8.816406 36.304687-.277344 12.660157 2.757813 25.171876 8.800782 36.300782 4.992187 8.941406 7.480468 19.0625 7.199218 29.296875.28125 10.230469-2.203125 20.347656-7.199218 29.28125-6.039063 11.117187-9.074219 23.621093-8.800782 36.273437-.277344 12.664063 2.757813 25.183594 8.800782 36.316406 9.589843 18.359376 9.589843 40.25 0 58.609376-2.515626 4.910156-4.570313 10.042968-6.136719 15.335937 4.898437 2.175781 9.910156 4.089844 15.007812 5.738281 1.308594-4.878906 3.15625-9.59375 5.511719-14.058594 6.046875-11.125 9.085938-23.636718 8.816406-36.296874zm0 0" fill="#648c15"/><path d="m66.75 371.070312c3.730469-9.085937 5.53125-18.851562 5.285156-28.671874.277344-12.664063-2.753906-25.183594-8.796875-36.320313-4.996093-8.941406-7.484375-19.0625-7.203125-29.300781-.28125-10.230469 2.207032-20.347656 7.203125-29.28125 6.042969-11.125 9.074219-23.636719 8.796875-36.296875.277344-12.664063-2.757812-25.179688-8.796875-36.3125-4.996093-8.933594-7.484375-19.054688-7.203125-29.285157-.007812-2.808593.136719-5.617187.441406-8.410156l1.207032-8.199218c-6.308594 5.023437-12.210938 10.539062-17.648438 16.496093v.113281c-.277344 12.660157 2.757813 25.171876 8.800782 36.300782 4.992187 8.941406 7.480468 19.0625 7.199218 29.296875.28125 10.230469-2.203125 20.347656-7.199218 29.28125-6.039063 11.117187-9.074219 23.621093-8.800782 36.273437-.277344 12.664063 2.757813 25.183594 8.800782 36.316406 5 8.949219 7.484374 19.082032 7.199218 29.328126.199219 6.992187-.925781 13.957031-3.308594 20.53125 4.144532 3.601562 8.480469 6.976562 12.988282 10.109374l.640625-1.152343c.144531-.261719.273437-.542969.394531-.816407zm0 0" fill="#648c15"/><g fill="#8f4b08"><path d="m176.035156 264h16v16h-16zm0 0"/><path d="m176.035156 216h16v16h-16zm0 0"/><path d="m176.035156 312h16v16h-16zm0 0"/><path d="m208.035156 232h16v16h-16zm0 0"/><path d="m208.035156 184h16v16h-16zm0 0"/><path d="m208.035156 280h16v16h-16zm0 0"/><path d="m176.035156 168h16v16h-16zm0 0"/></g><path d="m112.035156 408c0 30.929688-25.070312 56-56 56-30.925781 0-55.9999998-25.070312-55.9999998-56s25.0742188-56 55.9999998-56c30.929688 0 56 25.070312 56 56zm0 0" fill="#ffa217"/><path d="m82.902344 358.863281c9.101562 21.03125 6.230468 45.324219-7.53125 63.648438-13.757813 18.324219-36.289063 27.863281-59.023438 24.984375 15.472656 15.5625 38.605469 20.652344 59.183594 13.023437 20.574219-7.628906 34.796875-26.570312 36.382812-48.457031 1.589844-21.886719-9.753906-42.683594-29.011718-53.199219zm0 0" fill="#f79502"/><path d="m80.035156 400c-12.847656.046875-24.605468-7.222656-30.308594-18.734375l-.851562-1.691406 14.320312-7.148438.839844 1.6875c3.015625 6.074219 9.21875 9.910157 16 9.886719zm0 0" fill="#f28e22"/><path d="m184.035156 376h-16v-32c0-8.835938-7.160156-16-16-16v-16c17.675782 0 32 14.328125 32 32zm0 0" fill="#8f4b08"/><path d="m198.667969 464c-4.363281 0-8.664063-1.015625-12.566407-2.96875l-10.066406-5.03125-10.0625 5.03125c-3.902344 1.953125-8.207031 2.96875-12.566406 2.96875-10.644531 0-20.378906-6.015625-25.136719-15.535156l-2.792969-5.601563c-8.835937-17.671875-13.4375-37.160156-13.441406-56.917969-.003906-18.75 15.195313-33.949218 33.945313-33.945312 9.003906 0 17.636719 3.578125 24 9.945312l6.054687 6.054688 6.058594-6.054688c6.363281-6.367187 14.996094-9.945312 24-9.945312 18.746094-.003906 33.949219 15.195312 33.941406 33.945312.003906 19.765626-4.597656 39.261719-13.4375 56.941407l-2.792968 5.601562c-4.765626 9.511719-14.496094 15.515625-25.136719 15.511719zm0 0" fill="#e3584b"/><path d="m206.09375 352c-.617188 0-1.21875.144531-1.832031.183594 2.472656 5.339844 3.757812 11.148437 3.773437 17.03125.003906 24.015625-5.582031 47.703125-16.320312 69.183594l-3.390625 6.777343c-2.378907 4.726563-5.828125 8.835938-10.070313 12l7.847656 3.929688c13.882813 6.945312 30.765626 1.316406 37.703126-12.570313l2.792968-5.597656c8.84375-17.695312 13.449219-37.210938 13.4375-56.992188.007813-18.75-15.195312-33.949218-33.941406-33.945312zm0 0" fill="#d64740"/><path d="m360.035156 88-48-48h-48l72 72zm0 0" fill="#77a321"/><path d="m360.035156 88 48-48h48l-72 72zm0 0" fill="#77a321"/><path d="m384.035156 112h-48v-88l24-24 24 24zm0 0" fill="#7aa822"/><path d="m384.035156 184h-48v-72l24-24 24 24zm0 0" fill="#88b337"/><path d="m336.035156 112-24-24h-48l40 40v56h32zm0 0" fill="#82ad31"/><path d="m384.035156 112 24-24h48l-40 40v56h-32zm0 0" fill="#82ad31"/><path d="m360.035156 152c57.4375 0 104 46.5625 104 104v104c0 57.4375-46.5625 104-104 104s-104-46.5625-104-104v-104c0-57.4375 46.5625-104 104-104zm0 0" fill="#ffa217"/><path d="m402.875 161.3125c13.730469 18.011719 21.167969 40.039062 21.160156 62.6875v104c.050782 35.339844-17.871094 68.277344-47.570312 87.425781-29.699219 19.152344-67.097656 21.886719-99.269532 7.261719 26.917969 35.667969 73.625 50.128906 115.988282 35.917969 42.363281-14.214844 70.894531-53.921875 70.851562-98.605469v-104c-.015625-40.835938-23.941406-77.878906-61.160156-94.6875zm0 0" fill="#f79502"/><path d="m464.035156 324.6875-8 8-36.6875-36.6875 36.6875-36.6875 8 8v-11.3125c-.03125-8.199219-1.03125-16.371094-2.972656-24.335938l-5.027344 5.023438-36.6875-36.6875 15.808594-15.800781c-3.691406-3.859375-7.675781-7.433594-11.917969-10.679688l-15.203125 15.199219-35.925781-35.917969c-8.015625-1.015625-16.128906-1.015625-24.144531 0l-35.929688 35.886719-15.199218-15.199219c-4.253907 3.246094-8.25 6.816407-11.953126 10.679688l15.84375 15.832031-36.691406 36.6875-5.023437-5.023438c-1.945313 7.964844-2.941407 16.136719-2.976563 24.335938v11.3125l8-8 36.691406 36.6875-36.691406 36.6875-8-8v35.3125c0 1.0625.128906 2.097656.160156 3.152344l7.839844-7.839844 36.691406 36.6875-26.59375 26.59375c3.050782 4.417969 6.4375 8.59375 10.136719 12.484375l27.765625-27.765625 36.691406 36.6875-18.347656 18.34375 1.761719 1.761719c5.222656 1.484375 10.554687 2.554687 15.945313 3.199219l11.949218-11.992188 11.953125 11.953125c5.390625-.644531 10.722657-1.714844 15.945313-3.203125l1.757812-1.757812-18.34375-18.304688 36.6875-36.6875 26.34375 26.34375 11.3125-11.3125-26.34375-26.34375 36.6875-36.6875 7.839844 7.839844c0-1.054688.160156-2.089844.160156-3.152344zm-19.308594-76.6875-36.691406 36.6875-36.6875-36.6875 36.6875-36.6875zm-48 48-36.691406 36.6875-36.6875-36.6875 36.6875-36.6875zm-36.691406-132.6875 36.691406 36.6875-36.691406 36.6875-36.6875-36.6875zm-84.6875 84.6875 36.6875-36.6875 36.691406 36.6875-36.691406 36.6875zm0 96 36.6875-36.6875 36.691406 36.6875-36.691406 36.6875zm84.6875 84.6875-36.6875-36.6875 36.6875-36.6875 36.691406 36.6875zm48-48-36.6875-36.6875 36.6875-36.6875 36.691406 36.6875zm0 0" fill="#e37f1b"/></svg>