<svg height="464pt" viewBox="0 0 464 464" width="464pt" xmlns="http://www.w3.org/2000/svg"><path d="m152 48-48 88v264c0 17.671875 14.328125 32 32 32h224v-296l48-88zm0 0" fill="#4398d1"/><path d="m464 136v264c0 17.671875-14.328125 32-32 32h-72v-296l48-88zm0 0" fill="#e3584b"/><path d="m152 0h256v48h-256zm0 0" fill="#ffc24f"/><path d="m360 360v72h72c17.671875 0 32-14.328125 32-32v-144zm0 0" fill="#d45246"/><path d="m208 360h-8c.019531-9.515625-5.605469-18.136719-14.320312-21.953125-8.714844-3.820313-18.863282-2.109375-25.847657 4.351563-.796875-12.574219-11.230469-22.363282-23.832031-22.363282s-23.035156 9.789063-23.832031 22.363282c-6.984375-6.460938-17.132813-8.171876-25.847657-4.351563-8.714843 3.816406-14.339843 12.4375-14.320312 21.953125h-8c-13.253906 0-24 10.746094-24 24s10.746094 24 24 24h144c13.253906 0 24-10.746094 24-24s-10.746094-24-24-24zm0 0" fill="#ffc24f"/><path d="m272 464h-272l24-72h224zm0 0" fill="#e3584b"/><path d="m317.023438 96-37.023438 32 24 32h8c17.449219-15.078125 20.800781-46.929688 5.023438-64zm0 0" fill="#c7cacc"/><path d="m168 160h8l24-32-36.136719-32c-8.066406 8.976562-12.171875 20.828125-11.394531 32.871094.777344 12.042968 6.378906 23.265625 15.53125 31.128906zm0 0" fill="#c7cacc"/><path d="m240 320c-39.765625 0-72-32.234375-72-72v-88l32-32h80l32 32v88c0 39.765625-32.234375 72-72 72zm0 0" fill="#d6d9db"/><path d="m264 300c0-11.046875-10.746094-20-24-20s-24 8.953125-24 20 10.746094 20 24 20 24-8.953125 24-20zm0 0" fill="#5e5e5e"/><path d="m312 160h-32c-17.671875 0-32 14.328125-32 32s14.328125 32 32 32h32" fill="#5e5e5e"/><path d="m192 184h16v16h-16zm0 0" fill="#5e5e5e"/><path d="m272 184h16v16h-16zm0 0" fill="#d6d9db"/><path d="m392 352h40v32h-40zm0 0" fill="#ffc24f"/><path d="m288 392h48v16h-48zm0 0" fill="#22689c"/><path d="m288 360h48v16h-48zm0 0" fill="#22689c"/><g fill="#c74a44"><path d="m384 312h40v16h-40zm0 0"/><path d="m384 280h56v16h-56zm0 0"/><path d="m384 248h56v16h-56zm0 0"/><path d="m384 216h24v16h-24zm0 0"/><path d="m424 216h16v16h-16zm0 0"/><path d="m384 136h56v16h-56zm0 0"/><path d="m384 168h56v16h-56zm0 0"/></g><path d="m248 392h-42.398438l-21.601562 72h88zm0 0" fill="#d45246"/></svg>