<svg height="480pt" viewBox="0 0 480 480" width="480pt" xmlns="http://www.w3.org/2000/svg"><path d="m8 8h464v464h-464zm0 0" fill="#87ced9"/><path d="m16 176h-16v-168c0-4.417969 3.582031-8 8-8h160v16h-152zm0 0" fill="#22689c"/><path d="m480 176h-16v-160h-160v-16h168c4.417969 0 8 3.582031 8 8zm0 0" fill="#22689c"/><path d="m472 480h-168v-16h160v-160h16v168c0 4.417969-3.582031 8-8 8zm0 0" fill="#22689c"/><path d="m176 480h-168c-4.417969 0-8-3.582031-8-8v-168h16v160h160zm0 0" fill="#22689c"/><g fill="#4398d1"><path d="m56 176h112c4.417969 0 8-3.582031 8-8v-112c0-4.417969-3.582031-8-8-8h-112c-4.417969 0-8 3.582031-8 8v112c0 4.417969 3.582031 8 8 8zm8-112h96v96h-96zm0 0"/><path d="m128 88h-32c-4.417969 0-8 3.582031-8 8v32c0 4.417969 3.582031 8 8 8h32c4.417969 0 8-3.582031 8-8v-32c0-4.417969-3.582031-8-8-8zm-8 32h-16v-16h16zm0 0"/><path d="m168 304h-112c-4.417969 0-8 3.582031-8 8v112c0 4.417969 3.582031 8 8 8h112c4.417969 0 8-3.582031 8-8v-112c0-4.417969-3.582031-8-8-8zm-8 112h-96v-96h96zm0 0"/><path d="m96 392h32c4.417969 0 8-3.582031 8-8v-32c0-4.417969-3.582031-8-8-8h-32c-4.417969 0-8 3.582031-8 8v32c0 4.417969 3.582031 8 8 8zm8-32h16v16h-16zm0 0"/><path d="m424 48h-112c-4.417969 0-8 3.582031-8 8v112c0 4.417969 3.582031 8 8 8h112c4.417969 0 8-3.582031 8-8v-112c0-4.417969-3.582031-8-8-8zm-8 112h-96v-96h96zm0 0"/><path d="m352 136h32c4.417969 0 8-3.582031 8-8v-32c0-4.417969-3.582031-8-8-8h-32c-4.417969 0-8 3.582031-8 8v32c0 4.417969 3.582031 8 8 8zm8-32h16v16h-16zm0 0"/><path d="m64 256h32v-16h-32v-40h-16v80h16zm0 0"/><path d="m88 200h16v16h-16zm0 0"/><path d="m216 64h32v-16h-40c-4.417969 0-8 3.582031-8 8v40h16zm0 0"/><path d="m256 128v-8h24v-16h-24v-16h-16v32h-40v16h48c4.417969 0 8-3.582031 8-8zm0 0"/><path d="m264 48h16v16h-16zm0 0"/><path d="m304 280h16v-32c0-4.417969-3.582031-8-8-8h-72v16h64zm0 0"/><path d="m280 328v-48h-16v16h-24v16h24v16zm0 0"/><path d="m200 280h16v56h-16zm0 0"/><path d="m216 360h-16v64c0 4.417969 3.582031 8 8 8h32v-16h-24zm0 0"/><path d="m384 416h48v16h-48zm0 0"/><path d="m400 376h32v16h-32zm0 0"/><path d="m416 296h16v48h-16zm0 0"/><path d="m384 200h48v16h-48zm0 0"/><path d="m392 320v-32c0-4.417969-3.582031-8-8-8h-40v16h32v24zm0 0"/><path d="m240 352h40v16h-40zm0 0"/><path d="m312 360h32v-16h-24v-32h-16v40c0 4.417969 3.582031 8 8 8zm0 0"/><path d="m424 240h-32v16h24v16h16v-24c0-4.417969-3.582031-8-8-8zm0 0"/><path d="m344 392v40h16v-32h8v-16h-16c-4.417969 0-8 3.582031-8 8zm0 0"/><path d="m264 408h24v24h16v-24h16v-16h-56zm0 0"/><path d="m304 200h56v16h-56zm0 0"/><path d="m352 240h16v16h-16zm0 0"/><path d="m376 344h16v16h-16zm0 0"/><path d="m200 160h16v16h-16zm0 0"/><path d="m120 240h16v40h-16zm0 0"/><path d="m216 216v-16h-88v16h32v64h16v-64zm0 0"/><path d="m200 240h16v16h-16zm0 0"/><path d="m240 200h24v16h-24zm0 0"/><path d="m240 160h40v16h-40zm0 0"/></g></svg>