<svg height="464pt" viewBox="0 -40 464.22664 464" width="464pt" xmlns="http://www.w3.org/2000/svg"><path d="m240 120.113281c0 66.273438-53.726562 120-120 120s-120-53.726562-120-120c0-66.273437 53.726562-120 120-120s120 53.726563 120 120zm0 0" fill="#d6d9db"/><path d="m201.304688 32.035156c8.355468 42.890625-2.921876 87.273438-30.742188 120.976563-27.820312 33.699219-69.261719 53.179687-112.960938 53.101562-7.777343-.054687-15.53125-.722656-23.203124-2 30.457031 31.28125 75.507812 43.535157 117.613281 31.996094 42.105469-11.542969 74.613281-45.054687 84.863281-87.496094 10.25-42.4375-3.375-87.09375-35.570312-116.578125zm0 0" fill="#c7cacc"/><path d="m192.527344 47.808594 6.128906-18.183594c-4.242188-3.699219-8.738281-7.097656-13.457031-10.167969l-6.960938 20.65625h-26.238281v-35.550781c-5.253906-1.453125-10.597656-2.539062-16-3.257812v38.808593h-32v-38.808593c-5.402344.71875-10.746094 1.804687-16 3.257812v35.550781h-26.238281l-6.953125-20.664062c-4.71875 3.074219-9.214844 6.472656-13.457032 10.175781l6.121094 18.183594c-19.550781 46.222656-19.550781 98.386718 0 144.609375l-6.039062 18.253906c4.246094 3.703125 8.75 7.101563 13.476562 10.167969l6.851563-20.726563h26.238281v35.550781c5.253906 1.453126 10.597656 2.539063 16 3.257813v-38.808594h32v38.808594c5.402344-.71875 10.746094-1.804687 16-3.257813v-35.550781h26.238281l6.824219 20.734375c4.734375-3.058594 9.242188-6.457031 13.488281-10.160156l-6.023437-18.269531c19.550781-46.222657 19.550781-98.386719 0-144.609375zm-131.238282 8.304687h117.421876c4.207031 10.328125 7.382812 21.046875 9.480468 32h-136.382812c2.097656-10.953125 5.273437-21.671875 9.480468-32zm117.421876 128h-117.421876c-4.207031-10.328125-7.382812-21.046875-9.480468-32h136.382812c-2.097656 10.953125-5.273437 21.671875-9.480468 32zm11.777343-48h-140.976562c-1.007813-10.644531-1.007813-21.355469 0-32h140.976562c1.007813 10.644531 1.007813 21.355469 0 32zm0 0" fill="#b1b3b5"/><path d="m464 120.113281c0 66.273438-53.726562 120-120 120s-120-53.726562-120-120c0-66.273437 53.726562-120 120-120s120 53.726563 120 120zm0 0" fill="#d6d9db"/><path d="m425.304688 32.035156c9.367187 46.945313-4.941407 95.496094-38.269532 129.859375-33.332031 34.363281-81.425781 50.148438-128.636718 42.21875 30.457031 31.28125 75.507812 43.535157 117.613281 31.996094 42.105469-11.542969 74.613281-45.054687 84.863281-87.496094 10.25-42.4375-3.375-87.09375-35.570312-116.578125zm0 0" fill="#c7cacc"/><g fill="#5e5e5e"><path d="m336 24.113281h16v48.664063h-16zm0 0"/><path d="m379.167969 91.746094 56.671875-15.984375 4.34375 15.398437-56.667969 15.984375zm0 0"/><path d="m362.109375 153.363281 13.105469-9.160156 38.671875 55.328125-13.109375 9.164062zm0 0"/><path d="m248.03125 92.53125 3.925781-15.511719 52.667969 13.332031-3.929688 15.511719zm0 0"/><path d="m273.023438 197.859375 42.671874-54.660156 12.609376 9.84375-42.667969 54.660156zm0 0"/><path d="m248.273438 47.96875c-12.480469 16.492188-20.449219 35.949219-23.128907 56.457031l38.855469-16.3125zm0 0"/><path d="m379.015625 5.335938c-22.632813-6.914063-46.808594-6.964844-69.472656-.140626l34.457031 26.917969zm0 0"/><path d="m462.753906 103.730469c-2.75-20.132813-10.601562-39.230469-22.808594-55.472657l-15.945312 39.855469zm0 0"/><path d="m392.800781 229.714844c18.402344-8.238282 34.441407-20.96875 46.640625-37.027344l-39.441406-.574219zm0 0"/><path d="m249.183594 193.480469c12.34375 15.972656 28.507812 28.582031 47 36.671875l-8.183594-38.039063zm0 0"/><path d="m296 96.113281 16 64h64l16-64-48-32zm0 0"/></g><path d="m376 224.113281c0 79.527344-64.472656 144-144 144s-144-64.472656-144-144c0-79.527343 64.472656-144 144-144s144 64.472657 144 144zm0 0" fill="#ff7230"/><path d="m375.808594 216.746094c-2.113282-41.484375-22.097656-80.015625-54.785156-105.640625 10.253906 52.917969-2.949219 107.683593-36.195313 150.113281-33.242187 42.433594-83.257813 68.355469-137.09375 71.0625-3.488281.175781-6.941406.238281-10.398437.222656 43.515624 38.070313 105.585937 46.402344 157.597656 21.152344 52.011718-25.25 83.859375-79.171875 80.867187-136.910156zm0 0" fill="#fa6823"/><path d="m375.808594 216.746094c0-.214844-.046875-.417969-.066406-.632813h-104.0625c1.652343-32.953125 16.203124-63.9375 40.511718-86.246093l13.152344-11.800782c.652344-.613281 1.191406-1.332031 1.601562-2.128906-3.953124-3.445312-8.089843-6.667969-12.394531-9.664062l-13.03125 11.6875c-27.679687 25.351562-44.167969 60.652343-45.839843 98.152343h-15.679688v-135.761719c-5.117188-.285156-10.25-.300781-15.367188-.046874-.21875 0-.417968.046874-.632812.066406v135.742187h-16.40625c-1.671875-37.496093-18.152344-72.796875-45.824219-98.152343l-12.714843-11.40625c-4.3125 3.027343-8.457032 6.292968-12.414063 9.773437.34375.636719.777344 1.222656 1.289063 1.738281l13.148437 11.800782c24.3125 22.308593 38.863281 53.292968 40.515625 86.246093h-103.355469c-.285156 5.117188-.300781 10.25-.046875 15.367188 0 .21875.046875.417969.066406.632812h103.335938c-1.652344 32.953125-16.203125 63.9375-40.515625 86.25l-13.148437 11.796875c-.519532.519532-.957032 1.109375-1.304688 1.753906 3.957031 3.492188 8.105469 6.761719 12.421875 9.800782l12.722656-11.417969c27.679688-25.363281 44.164063-60.675781 45.824219-98.183594h16.40625v135.761719c5.117188.285156 10.25.300781 15.367188.046875.21875 0 .417968-.046875.632812-.066406v-135.742188h15.679688c1.667968 37.496094 18.148437 72.796875 45.824218 98.152344l13.023438 11.6875c4.300781-3 8.4375-6.234375 12.382812-9.6875-.40625-.789063-.949218-1.5-1.597656-2.105469l-13.152344-11.796875c-24.296875-22.320312-38.835937-53.300781-40.480468-86.25h104.082031c.285156-5.117187.300781-10.246093.046875-15.367187zm0 0" fill="#8f4b08"/><path d="m440 328.113281c0 30.929688-25.070312 56-56 56s-56-25.070312-56-56c0-30.929687 25.070312-56 56-56s56 25.070313 56 56zm0 0" fill="#88b337"/><path d="m344.40625 333.769531 16.96875 16.96875c8.035156 8.316407 19.933594 11.652344 31.121094 8.726563 11.1875-2.929688 19.925781-11.667969 22.855468-22.855469 2.925782-11.1875-.410156-23.085937-8.726562-31.121094l-16.96875-16.976562c-1.5-1.5-2.34375-3.53125-2.34375-5.65625.058594-2.367188 1.085938-4.605469 2.839844-6.199219l3.09375-3.726562c-6.558594-1.109376-13.261719-1.046876-19.796875.183593-4.046875 9.058594-2.101563 19.675781 4.894531 26.710938l16.96875 16.976562c6.246094 6.25 6.246094 16.375 0 22.625-6.328125 6.046875-16.296875 6.046875-22.625 0l-16.96875-16.96875c-7.082031-6.933593-17.691406-8.820312-26.734375-4.757812-1.292969 6.871093-1.292969 13.925781 0 20.796875l4.113281-4.726563c3.121094-3.125 8.1875-3.125 11.308594 0zm0 0" fill="#d6d9db"/></svg>