<svg height="480pt" viewBox="0 -56 480 480" width="480pt" xmlns="http://www.w3.org/2000/svg"><path d="m8 104.167969h464v256h-464zm0 0" fill="#87ced9"/><path d="m120 360.167969h352v-256h-96zm0 0" fill="#71c4d1"/><path d="m472 368.167969h-16v-16h8v-8h16v16c0 4.417969-3.582031 8-8 8zm0 0" fill="#22689c"/><path d="m422.769531 368.167969h-33.234375v-16h33.234375zm-66.457031 0h-33.234375v-16h33.234375zm-66.464844 0h-33.230468v-16h33.230468zm-66.464844 0h-33.230468v-16h33.230468zm-66.460937 0h-33.234375v-16h33.234375zm-66.457031 0h-33.234375v-16h33.234375zm0 0" fill="#22689c"/><path d="m24 368.167969h-16c-4.417969 0-8-3.582031-8-8v-16h16v8h8zm0 0" fill="#22689c"/><path d="m16 312.167969h-16v-32h16zm0-64h-16v-32h16zm0-64h-16v-32h16zm0 0" fill="#22689c"/><path d="m16 120.167969h-16v-16c0-4.417969 3.582031-8 8-8h16v16h-8zm0 0" fill="#22689c"/><path d="m422.769531 112.167969h-33.234375v-16h33.234375zm-66.457031 0h-33.234375v-16h33.234375zm-66.464844 0h-33.230468v-16h33.230468zm-66.464844 0h-33.230468v-16h33.230468zm-66.460937 0h-33.234375v-16h33.234375zm-66.457031 0h-33.234375v-16h33.234375zm0 0" fill="#22689c"/><path d="m480 120.167969h-16v-8h-8v-16h16c4.417969 0 8 3.582031 8 8zm0 0" fill="#22689c"/><path d="m480 312.167969h-16v-32h16zm0-64h-16v-32h16zm0-64h-16v-32h16zm0 0" fill="#22689c"/><path d="m297.023438 300.296875 79.972656-144.011719 13.980468 7.761719-79.972656 144.015625zm0 0" fill="#e3584b"/><path d="m304 224.167969c-17.671875 0-32-14.324219-32-32 0-17.671875 14.328125-32 32-32s32 14.328125 32 32c0 17.675781-14.328125 32-32 32zm0-48c-8.835938 0-16 7.164062-16 16 0 8.835937 7.164062 16 16 16s16-7.164063 16-16c0-8.835938-7.164062-16-16-16zm0 0" fill="#e3584b"/><path d="m384 304.167969c-17.671875 0-32-14.324219-32-32 0-17.671875 14.328125-32 32-32s32 14.328125 32 32c0 17.675781-14.328125 32-32 32zm0-48c-8.835938 0-16 7.164062-16 16 0 8.835937 7.164062 16 16 16s16-7.164063 16-16c0-8.835938-7.164062-16-16-16zm0 0" fill="#e3584b"/><path d="m217.257812 5.367188c-24.667968-9.863282-52.75-5.496094-73.257812 11.394531l-120 119.40625.097656.097656c-13.527344 10.078125-19.273437 27.558594-14.371094 43.699219 4.902344 16.140625 19.40625 27.46875 36.25 28.320312 16.847657.855469 32.417969-8.953125 38.925782-24.515625 6.507812-15.5625 2.550781-33.535156-9.886719-44.929687zm-161.257812 162.800781c0 4.417969-3.582031 8-8 8s-8-3.582031-8-8 3.582031-8 8-8 8 3.582031 8 8zm0 0" fill="#c74a44"/><path d="m75.015625 69.496094c12.4375-11.394532 16.394531-29.363282 9.886719-44.925782-6.507813-15.5625-22.078125-25.371093-38.925782-24.5195308-16.84375.8515628-31.347656 12.1796878-36.25 28.3203128-4.902343 16.140625.84375 33.621094 14.371094 43.703125l-.097656.09375 120 119.410156c20.507812 16.886719 48.589844 21.253906 73.257812 11.390625zm-27.015625-21.328125c-4.417969 0-8-3.582031-8-8s3.582031-8 8-8 8 3.582031 8 8-3.582031 8-8 8zm0 0" fill="#e3584b"/><g fill="#5eb3d1"><path d="m56 240.167969h16v80h-16zm0 0"/><path d="m88 240.167969h16v48h-16zm0 0"/><path d="m120 240.167969h16v48h-16zm0 0"/><path d="m152 240.167969h16v48h-16zm0 0"/><path d="m184 240.167969h16v48h-16zm0 0"/><path d="m216 240.167969h16v80h-16zm0 0"/><path d="m88 304.167969h16v16h-16zm0 0"/><path d="m120 304.167969h16v16h-16zm0 0"/><path d="m152 304.167969h16v16h-16zm0 0"/><path d="m184 304.167969h16v16h-16zm0 0"/></g></svg>