<svg height="464pt" viewBox="0 -69 464 463" width="464pt" xmlns="http://www.w3.org/2000/svg"><path d="m408 16.5h-96.441406c-4.839844 0-9.480469 1.921875-12.902344 5.34375l-181.3125 181.3125c-3.421875 3.421875-8.0625 5.34375-12.902344 5.34375h-48.441406c-30.929688 0-56 25.070312-56 56s25.070312 56 56 56h104l200-192h48c30.929688 0 56-25.070312 56-56s-25.070312-56-56-56zm0 0" fill="#4398d1"/><path d="m424 200.5h-48v16h28.6875l-98.34375 98.34375 11.3125 11.3125 98.34375-98.34375v28.6875h16v-48c0-4.417969-3.582031-8-8-8zm0 0" fill="#ffa230"/><path d="m200 24.5c0 13.253906-10.746094 24-24 24s-24-10.746094-24-24 10.746094-24 24-24 24 10.746094 24 24zm0 0" fill="#e3584b"/><path d="m176 80.5c-17.671875 0-32 14.328125-32 32v64l64-64c0-17.671875-14.328125-32-32-32zm0 0" fill="#e3584b"/><path d="m160 320.5h48l200-192h-48zm0 0" fill="#22689c"/><path d="m408 16.5h-14.664062l-304 304h70.664062l200-192h48c30.929688 0 56-25.070312 56-56s-25.070312-56-56-56zm0 0" fill="#3e8dc2"/><path d="m144 152.410156v24.089844l64-64c-.035156-5.257812-1.378906-10.425781-3.910156-15.03125-16.015625 22.273438-36.476563 40.980469-60.089844 54.941406zm0 0" fill="#d45246"/></svg>