<svg height="471pt" viewBox="-3 0 471 471.936" width="471pt" xmlns="http://www.w3.org/2000/svg"><path d="m424.1875 178.824219 40.28125 37.175781-40.28125 37.175781-40.289062-37.175781zm0 0" fill="#cc3831"/><path d="m328.46875 216c0 30.929688 27.199219 56 60.679688 56h42.136718c4.300782-.003906 8.34375-2.066406 10.875-5.542969 2.53125-3.480469 3.246094-7.960937 1.925782-12.058593-11.46875-34.980469-30.1875-67.148438-54.9375-94.398438-33.480469 0-60.679688 25.070312-60.679688 56zm0 0" fill="#d64740"/><path d="m328.46875 216c0-30.929688 27.199219-56 60.679688-56h42.136718c4.300782.003906 8.34375 2.066406 10.875 5.542969 2.53125 3.480469 3.246094 7.960937 1.925782 12.058593-11.46875 34.980469-30.1875 67.148438-54.9375 94.398438-33.480469 0-60.679688-25.070312-60.679688-56zm0 0" fill="#e3584b"/><path d="m219.292969 40.28125 37.175781-40.28125 37.175781 40.28125-37.175781 40.285156zm0 0" fill="#cc3831"/><path d="m256.46875 136c30.925781 0 56-27.199219 56-60.679688v-42.136718c-.003906-4.300782-2.066406-8.34375-5.546875-10.875s-7.957031-3.246094-12.054687-1.925782c-34.980469 11.46875-67.148438 30.1875-94.398438 54.9375 0 33.480469 25.070312 60.679688 56 60.679688zm0 0" fill="#d64740"/><path d="m256.46875 136c-30.929688 0-56-27.199219-56-60.679688v-42.136718c.003906-4.300782 2.0625-8.34375 5.542969-10.875s7.960937-3.246094 12.054687-1.925782c34.984375 11.46875 67.152344 30.1875 94.402344 54.9375 0 33.480469-25.074219 60.679688-56 60.679688zm0 0" fill="#e3584b"/><path d="m360.46875 56h56v56h-56zm0 0" fill="#cc3831"/><path d="m318.515625 150.527344c23.292969 23.296875 61.0625 23.296875 84.351563 0l28.3125-28.3125c3.277343-3.257813 4.816406-7.878906 4.148437-12.457032-.671875-4.574218-3.472656-8.558593-7.546875-10.742187l-33.503906-18.039063c-11.726563-6.308593-24.605469-10.179687-37.867188-11.375-19.929687-1.828124-38.867187 9.03125-47.355468 27.160157-8.488282 18.125-4.707032 39.625 9.460937 53.765625zm0 0" fill="#d64740"/><path d="m321.941406 150.527344c-23.296875-23.292969-23.296875-61.058594 0-84.351563l28.3125-28.3125c3.257813-3.273437 7.878906-4.8125 12.453125-4.140625 4.574219.667969 8.558594 3.46875 10.746094 7.542969l18.039063 33.503906c6.308593 11.722657 10.175781 24.601563 11.375 37.863281 1.828124 19.929688-9.03125 38.871094-27.160157 47.359376-18.125 8.488281-39.628906 4.703124-53.765625-9.464844zm0 0" fill="#e3584b"/><path d="m112.46875 368 40.976562-344c135.945313 57.472656 242.121094 168.535156 293.421876 306.929688l1.601562 4.308593zm0 0" fill="#cccfd1"/><path d="m153.445312 24-40.976562 344s104-32 136-136c40.375-131.199219-95.023438-208-95.023438-208zm0 0" fill="#d6d9db"/><path d="m8.46875 360 104 104v-104zm0 0" fill="#d6d9db"/><path d="m197.003906 395.199219c-2.9375-10.625-10.976562-19.089844-21.441406-22.566407l-56.503906-18.871093-14.09375-51.671875c-3.699219-13.5625-16-22.980469-30.058594-23.019532-14.054688-.035156-26.40625 9.320313-30.175781 22.859376-3.769531 13.539062 1.964843 27.933593 14.015625 35.167968l42.585937 25.550782c-11.542969 17.015624-46.832031 61.351562-100.863281 61.351562v16c44.597656 0 77.296875-25.246094 97.015625-46.671875-8 26.160156-24.550781 58.550781-58.007813 62.734375l1.984376 15.875c49.144531-6.144531 68.070312-56.914062 75.085937-87.753906l19.464844 35.6875c5.210937 9.554687 14.78125 15.9375 25.601562 17.082031 1.148438.121094 2.304688.179687 3.460938.183594 9.671875.011719 18.859375-4.203125 25.160156-11.535157 7.183594-8.371093 9.722656-19.773437 6.769531-30.402343zm-130.023437-71.824219c-5.875-3.53125-8.671875-10.550781-6.828125-17.152344 1.839844-6.605468 7.863281-11.164062 14.71875-11.148437 6.855468.015625 12.855468 4.609375 14.660156 11.222656l9.976562 36.597656zm111.085937 91.824219c-3.664062 4.261719-9.183594 6.449219-14.773437 5.863281-5.585938-.589844-10.53125-3.882812-13.226563-8.816406l-20.796875-38.191406 41.269531 13.761718c5.398438 1.820313 9.535157 6.199219 11.046876 11.691406 1.507812 5.488282.191406 11.371094-3.519532 15.691407zm0 0" fill="#e3584b"/></svg>