<svg height="464pt" viewBox="-40 0 464 464" width="464pt" xmlns="http://www.w3.org/2000/svg"><path d="m384 416h-384l32-72v-240l-32-56h384l-32 56v240zm0 0" fill="#87ced9"/><g fill="#5eb3d1"><path d="m0 0h384v48h-384zm0 0"/><path d="m0 0h384v48h-384zm0 0"/><path d="m0 416h384v48h-384zm0 0"/></g><path d="m352 344v-240l32-56h-56.902344c-55.289062 182.726562-176 300.6875-268.839844 368h325.742188zm0 0" fill="#71c4d1"/><path d="m274.144531 236.9375-33.105469 14.132812-33.039062-19.070312 33.039062-19.070312 33.105469 14.132812 6.28125-14.710938-22.074219-9.421874 20.792969-12-8-13.859376-20.792969 12 2.871094-23.824218-15.886718-1.910156-4.304688 35.734374-33.03125 19.074219v-38.144531l28.800781-21.601562-9.601562-12.796876-19.199219 14.398438v-24h-16v24l-19.199219-14.398438-9.601562 12.796876 28.800781 21.601562v38.144531l-33.03125-19.074219-4.304688-35.734374-15.886718 1.910156 2.871094 23.824218-20.792969-12-8 13.859376 20.792969 12-22.074219 9.421874 6.28125 14.710938 33.105469-14.132812 33.039062 19.070312-33.039062 19.070312-33.105469-14.132812-6.28125 14.710938 22.074219 9.421874-20.792969 12 8 13.859376 20.792969-12-2.871094 23.824218 15.886718 1.910156 4.304688-35.734374 33.03125-19.074219v38.144531l-28.800781 21.601562 9.601562 12.796876 19.199219-14.398438v24h16v-24l19.199219 14.398438 9.601562-12.796876-28.800781-21.601562v-38.144531l33.03125 19.074219 4.304688 35.734374 15.886718-1.910156-2.871094-23.824218 20.792969 12 8-13.859376-20.792969-12 22.074219-9.421874zm0 0" fill="#d8eff2"/><path d="m384 0h-48.472656c-3.855469 16.550781-8.078125 32.511719-12.574219 48h61.046875zm0 0" fill="#4ba5c4"/><path d="m0 464h384v-48h-306.945312c-24.339844 17.671875-50.117188 33.28125-77.054688 46.664062zm0 0" fill="#4ba5c4"/></svg>