<svg height="464pt" viewBox="0 0 464.00001 464" width="464pt" xmlns="http://www.w3.org/2000/svg"><path d="m332.441406 94.65625-8.882812-13.3125c12.773437-8.488281 20.445312-22.808594 20.441406-38.144531v-19.199219h16v19.199219c.007812 20.683593-10.339844 40-27.558594 51.457031zm0 0" fill="#e3584b"/><path d="m424 400h-88c-17.671875 0-32-14.328125-32-32v-88l64-104 24-80h48l16 88v184c0 17.671875-14.328125 32-32 32zm0 0" fill="#4398d1"/><path d="m464 64h-96c-4.886719-19.542969-20.59375-34.519531-40.34375-38.472656l-7.65625-1.527344v-24h80c35.347656 0 64 28.652344 64 64zm0 0" fill="#d6d9db"/><path d="m392 64h48v32h-48zm0 0" fill="#e3584b"/><path d="m304 348.886719v19.113281c0 17.671875 14.328125 32 32 32h88c17.671875 0 32-14.328125 32-32v-184l-.457031-2.503906c-41.125 63.628906-92.304688 120.160156-151.542969 167.390625zm0 0" fill="#3e8dc2"/><path d="m144 400h-112c-17.671875 0-32-14.328125-32-32v-114.550781c-.00390625-8.929688 1.238281-17.816407 3.695312-26.402344l12.304688-43.046875-14.046875-42.144531c-1.296875-3.878907-1.953125-7.941407-1.953125-12.03125-.00390625-11.292969 5.015625-22.007813 13.695312-29.230469l34.304688-28.59375h80l34.304688 28.59375c8.679687 7.222656 13.699218 17.9375 13.695312 29.230469-.003906 4.078125-.660156 8.128906-1.953125 12l-14.046875 42.175781 12.304688 43.070312c2.457031 8.585938 3.699218 17.472657 3.695312 26.402344v114.527344c0 17.671875-14.328125 32-32 32zm0 0" fill="#ffc24f"/><path d="m160 184 14.046875-42.144531c4.953125-14.859375.292969-31.238281-11.742187-41.261719l-12.242188-10.195312c-27.550781 132.648437-94.535156 207.777343-150.0625 248.800781v28.800781c0 17.671875 14.328125 32 32 32h112c17.671875 0 32-14.328125 32-32v-114.550781c.003906-8.929688-1.238281-17.816407-3.695312-26.402344zm0 0" fill="#ffb64f"/><path d="m128 72h-80v-24l16-16h48l16 16zm0 0" fill="#4398d1"/><path d="m64 0h48v32h-48zm0 0" fill="#4398d1"/><path d="m128 128c0-13.253906-17.910156-24-40-24s-40 10.746094-40 24 17.910156 24 40 24 40-10.746094 40-24zm0 0" fill="#ff7230"/><path d="m112 360h-48c-17.671875 0-32-14.328125-32-32v-96l90.761719 32.414062c12.734375 4.550782 21.238281 16.613282 21.238281 30.136719v33.449219c0 17.671875-14.328125 32-32 32zm0 0" fill="#ff7230"/><path d="m64 360h48c17.671875 0 32-14.328125 32-32v-33.449219c0-13.523437-8.503906-25.585937-21.238281-30.136719l-38.347657-13.695312c-15.140624 22.445312-32.71875 43.148438-52.414062 61.730469v15.550781c0 17.671875 14.328125 32 32 32zm0 0" fill="#fc641c"/><path d="m200 48h64c4.417969 0 8 3.582031 8 8v40h-80v-40c0-4.417969 3.582031-8 8-8zm0 0" fill="#4398d1"/><path d="m323.273438 155.710938-35.273438-27.710938v-32h-112v32l-12.601562 14.695312c-77.710938 90.664063-85.636719 221.949219-19.398438 321.304688h192l20-25.007812c33.441406-41.820313 48.796875-95.265626 42.648438-148.460938-6.144532-53.195312-33.285157-101.730469-75.382813-134.820312zm28.300781 209.761718c-2.832031 7.984375-11.480469 12.292969-19.558594 9.738282-8.082031-2.554688-12.6875-11.046876-10.414063-19.210938 10.777344-37.746094 3.125-78.367188-20.65625-109.601562l-4.121093-5.40625c-5.648438-7.742188-4.101563-18.574219 3.484375-24.429688 7.589844-5.855469 18.460937-4.597656 24.515625 2.828125l3.199219 4.097656c31.5625 40.207031 40.441406 93.738281 23.550781 141.984375zm0 0" fill="#ff7230"/><path d="m200 120h88v16h-88zm0 0" fill="#de5718"/><path d="m362.039062 196.136719c-6.050781 15.949219-13.171874 31.472656-21.3125 46.464843 21.101563 37.496094 25.054688 82.257813 10.847657 122.871094-2.832031 7.984375-11.480469 12.292969-19.558594 9.738282-8.082031-2.554688-12.6875-11.046876-10.414063-19.210938 7.199219-25.476562 6.078126-52.589844-3.203124-77.382812-57.238282 81.824218-137.167969 129.261718-192.109376 154.160156 5.195313 10.792968 11.113282 21.226562 17.710938 31.222656h192l20-25.007812c56.335938-70.40625 58.800781-169.738282 6.03125-242.855469zm0 0" fill="#fa6823"/><path d="m227.65625 232.382812c-2.527344-.222656-5.070312-.382812-7.65625-.382812-40.125-.015625-74.65625 28.351562-82.4375 67.71875-7.777344 39.363281 13.371094 78.730469 50.488281 93.980469 37.113281 15.246093 79.832031 2.117187 101.972657-31.347657-11.136719-66.191406-37.269532-106.113281-62.367188-129.96875zm0 0" fill="#ffa217"/><path d="m392 64h48v16h-48zm0 0" fill="#cf4e42"/></svg>