<svg height="475pt" viewBox="0 -37 475.312 475" width="475pt" xmlns="http://www.w3.org/2000/svg"><path d="m352.480469 67.605469-34.824219-3.449219c10.242188 10.246094 24.136719 16.003906 38.625 16h113.375c0-44.179688-35.816406-80-80-80h-8v48zm0 0" fill="#c74a44"/><path d="m421.65625 160.15625h-16v-80h64v32c0 26.511719-21.492188 48-48 48zm0 0" fill="#e3584b"/><path d="m381.65625 112.15625h24v48h-72c0-26.507812 21.488281-48 48-48zm0 0" fill="#c74a44"/><path d="m317.65625 24.15625s1.023438-1.535156 2.808594-3.695312c10.089844-12.941407 25.628906-20.4492192 42.039062-20.304688h19.152344v32l-32-16c-9.753906 3.496094-32 8-32 8zm0 0" fill="#e3584b"/><path d="m405.65625 80.15625h64v14h-64zm0 0" fill="#d45246"/><g fill="#c74a44"><path d="m45.007812 347.308594-14.703124-6.300782 24-56c.894531-2.097656 2.640624-3.714843 4.800781-4.441406l46.78125-15.609375 5.066406-.800781h46.703125c4.417969 0 8 3.582031 8 8 0 4.421875-3.582031 8-8 8h-45.410156c-.855469 0-1.710938.140625-2.527344.410156l-42.125 14.046875zm0 0"/><path d="m101.65625 216.15625h-64c-2.121094 0-4.15625-.839844-5.65625-2.34375l-32-32 11.3125-11.308594 29.65625 29.652344h60.6875c4.417969 0 8 3.582031 8 8 0 4.421875-3.582031 8-8 8zm0 0"/><path d="m37.65625 264.15625c-2.121094 0-4.15625-.839844-5.65625-2.34375l-32-32 11.3125-11.308594 28.503906 28.503906 43.304688-14.402343 2.535156-.449219h56c4.417969 0 8 3.582031 8 8 0 4.421875-3.582031 8-8 8h-53.410156c-.855469 0-1.710938.140625-2.527344.410156l-45.535156 15.199219c-.816406.265625-1.667969.394531-2.527344.390625zm0 0"/><path d="m430.304688 347.308594-22.585938-52.695313-42.125-14.046875c-.816406-.269531-1.671875-.410156-2.53125-.410156h-45.40625c-4.417969 0-8-3.578125-8-8 0-4.417969 3.582031-8 8-8h46.703125l5.066406.800781 46.757813 15.585938c2.160156.726562 3.90625 2.34375 4.800781 4.4375l24 56zm0 0"/><path d="m437.65625 216.15625h-64c-4.417969 0-8-3.578125-8-8 0-4.417969 3.582031-8 8-8h60.6875l29.65625-29.652344 11.3125 11.308594-32 32c-1.5 1.503906-3.535156 2.34375-5.65625 2.34375zm0 0"/><path d="m437.65625 264.15625c-.859375 0-1.710938-.136719-2.527344-.40625l-45.535156-15.199219c-.816406-.265625-1.671875-.398437-2.53125-.394531h-53.40625c-4.417969 0-8-3.578125-8-8 0-4.417969 3.582031-8 8-8h54.703125l5.054687.800781 42.082032 14.023438 28.503906-28.503907 11.3125 11.3125-32 32c-1.496094 1.511719-3.53125 2.363282-5.65625 2.367188zm0 0"/></g><path d="m205.65625 112.15625c0 13.257812-10.746094 24-24 24s-24-10.742188-24-24c0-13.253906 10.746094-24 24-24s24 10.746094 24 24zm0 0" fill="#8f4b08"/><path d="m317.65625 112.15625c0 13.257812-10.746094 24-24 24s-24-10.742188-24-24c0-13.253906 10.746094-24 24-24s24 10.746094 24 24zm0 0" fill="#8f4b08"/><path d="m122.832031 67.605469 34.824219-3.449219c-10.242188 10.246094-24.136719 16.003906-38.625 16h-113.375c0-44.179688 35.816406-80 80-80h8v48zm0 0" fill="#c74a44"/><path d="m5.65625 80.15625h64v80h-16c-26.511719 0-48-21.488281-48-48zm0 0" fill="#e3584b"/><path d="m93.65625 112.15625h-24v48h72c0-26.507812-21.492188-48-48-48zm0 0" fill="#c74a44"/><path d="m157.65625 24.15625s-1.023438-1.535156-2.808594-3.695312c-10.089844-12.941407-25.628906-20.4492192-42.039062-20.304688h-19.152344v32l32-16c9.75 3.503906 32 8 32 8zm0 0" fill="#e3584b"/><path d="m5.65625 80.15625h64v14h-64zm0 0" fill="#d45246"/><path d="m284.390625 304.15625h-90.496094c-17.429687.003906-33.492187-9.449219-41.957031-24.6875l-13.136719-23.648438c-8.664062-15.582031-20.6875-29.039062-35.199219-39.398437l-33.945312-24.265625 34.167969-22.925781c39.90625-26.777344 86.878906-41.074219 134.9375-41.074219 50.945312 0 100.59375 16.070312 141.878906 45.921875l25.015625 18.078125-35.929688 26.945312c-18.328124 13.75-32.34375 32.457032-40.390624 53.914063-7.027344 18.730469-24.9375 31.144531-44.945313 31.140625zm0 0" fill="#e3584b"/><path d="m380.640625 174.078125c-15.800781-11.402344-32.917969-20.855469-50.984375-28.152344-36 78.230469-92 118.230469-170.214844 143.625 9.035156 9.328125 21.464844 14.601563 34.453125 14.605469h90.496094c20.007813.003906 37.917969-12.410156 44.945313-31.140625 8.046874-21.457031 22.0625-40.164063 40.390624-53.914063l35.929688-26.945312zm0 0" fill="#d45246"/><path d="m195.3125 245.8125-11.3125-11.308594 18.34375-18.347656-18.34375-18.34375 11.3125-11.308594 24 24c3.121094 3.121094 3.121094 8.1875 0 11.308594zm0 0" fill="#c74a44"/><path d="m280 245.8125-24-24c-3.125-3.121094-3.125-8.1875 0-11.308594l24-24 11.3125 11.308594-18.34375 18.34375 18.34375 18.347656zm0 0" fill="#c74a44"/><path d="m85.65625 352.15625h40c13.253906 0 24 10.746094 24 24 0 13.257812-10.746094 24-24 24-22.089844 0-40-17.90625-40-40zm0 0" fill="#c74a44"/><path d="m117.65625 304.15625v48h-32v-16c0-17.671875 14.328125-32 32-32zm0 0" fill="#e3584b"/><path d="m117.65625 304.15625h64c0 17.675781-14.328125 32-32 32h-32zm0 0" fill="#c74a44"/><path d="m349.65625 400.15625c-13.253906 0-24-10.742188-24-24 0-13.253906 10.746094-24 24-24h40v8c0 22.09375-17.910156 40-40 40zm0 0" fill="#c74a44"/><path d="m389.65625 352.15625h-32v-48c17.671875 0 32 14.328125 32 32zm0 0" fill="#e3584b"/><path d="m357.65625 336.15625h-32c-17.671875 0-32-14.324219-32-32h64zm0 0" fill="#c74a44"/></svg>