<!-- Generated by IcoMoon.io -->
<svg version="1.1" xmlns="http://www.w3.org/2000/svg" width="100" height="100">
<title>jays</title>
<path d="M7.031 0.647v0.072c0.009-0.010 0.018-0.021 0.027-0.031-0.009-0.016-0.018-0.029-0.028-0.042l0.001 0.001z"></path>
<path d="M17.337 0.922c-1.611 0.086-3.106 0.692-4.314 1.752-0.677 0.595-1.233 1.307-1.642 2.107l-0.019 0.040c-0.391 0.775-0.605 1.5-0.717 2.43-0.039 0.32-0.039 1.192 0 1.516 0.105 0.866 0.311 1.588 0.658 2.305 0.358 0.738 0.756 1.309 1.314 1.881 0.72 0.739 1.52 1.272 2.484 1.656 1.191 0.475 2.55 0.609 3.848 0.383 1.956-0.342 3.706-1.528 4.772-3.233 1.305-2.088 1.428-4.725 0.323-6.934-0.313-0.623-0.753-1.239-1.256-1.759-1.29-1.328-3.092-2.152-5.086-2.152-0.128 0-0.256 0.003-0.383 0.010l0.018-0.001zM18.214 1.188c1.945 0.158 3.655 1.070 4.87 2.602 0.15 0.188 0.445 0.627 0.564 0.834 0.206 0.366 0.436 0.888 0.563 1.283 0.308 0.958 0.397 1.98 0.266 3-0.248 1.914-1.342 3.664-2.975 4.758-1.053 0.705-2.256 1.097-3.505 1.145-1.786 0.069-3.441-0.508-4.786-1.67-0.189-0.164-0.556-0.533-0.719-0.725-1.012-1.183-1.627-2.731-1.627-4.423 0-0.753 0.122-1.478 0.348-2.156l-0.014 0.048c0.463-1.425 1.408-2.683 2.653-3.527 1.017-0.691 2.142-1.080 3.383-1.173 0.17-0.012 0.797-0.009 0.98 0.005z"></path>
<path d="M17.675 1.698c-0.092 0.005-0.113 0.009-0.098 0.027 0.011 0.012 0.022 0.147 0.028 0.331l0.009 0.309-0.038-0.030c-0.020-0.017-0.197-0.159-0.392-0.316l-0.355-0.286 0.008 0.075c0.016 0.17 0.055 1.128 0.047 1.155s0.003 0.028 0.147 0.023 0.155-0.008 0.142-0.033c-0.017-0.031-0.042-0.611-0.027-0.611 0.005 0 0.177 0.131 0.381 0.291 0.352 0.275 0.37 0.288 0.375 0.248 0.003-0.023-0.009-0.269-0.028-0.544s-0.031-0.536-0.027-0.578c0.006-0.067 0.003-0.073-0.027-0.070-0.019 0.002-0.084 0.006-0.147 0.008z"></path>
<path d="M18.442 1.847c-0.019 0.055-0.039 0.111-0.044 0.125-0.009 0.023-0.003 0.025 0.045 0.017 0.073-0.011 0.291 0.025 0.302 0.052 0.006 0.019-0.163 0.873-0.18 0.905-0.012 0.018-0.024 0.034-0.038 0.049l0-0-0.030 0.033 0.169 0.034c0.092 0.017 0.175 0.033 0.181 0.033s0.009-0.022 0.003-0.047c-0.011-0.047 0.141-0.933 0.163-0.956 0.014-0.014 0.278 0.047 0.32 0.073l0.036 0.025 0.008-0.13c0.003-0.034 0.005-0.074 0.005-0.114 0-0.007-0-0.015-0-0.022v0.001c-0.003-0.005-0.869-0.175-0.891-0.175-0.009 0-0.031 0.044-0.050 0.097z"></path>
<path d="M15.631 2.047c-0.174 0.028-0.323 0.121-0.422 0.253l-0.001 0.002c-0.081 0.106-0.129 0.241-0.129 0.387 0 0.312 0.222 0.573 0.517 0.633l0.004 0.001c0.295 0.061 0.573-0.077 0.708-0.35 0.058-0.114 0.059-0.125 0.059-0.283 0-0.148-0.005-0.175-0.044-0.258-0.128-0.275-0.398-0.425-0.692-0.384zM15.898 2.327c0.325 0.15 0.302 0.628-0.036 0.742-0.038 0.013-0.082 0.021-0.128 0.021-0.182 0-0.335-0.121-0.384-0.287l-0.001-0.003c-0.055-0.184 0.042-0.394 0.22-0.473 0.084-0.039 0.245-0.039 0.328 0z"></path>
<path d="M20.031 2.288c-0.189 0.052-0.342 0.179-0.425 0.348l-0.002 0.004c-0.047 0.097-0.050 0.112-0.050 0.275s0.003 0.178 0.050 0.277c0.066 0.139 0.175 0.248 0.31 0.312l0.004 0.002c0.133 0.063 0.327 0.077 0.459 0.034 0.366-0.119 0.552-0.502 0.417-0.859-0.111-0.295-0.453-0.47-0.764-0.392zM20.369 2.559c0.134 0.067 0.224 0.203 0.224 0.36 0 0.105-0.041 0.201-0.107 0.273l0-0c-0.238 0.264-0.689 0.086-0.689-0.27 0-0.291 0.319-0.492 0.572-0.362z"></path>
<path d="M14.125 2.889c-0.035 0.008-0.067 0.019-0.096 0.034l0.002-0.001c-0.058 0.030-0.419 0.28-0.43 0.295-0.005 0.008 0.005 0.019 0.020 0.023 0.047 0.016 0.097 0.077 0.4 0.5 0.178 0.248 0.294 0.425 0.3 0.456l0.009 0.050 0.131-0.103c0.127-0.1 0.131-0.105 0.097-0.122s-0.32-0.408-0.308-0.419c0.003-0.003 0.15 0.045 0.327 0.109s0.323 0.116 0.328 0.116 0.064-0.045 0.13-0.102c0.12-0.098 0.122-0.1 0.078-0.109-0.053-0.011-0.536-0.181-0.536-0.189 0-0.003 0.011-0.045 0.023-0.095 0.020-0.073 0.020-0.105 0.006-0.166-0.022-0.091-0.128-0.216-0.216-0.25-0.077-0.031-0.195-0.044-0.267-0.028zM14.308 3.166c0.045 0.030 0.067 0.111 0.045 0.167-0.009 0.023-0.055 0.073-0.102 0.111l-0.084 0.070-0.027-0.034c-0.053-0.070-0.156-0.223-0.156-0.233 0-0.014 0.127-0.094 0.17-0.108 0.014-0.004 0.031-0.006 0.047-0.006 0.040 0 0.076 0.012 0.106 0.033l-0.001-0z"></path>
<path d="M21.461 3.623c-0.439 0.427-1.083 0.738-2.102 1.016-0.586 0.159-0.953 0.23-1.705 0.322-1.056 0.13-1.403 0.181-1.713 0.258-0.506 0.123-0.767 0.263-1.084 0.578-0.194 0.192-0.28 0.322-0.28 0.42 0.002 0.281 0.206 0.544 0.458 0.588l0.061 0.009-0.014-0.052c-0.025-0.102-0.014-0.266 0.025-0.339 0.158-0.303 0.719-0.475 1.389-0.425 0.36 0.028 0.693 0.094 1.011 0.195l-0.032-0.009 0.094 0.028h-0.313c-0.172-0.002-0.361 0.005-0.422 0.013l-0.108 0.013 0.248 0.086c0.559 0.192 0.855 0.284 1.056 0.331 0.206 0.048 0.463 0.090 0.724 0.118l0.029 0.003 0.12 0.011v-0.073c0-0.039 0.005-0.072 0.012-0.072s0.18 0.028 0.386 0.061 0.375 0.061 0.377 0.059 0.038-0.095 0.083-0.206 0.089-0.209 0.097-0.217 0.131 0.1 0.313 0.281l0.298 0.295-0.009-0.070c-0.023-0.175-0.12-1.145-0.114-1.15 0.003-0.003 0.123 0.041 0.267 0.097s0.267 0.097 0.273 0.091 0.134-0.214 0.283-0.458l0.27-0.442 0.069 0.106c0.038 0.059 0.142 0.233 0.234 0.384s0.172 0.273 0.178 0.269 0.019-0.050 0.028-0.103c0.095-0.487 0.239-0.888 0.375-1.034l0.041-0.044-0.117 0.008c-0.145 0.009-0.255 0.050-0.428 0.159-0.073 0.045-0.134 0.077-0.134 0.067s0.038-0.095 0.084-0.192c0.095-0.197 0.277-0.475 0.453-0.694 0.066-0.081 0.116-0.15 0.113-0.155-0.012-0.011-0.244 0.042-0.384 0.091-0.112 0.039-0.204 0.078-0.293 0.123l0.014-0.006c-0.078 0.039-0.144 0.070-0.148 0.070s0.006-0.041 0.022-0.091c0.031-0.103 0.069-0.35 0.059-0.413-0.005-0.041-0.011-0.036-0.145 0.095z"></path>
<path d="M17.344 3.531c-0.634 0.061-1.313 0.263-1.827 0.542-0.188 0.102-0.472 0.295-0.619 0.42-0.313 0.267-0.641 0.611-0.841 0.883-0.159 0.217-0.375 0.6-0.466 0.831-0.019 0.045-0.045 0.112-0.061 0.152l-0.028 0.072 0.134-0.020c0.075-0.011 0.137-0.027 0.141-0.033s0.061-0.13 0.13-0.27c0.134-0.273 0.305-0.545 0.367-0.586 0.019-0.013 0.033-0.032 0.037-0.056l0-0.001c0-0.017 0.019-0.055 0.042-0.086l0.042-0.055 0.053 0.066 0.034-0.042c0.016-0.017 0.025-0.039 0.025-0.064 0-0.006-0.001-0.012-0.002-0.018l0 0.001c-0.006-0.030 0.005-0.059 0.041-0.108 0.027-0.036 0.055-0.066 0.063-0.066s0.023 0.020 0.037 0.047c0.028 0.055 0.039 0.056 0.084 0.019l0.034-0.027-0.041-0.059c-0.022-0.031-0.036-0.064-0.031-0.072 0.026-0.028 0.053-0.054 0.083-0.077l0.001-0.001 0.077-0.064 0.041 0.069c0.052 0.089 0.061 0.094 0.119 0.064l0.047-0.025-0.064-0.095-0.066-0.095 0.061-0.052c0.034-0.028 0.069-0.052 0.080-0.053s0.041 0.033 0.069 0.073c0.088 0.131 0.089 0.133 0.142 0.105l0.045-0.023-0.064-0.119c-0.034-0.066-0.061-0.127-0.058-0.136 0.023-0.026 0.048-0.049 0.077-0.068l0.001-0.001 0.072-0.052 0.063 0.083c0.033 0.043 0.059 0.095 0.074 0.15l0.001 0.003c0.014 0.070 0.014 0.070 0.075 0.067 0.024-0.001 0.046-0.004 0.068-0.010l-0.002 0c0-0.004 0-0.008 0-0.013 0-0.024-0.002-0.047-0.005-0.069l0 0.003c-0.008-0.048-0.034-0.109-0.078-0.178l-0.066-0.103 0.048-0.037c0.066-0.048 0.228-0.144 0.245-0.144 0.008 0-0.002 0.036-0.022 0.080l-0.037 0.078 0.053 0.088c0.027 0.045 0.049 0.097 0.062 0.153l0.001 0.004c0.009 0.061 0.014 0.069 0.044 0.061 0.021-0.005 0.045-0.009 0.070-0.009h0c0.034 0 0.036-0.003 0.027-0.075-0.013-0.063-0.032-0.118-0.058-0.17l0.002 0.004-0.044-0.094 0.039-0.1c0.039-0.097 0.044-0.103 0.136-0.144 0.053-0.023 0.111-0.048 0.131-0.055 0.033-0.009 0.034-0.006 0.025 0.034-0.017 0.051-0.037 0.094-0.060 0.135l0.002-0.004-0.047 0.089 0.033 0.042c0.042 0.053 0.097 0.198 0.097 0.258 0 0.045 0.003 0.047 0.070 0.047h0.070v-0.077c0-0.003 0-0.006 0-0.009 0-0.084-0.028-0.162-0.074-0.224l0.001 0.001-0.039-0.052 0.058-0.136c0.031-0.075 0.061-0.145 0.069-0.158 0.014-0.028 0.392-0.128 0.658-0.177 0.17-0.031 0.248-0.036 0.625-0.036 0.447 0 0.553 0.009 0.922 0.087 0.395 0.083 0.762 0.213 1.002 0.352l0.094 0.055 0.15-0.053 0.152-0.053-0.069-0.044c-0.127-0.080-0.5-0.255-0.684-0.32-0.272-0.102-0.59-0.182-0.919-0.224l-0.022-0.002c-0.217-0.030-0.75-0.042-0.953-0.023z"></path>
<path d="M12.983 3.994c-0.113 0.034-0.209 0.095-0.284 0.176l-0 0c-0.11 0.116-0.178 0.273-0.178 0.446 0 0.3 0.204 0.553 0.481 0.626l0.005 0.001c0.334 0.089 0.681-0.108 0.784-0.445 0.044-0.142 0.022-0.348-0.050-0.487-0.134-0.261-0.477-0.405-0.758-0.317zM13.363 4.27c0.089 0.052 0.128 0.097 0.169 0.188 0.022 0.048 0.035 0.103 0.035 0.162 0 0.219-0.177 0.396-0.396 0.396-0.002 0-0.004 0-0.006-0h0c-0.155-0.002-0.278-0.078-0.356-0.225-0.047-0.089-0.047-0.258 0-0.345 0.047-0.086 0.119-0.153 0.205-0.194l0.003-0.001c0.097-0.045 0.252-0.036 0.347 0.020z"></path>
<path d="M16.672 4.058c-0.033 0.058-0.065 0.107-0.101 0.153l0.002-0.003c-0.042 0.055-0.044 0.061-0.022 0.086 0.045 0.050 0.073 0.141 0.073 0.237v0.094h0.070c0.067 0 0.069-0.002 0.080-0.055 0.003-0.017 0.004-0.037 0.004-0.056 0-0.072-0.020-0.139-0.055-0.197l0.001 0.002c-0.039-0.056-0.039-0.058-0.009-0.091 0.033-0.039 0.064-0.083 0.092-0.129l0.003-0.005c0.063-0.1 0.063-0.102 0.028-0.112-0.094-0.027-0.116-0.017-0.167 0.077z"></path>
<path d="M17.145 4.081c-0.035 0.047-0.072 0.089-0.112 0.128l-0 0-0.077 0.075 0.036 0.055c0.042 0.061 0.078 0.208 0.064 0.27-0.006 0.039-0.003 0.044 0.041 0.053 0.111 0.022 0.113 0.022 0.1-0.1-0.011-0.117-0.030-0.177-0.075-0.228-0.028-0.033-0.028-0.033 0.008-0.058 0.061-0.039 0.189-0.198 0.173-0.214-0.020-0.011-0.043-0.019-0.067-0.023l-0.001-0c-0.048-0.008-0.058-0.005-0.089 0.042z"></path>
<path d="M17.491 4.241l-0.094 0.127 0.036 0.070c0.022 0.043 0.041 0.094 0.054 0.147l0.001 0.005 0.020 0.083h0.152l-0.011-0.052c-0.016-0.057-0.036-0.106-0.060-0.153l0.002 0.005-0.048-0.097 0.033-0.031c0.041-0.037 0.128-0.164 0.128-0.184 0-0.008-0.027-0.022-0.059-0.030l-0.061-0.016z"></path>
<path d="M17.903 4.347l-0.091 0.112 0.042 0.072c0.056 0.097 0.058 0.098 0.122 0.088 0.045-0.009 0.055-0.017 0.047-0.037-0.047-0.109-0.047-0.102 0.020-0.203 0.036-0.052 0.066-0.102 0.066-0.109 0-0.013-0.075-0.036-0.108-0.034-0.035 0.034-0.067 0.071-0.097 0.11l-0.002 0.003z"></path>
<path d="M11.897 5.609l-0.175 0.422 0.108 0.070c0.032 0.022 0.070 0.046 0.109 0.067l0.007 0.003c0.005 0 0.008-0.025 0.008-0.055 0-0.056 0.089-0.289 0.109-0.289 0.039 0 0.844 0.355 0.878 0.388 0.023 0.022 0.045 0.037 0.048 0.033s0.034-0.077 0.070-0.162l0.064-0.156-0.073-0.008c-0.055-0.006-0.855-0.309-0.891-0.338-0.012-0.008 0.109-0.264 0.141-0.298 0.025-0.027 0.028-0.037 0.011-0.042-0.036-0.013-0.213-0.056-0.227-0.056-0.008 0-0.092 0.191-0.188 0.422z"></path>
<path d="M21.195 5.702c-0.136 0.217-0.252 0.397-0.258 0.4s-0.092-0.030-0.194-0.073-0.188-0.073-0.192-0.069 0.006 0.155 0.025 0.333c0.039 0.37 0.063 0.736 0.052 0.82-0.005 0.039-0.016 0.061-0.034 0.067-0.063 0.020-0.147-0.044-0.406-0.298s-0.266-0.259-0.28-0.22c-0.036 0.095-0.114 0.269-0.123 0.28-0.006 0.005-0.163-0.014-0.347-0.042s-0.337-0.050-0.341-0.048 0.006 0.153 0.020 0.331 0.025 0.35 0.027 0.38l0.005 0.055-0.122 0.039c-0.066 0.022-0.12 0.044-0.12 0.048s0.327 0.292 0.727 0.639 0.727 0.636 0.727 0.642-0.050 0.069-0.111 0.139-0.109 0.131-0.106 0.134 0.253-0.012 0.553-0.033 0.57-0.036 0.6-0.034c0.047 0.005 0.059 0.016 0.103 0.095l0.050 0.089 0.050-0.092c0.019-0.039 0.039-0.072 0.062-0.103l-0.001 0.002c0.006-0.003 0.261 0.014 0.566 0.039s0.57 0.045 0.591 0.045c0.033 0 0.023-0.016-0.073-0.134-0.061-0.075-0.111-0.141-0.111-0.147s0.328-0.295 0.728-0.642l0.727-0.631-0.117-0.053c-0.139-0.063-0.128-0.008-0.095-0.477 0.012-0.18 0.022-0.328 0.020-0.331s-0.158 0.023-0.345 0.055l-0.342 0.058-0.020-0.041c-0.011-0.022-0.039-0.1-0.064-0.175l-0.044-0.134-0.214 0.216c-0.202 0.202-0.38 0.344-0.43 0.344-0.021-0.005-0.039-0.016-0.053-0.031l-0-0c-0.042-0.042-0.041-0.1 0.014-0.695 0.025-0.267 0.044-0.486 0.041-0.489s-0.086 0.031-0.186 0.077-0.189 0.077-0.2 0.072-0.12-0.172-0.242-0.373-0.231-0.377-0.244-0.394c-0.019-0.027-0.044 0.006-0.269 0.364z"></path>
<path d="M14.267 6.263c-0.119 0.059-0.238 0.172-0.323 0.308-0.070 0.109-0.075 0.114-0.145 0.123-0.148 0.022-0.689 0.122-0.892 0.167-0.834 0.184-1.37 0.372-1.534 0.534l-0.067 0.066 3.261 0.008 0.056-0.048c0.109-0.097 0.175-0.116 0.402-0.116 0.197 0 0.206 0.002 0.305 0.050 0.056 0.027 0.166 0.103 0.242 0.167 0.25 0.208 0.366 0.259 0.589 0.259 0.212 0 0.328-0.052 0.558-0.255 0.056-0.051 0.118-0.098 0.184-0.139l0.005-0.003c0.158-0.086 0.181-0.088 1.144-0.088h0.887v-0.061c0-0.033-0.005-0.092-0.009-0.131l-0.011-0.072-0.908-0.005c-0.887-0.005-0.909-0.005-0.989-0.039-0.092-0.036-0.2-0.111-0.341-0.23-0.202-0.173-0.288-0.217-0.455-0.236-0.116-0.013-0.291 0.022-0.397 0.080-0.072 0.043-0.135 0.088-0.193 0.136l0.003-0.002c-0.305 0.247-0.375 0.283-0.552 0.283-0.173 0-0.316-0.066-0.464-0.214-0.111-0.111-0.214-0.333-0.239-0.514-0.005-0.041-0.014-0.073-0.020-0.073s-0.048 0.020-0.095 0.044zM15.953 6.906v0.172h-0.086c-0.084 0-0.086-0.002-0.086-0.045 0-0.075 0.045-0.178 0.105-0.241 0.020-0.020 0.040-0.039 0.061-0.057l0.001-0.001c0.003 0 0.005 0.077 0.005 0.172z"></path>
<path d="M11.328 7.573c0 0.031 0.111 0.114 0.239 0.178 0.445 0.225 1.347 0.5 2.214 0.678 0.15 0.031 0.347 0.081 0.438 0.113 0.811 0.275 1.566 1.003 2.364 2.28 0.441 0.705 0.908 1.686 1.192 2.502 0.025 0.072 0.048 0.13 0.053 0.13s0.036-0.052 0.070-0.113c0.497-0.923 1.111-1.858 1.667-2.533 0.372-0.445 0.756-0.846 1.165-1.219l0.010-0.009c0.172-0.156 0.195-0.181 0.164-0.186-0.020-0.003-0.291 0.017-0.598 0.044s-0.564 0.045-0.566 0.042 0.084-0.108 0.192-0.234 0.194-0.234 0.191-0.236-0.122-0.108-0.262-0.234-0.261-0.228-0.267-0.228c-0.016 0-0.294 0.461-0.431 0.717-0.109 0.203-0.272 0.545-0.272 0.572 0 0.005 0.13 0.008 0.289 0.008h0.289l-0.205 0.238c-0.425 0.494-0.647 0.786-0.909 1.197-0.070 0.111-0.133 0.205-0.141 0.208s-0.034-0.047-0.063-0.113c-0.145-0.331-0.425-0.778-0.705-1.123-0.127-0.158-0.527-0.555-0.72-0.717-0.436-0.363-0.758-0.559-1.352-0.822-0.15-0.067-0.336-0.152-0.414-0.189-0.375-0.18-0.556-0.366-0.608-0.622l-0.020-0.095-0.153-0.027c-0.383-0.067-1.169-0.148-1.795-0.184-0.481-0.027-1.056-0.037-1.056-0.020z"></path>
<path d="M13.266 8.623c0 0.047 0.089 0.441 0.142 0.63 0.137 0.488 0.358 0.944 0.642 1.328 0.213 0.287 0.58 0.686 0.825 0.894 0.42 0.356 0.995 0.656 1.578 0.822 0.181 0.052 0.578 0.142 0.578 0.131 0-0.003-0.027-0.064-0.061-0.136l-0.059-0.131-0.092-0.009c-0.284-0.030-0.908-0.28-1.319-0.53-0.203-0.122-0.391-0.261-0.391-0.289 0.010-0.043 0.023-0.081 0.039-0.116l-0.002 0.004c0.034-0.084 0.034-0.094 0.012-0.144-0.016-0.034-0.023-0.105-0.025-0.197l-0.002-0.142-0.048-0.025-0.050-0.023-0.009 0.058c-0.016 0.097-0.011 0.156 0.022 0.247l0.030 0.088-0.042 0.084c-0.022 0.047-0.045 0.084-0.050 0.084s-0.050-0.042-0.1-0.092l-0.092-0.092 0.034-0.048c0.019-0.027 0.031-0.055 0.027-0.061-0.009-0.030-0.017-0.065-0.022-0.102l-0-0.003c-0.005-0.023-0.008-0.050-0.008-0.078 0-0.051 0.010-0.1 0.027-0.145l-0.001 0.003c0.008-0.025-0.002-0.037-0.052-0.066l-0.063-0.036-0.016 0.059c-0.022 0.080-0.020 0.188 0.005 0.258 0.017 0.047 0.017 0.066-0.002 0.108l-0.022 0.052-0.084-0.084-0.086-0.084v-0.145c0-0.103 0.008-0.159 0.027-0.2l0.027-0.056-0.045-0.037c-0.016-0.013-0.034-0.026-0.053-0.038l-0.002-0.001c-0.005 0-0.023 0.037-0.042 0.084-0.027 0.067-0.033 0.103-0.025 0.169l0.009 0.083-0.081-0.1c-0.044-0.055-0.080-0.106-0.080-0.116 0.011-0.050 0.022-0.092 0.037-0.132l-0.002 0.007 0.034-0.108-0.037-0.028c-0.045-0.034-0.047-0.033-0.080 0.050-0.012 0.034-0.030 0.063-0.036 0.064s-0.033-0.027-0.059-0.061l-0.047-0.066 0.063-0.141-0.047-0.045c-0.028-0.025-0.050-0.036-0.055-0.027-0.008 0.017-0.017 0.032-0.027 0.046l0-0.001c-0.020 0.028-0.022 0.027-0.045-0.019-0.012-0.023-0.019-0.049-0.019-0.078 0-0.008 0.001-0.016 0.002-0.023l-0 0.001c0.001-0.005 0.001-0.011 0.001-0.017 0-0.050-0.031-0.092-0.074-0.109l-0.001-0c-0.016-0.006-0.059-0.094-0.105-0.211-0.092-0.236-0.141-0.392-0.206-0.669-0.027-0.113-0.053-0.216-0.056-0.23-0.005-0.017-0.037-0.031-0.097-0.044-0.048-0.009-0.102-0.022-0.116-0.025s-0.028-0.002-0.028 0.008z"></path>
<path d="M21.697 9.456c-0.016 0.045-0.091 0.213-0.169 0.37-0.125 0.258-0.142 0.286-0.163 0.264-0.014-0.012-0.028-0.053-0.033-0.089-0.008-0.061-0.011-0.064-0.064-0.064h-0.055l0.011 0.072c0.010 0.055 0.028 0.104 0.051 0.15l-0.001-0.003 0.041 0.073-0.059 0.092c-0.444 0.705-1.205 1.311-2.072 1.653l-0.152 0.059-0.092 0.144c-0.052 0.078-0.091 0.144-0.089 0.147 0.008 0.009 0.408-0.125 0.572-0.192 0.577-0.234 1.044-0.559 1.523-1.059 0.359-0.373 0.656-0.814 0.853-1.264 0.059-0.137 0.153-0.394 0.153-0.422 0-0.006-0.052-0.012-0.114-0.012h-0.113z"></path>
<path d="M13.078 9.506c0 0.063-0.044 0.127-0.108 0.158-0.031 0.016-0.316 0.15-0.634 0.3-0.598 0.28-0.65 0.297-0.723 0.245-0.019-0.012-0.034-0.020-0.034-0.016 0 0.025 0.241 0.541 0.295 0.633 0.080 0.136 0.202 0.261 0.297 0.305 0.058 0.027 0.102 0.033 0.22 0.033 0.136 0 0.156-0.005 0.233-0.047 0.093-0.051 0.163-0.135 0.195-0.236l0.001-0.003 0.025-0.073h0.128c0.113 0 0.139-0.006 0.202-0.042 0.14-0.082 0.235-0.227 0.245-0.395l0-0.001c0.012-0.158-0.016-0.239-0.23-0.678-0.080-0.161-0.111-0.214-0.111-0.181zM13.172 9.986c0.103 0.208 0.122 0.294 0.095 0.409-0.023 0.105-0.077 0.17-0.177 0.22s-0.188 0.052-0.28 0.005l-0.070-0.034-0.002 0.070c-0.002 0.128-0.102 0.267-0.231 0.32-0.033 0.016-0.102 0.027-0.15 0.027-0.194 0-0.316-0.123-0.469-0.478-0.020-0.040-0.040-0.090-0.058-0.142l-0.003-0.010c0-0.006 0.027-0.022 0.059-0.034s0.308-0.144 0.613-0.291 0.559-0.261 0.567-0.256 0.055 0.092 0.105 0.194z"></path>
<path d="M12.769 10.005l-0.223 0.114 0.070 0.139c0.114 0.23 0.213 0.32 0.342 0.32 0.113 0 0.23-0.133 0.23-0.261 0-0.105-0.136-0.428-0.18-0.425-0.008 0-0.116 0.052-0.239 0.113zM13.037 10.311c-0 0.061-0.050 0.111-0.112 0.111-0.001 0-0.003-0-0.004-0h0c-0.048 0-0.106-0.058-0.158-0.159l-0.031-0.059 0.114-0.053 0.114-0.052 0.037 0.080c0.020 0.039 0.034 0.084 0.039 0.131l0 0.002z"></path>
<path d="M12.208 10.275c-0.148 0.072-0.27 0.139-0.27 0.15s0.033 0.084 0.072 0.166c0.083 0.17 0.2 0.303 0.289 0.328 0.021 0.005 0.044 0.008 0.069 0.008 0.114 0 0.211-0.067 0.257-0.163l0.001-0.002c0.058-0.134 0.031-0.27-0.105-0.531l-0.044-0.086zM12.5 10.517c0.023 0.073 0.028 0.113 0.019 0.141-0.022 0.059-0.077 0.1-0.142 0.1-0.001 0-0.001 0-0.002 0h0c-0.077 0-0.141-0.058-0.205-0.184l-0.047-0.091 0.114-0.050c0.206-0.092 0.191-0.089 0.211-0.052 0.019 0.038 0.036 0.083 0.050 0.13l0.002 0.006z"></path>
<path d="M22.269 9.977c-0.284 0.103-0.441 0.319-0.441 0.606 0 0.233 0.109 0.405 0.305 0.478 0.198 0.075 0.334 0.039 0.572-0.153 0.225-0.181 0.309-0.203 0.366-0.094 0.064 0.123-0.028 0.262-0.191 0.289-0.010 0.002-0.021 0.003-0.032 0.003-0.023 0-0.045-0.004-0.066-0.011l0.001 0c-0.041-0.022-0.042-0.009-0.011 0.092l0.022 0.070 0.077-0.002c0.080-0.003 0.208-0.050 0.259-0.097 0.061-0.055 0.105-0.155 0.114-0.255 0.008-0.084 0.003-0.111-0.028-0.17-0.063-0.122-0.212-0.173-0.356-0.122-0.030 0.009-0.127 0.077-0.216 0.15-0.192 0.155-0.245 0.181-0.358 0.172-0.183-0.016-0.322-0.173-0.32-0.364 0.002-0.164 0.128-0.35 0.288-0.427 0.033-0.016 0.071-0.028 0.11-0.034l0.002-0c0.022 0 0.044-0.008 0.048-0.016 0.009-0.016-0.019-0.123-0.038-0.144-0.005-0.005-0.053 0.006-0.108 0.027z"></path>
<path d="M20.916 9.966c-0.009 0.014 0.052 0.166 0.095 0.239l0.031 0.053-0.137 0.275 0.058-0.005c0.055-0.005 0.058-0.009 0.123-0.148l0.067-0.142-0.034-0.053c-0.036-0.059-0.068-0.126-0.092-0.198l-0.002-0.007c-0.009-0.027-0.094-0.039-0.109-0.014z"></path>
<path d="M20.605 10.075c-0.069 0.070-0.067 0.083 0.028 0.189l0.053 0.058-0.055 0.123c-0.030 0.067-0.053 0.127-0.053 0.131s0.028 0.008 0.063 0.005c0.063-0.006 0.064-0.008 0.134-0.147 0.067-0.133 0.069-0.142 0.042-0.162-0.011-0.009-0.024-0.017-0.038-0.022l-0.001-0c-0.019 0-0.094-0.139-0.105-0.189l-0.009-0.047z"></path>
<path d="M22.333 10.208c-0.099 0.038-0.178 0.108-0.227 0.198l-0.001 0.002c-0.109 0.217-0.006 0.423 0.212 0.425 0.1 0.002 0.144-0.022 0.284-0.145 0.202-0.18 0.319-0.223 0.467-0.181 0.169 0.050 0.272 0.211 0.256 0.406-0.019 0.22-0.189 0.402-0.405 0.427-0.042 0.005-0.080 0.014-0.084 0.020s0.003 0.044 0.014 0.088c0.019 0.072 0.022 0.077 0.066 0.072 0.078-0.009 0.266-0.106 0.342-0.177 0.152-0.141 0.216-0.283 0.214-0.481-0.002-0.217-0.094-0.381-0.266-0.466-0.078-0.039-0.106-0.044-0.238-0.044-0.184 0-0.242 0.027-0.427 0.188-0.188 0.164-0.225 0.178-0.3 0.113-0.128-0.109 0.047-0.333 0.236-0.303 0.030 0.005 0.053 0.005 0.050-0.002s-0.017-0.044-0.034-0.086c-0.033-0.081-0.059-0.091-0.161-0.053z"></path>
<path d="M20.314 10.348c-0.023 0.027-0.028 0.041-0.016 0.053s0.006 0.050-0.023 0.141c-0.022 0.067-0.041 0.128-0.041 0.134s0.027 0.011 0.059 0.008l0.058-0.005 0.048-0.141c0.047-0.131 0.048-0.142 0.023-0.169-0.047-0.055-0.073-0.059-0.109-0.022z"></path>
<path d="M13.734 10.836c0 0.073 0.011 0.063-0.609 0.623-0.236 0.214-0.455 0.4-0.483 0.412-0.024 0.010-0.052 0.015-0.081 0.015-0.012 0-0.024-0.001-0.036-0.003l0.001 0-0.061-0.011 0.106 0.122c0.059 0.067 0.217 0.247 0.35 0.398l0.241 0.275 0.137-0.094-0.053-0.058c-0.030-0.031-0.152-0.164-0.27-0.297-0.213-0.236-0.216-0.241-0.184-0.266 0.019-0.014 0.277-0.242 0.573-0.508l0.539-0.483-0.044-0.056c-0.028-0.034-0.056-0.065-0.086-0.093l-0-0-0.041-0.037v0.059z"></path>
<path d="M15.364 10.869c-0.005 0.012-0.005 0.070-0.002 0.128 0.008 0.105 0.044 0.198 0.089 0.231 0.022 0.017 0.020 0.025-0.002 0.078-0.041 0.095-0.047 0.13-0.036 0.188 0.008 0.045 0.016 0.053 0.053 0.053 0.042 0 0.045-0.006 0.056-0.075 0.008-0.049 0.023-0.093 0.045-0.134l-0.001 0.002c0.030-0.055 0.030-0.061 0.006-0.088-0.048-0.053-0.073-0.141-0.073-0.259v-0.116l-0.048-0.017c-0.066-0.022-0.077-0.022-0.088 0.008z"></path>
<path d="M21.509 10.983l-0.089 0.091 0.353 1.106 0.453 0.463 0.1-0.102 0.1-0.1-0.064 0.008c-0.063 0.008-0.067 0.006-0.202-0.12-0.264-0.247-0.236-0.197-0.409-0.725-0.086-0.258-0.159-0.495-0.166-0.527-0.002-0.013-0.003-0.028-0.003-0.043 0-0.026 0.003-0.052 0.010-0.076l-0 0.002c0.007-0.019 0.011-0.041 0.012-0.063l0-0.001c-0.003-0.002-0.045 0.037-0.095 0.088z"></path>
<path d="M15.738 11.064c0.008 0.123 0.037 0.2 0.1 0.255 0.036 0.031 0.036 0.036 0.014 0.095-0.023 0.066-0.030 0.148-0.014 0.206 0.008 0.030 0.020 0.036 0.070 0.036h0.061v-0.086c0-0.051 0.009-0.1 0.024-0.145l-0.001 0.003c0.022-0.055 0.022-0.058-0.019-0.106-0.061-0.069-0.098-0.16-0.098-0.26 0-0.001 0-0.003 0-0.004v0c0-0.066-0.006-0.089-0.022-0.089-0.027-0.002-0.051-0.006-0.075-0.012l0.003 0.001-0.052-0.009z"></path>
<path d="M16.156 11.078c0 0.084 0.052 0.191 0.125 0.256l0.061 0.055-0.017 0.1c-0.009 0.056-0.012 0.12-0.006 0.142 0.008 0.034 0.019 0.041 0.070 0.041h0.059l0.009-0.153c0.008-0.15 0.008-0.152-0.036-0.198-0.053-0.058-0.092-0.131-0.109-0.211l-0.001-0.003c-0.016-0.061-0.025-0.073-0.066-0.081-0.084-0.017-0.091-0.014-0.091 0.053z"></path>
<path d="M13.412 11.514l-0.534 0.481 0.242 0.264c0.133 0.145 0.247 0.262 0.253 0.262 0.020-0.006 0.173-0.108 0.173-0.117 0-0.006-0.019-0.016-0.042-0.020-0.069-0.019-0.164-0.094-0.291-0.233-0.066-0.073-0.12-0.136-0.12-0.141 0-0.014 0.789-0.711 0.855-0.755 0.033-0.022 0.073-0.036 0.117-0.037h0.061l-0.081-0.094c-0.045-0.052-0.086-0.094-0.091-0.094s-0.25 0.217-0.542 0.483z"></path>
<path d="M21.23 11.262c-0.097 0.098-0.103 0.106-0.063 0.102 0.004-0.001 0.009-0.001 0.014-0.001 0.021 0 0.040 0.006 0.057 0.015l-0.001-0c0.020 0.016 0.2 0.458 0.2 0.491 0 0.017-0.056-0.003-0.261-0.089-0.234-0.1-0.231-0.098-0.242-0.206-0.005-0.042-0.008-0.041-0.119 0.070l-0.113 0.116 0.48 0.181c0.266 0.1 0.483 0.18 0.484 0.178 0.008-0.006-0.316-0.963-0.323-0.963-0.005 0-0.056 0.048-0.114 0.106z"></path>
<path d="M14.52 11.73c0.003 0.083-0.027 0.136-0.375 0.664-0.089 0.134-0.183 0.291-0.209 0.347-0.114 0.244-0.077 0.448 0.119 0.644 0.231 0.234 0.572 0.291 0.806 0.136 0.083-0.055 0.145-0.141 0.427-0.592 0.255-0.409 0.3-0.47 0.367-0.484 0.022-0.005 0.047-0.011 0.056-0.012s-0.034-0.033-0.094-0.069c-0.086-0.050-0.113-0.061-0.127-0.045-0.011 0.009-0.136 0.205-0.28 0.433-0.397 0.628-0.434 0.675-0.57 0.692-0.091 0.011-0.245-0.017-0.331-0.061-0.109-0.055-0.239-0.188-0.261-0.266-0.025-0.092-0.020-0.198 0.012-0.275 0.016-0.037 0.17-0.287 0.344-0.558s0.309-0.495 0.303-0.503-0.053-0.036-0.102-0.067l-0.089-0.056z"></path>
<path d="M20.556 11.905l-0.086 0.088 0.105 0.003c0.092 0.002 0.159 0.022 0.581 0.183l0.477 0.18 0.159 0.169c0.163 0.17 0.206 0.247 0.186 0.322-0.005 0.022 0.027-0.002 0.087-0.063l0.095-0.095-0.225-0.234-0.225-0.236-0.211-0.078-0.534-0.202-0.322-0.123z"></path>
<path d="M14.706 11.961c-0.041 0.066-0.164 0.261-0.275 0.434s-0.222 0.35-0.248 0.391c-0.055 0.086-0.072 0.209-0.044 0.297 0.036 0.109 0.186 0.227 0.353 0.277 0.134 0.039 0.259-0.036 0.398-0.242 0.039-0.059 0.177-0.277 0.303-0.483 0.191-0.306 0.228-0.375 0.209-0.391-0.011-0.011-0.056-0.045-0.1-0.077l-0.081-0.058 0.012 0.053c0.002 0.011 0.004 0.023 0.004 0.036 0 0.022-0.004 0.044-0.012 0.064l0-0.001c-0.022 0.052-0.528 0.856-0.567 0.898-0.069 0.080-0.209 0.061-0.311-0.042-0.113-0.113-0.111-0.117 0.2-0.617 0.147-0.236 0.284-0.448 0.306-0.47 0.023-0.024 0.053-0.042 0.086-0.051l0.001-0 0.050-0.009-0.094-0.063c-0.052-0.034-0.1-0.063-0.106-0.063s-0.045 0.053-0.086 0.117z"></path>
<path d="M19.891 12.181c0 0.025 0.022 0.436 0.047 0.912s0.042 0.887 0.038 0.914c-0.009 0.035-0.020 0.064-0.033 0.093l0.002-0.004c-0.012 0.025-0.019 0.044-0.012 0.044 0.031 0 0.209-0.116 0.209-0.136 0-0.014-0.022-0.366-0.047-0.783s-0.045-0.764-0.044-0.77 0.28 0.205 0.614 0.472 0.617 0.488 0.627 0.492 0.066-0.019 0.123-0.050l0.106-0.058-0.073-0.019c-0.094-0.023-0.091-0.022-0.869-0.622-0.356-0.275-0.658-0.508-0.667-0.516-0.016-0.011-0.020-0.003-0.020 0.030z"></path>
<path d="M16.048 12.597c0.015 0.028 0.025 0.060 0.030 0.094l0 0.001c0 0.022-0.045 0.223-0.1 0.45s-0.127 0.525-0.158 0.662c-0.056 0.242-0.061 0.252-0.125 0.316l-0.066 0.066 0.088 0.017c0.048 0.009 0.28 0.067 0.516 0.127s0.431 0.108 0.438 0.108 0.027-0.031 0.044-0.069l0.034-0.067-0.422-0.108c-0.231-0.058-0.42-0.109-0.42-0.114 0-0.019 0.325-1.331 0.331-1.338s0.658 0.156 0.764 0.189c0.022 0.006 0.028-0.006 0.031-0.063l0.006-0.070-0.219-0.056c-0.12-0.031-0.35-0.089-0.511-0.13l-0.291-0.073z"></path>
<path d="M20.13 12.658c0.006 0.037 0.019 0.205 0.028 0.369s0.025 0.302 0.033 0.302c0.019 0 0.512-0.272 0.511-0.281 0-0.005-0.078-0.069-0.175-0.142s-0.227-0.177-0.291-0.225l-0.116-0.091z"></path>
<path d="M19.083 12.644c-0.055 0.017-0.098 0.037-0.098 0.045s0.048 0.209 0.108 0.448c0.159 0.637 0.18 0.738 0.167 0.82-0.022 0.145-0.161 0.28-0.337 0.33-0.147 0.042-0.322 0-0.45-0.108l-0.048-0.041-0.097 0.141 0.067 0.050c0.194 0.141 0.462 0.158 0.708 0.047 0.195-0.089 0.303-0.233 0.316-0.422 0.006-0.091-0.009-0.169-0.127-0.639-0.073-0.294-0.134-0.547-0.134-0.563 0.006-0.032 0.017-0.061 0.032-0.087l-0.001 0.001c0.036-0.067 0.033-0.067-0.105-0.023z"></path>
<path d="M18.759 12.723c-0.119 0.030-0.122 0.031-0.078 0.050 0.029 0.014 0.054 0.031 0.075 0.052l-0-0c0.038 0.044 0.278 1.037 0.266 1.095s-0.080 0.122-0.142 0.144c-0.108 0.034-0.22-0.019-0.269-0.128l-0.027-0.059-0.053 0.088c-0.036 0.061-0.047 0.094-0.038 0.109 0.008 0.012 0.055 0.048 0.106 0.080 0.077 0.048 0.108 0.058 0.198 0.063 0.125 0.008 0.209-0.025 0.302-0.117 0.111-0.111 0.111-0.102-0.053-0.775-0.080-0.328-0.148-0.605-0.155-0.614s-0.048-0.006-0.133 0.014z"></path>
<path d="M16.283 12.919c-0.053 0.2-0.109 0.433-0.105 0.436 0.002 0.003 0.144 0.039 0.316 0.080l0.311 0.077 0.027-0.095c0.016-0.052 0.025-0.095 0.022-0.098s-0.033 0.005-0.069 0.017c-0.059 0.022-0.081 0.020-0.241-0.009-0.097-0.017-0.181-0.036-0.188-0.042-0.009-0.008 0.041-0.238 0.056-0.262 0.003-0.003 0.419 0.116 0.464 0.133 0.034 0.016 0.063 0.035 0.090 0.058l-0-0 0.050 0.042v-0.111c0-0.133 0.025-0.117-0.305-0.189-0.128-0.027-0.275-0.059-0.323-0.070l-0.091-0.020z"></path>
<path d="M20.486 13.27l-0.286 0.159 0.009 0.211c0.006 0.116 0.014 0.241 0.020 0.277l0.008 0.066 0.12-0.064 0.119-0.066-0.061-0.058c-0.063-0.056-0.063-0.058-0.063-0.18l-0.002-0.122 0.188-0.106c0.103-0.056 0.195-0.105 0.205-0.105s0.069 0.047 0.131 0.106c0.105 0.098 0.113 0.111 0.105 0.156-0.006 0.027-0.006 0.048-0.002 0.048 0.016 0 0.225-0.117 0.225-0.125s-0.417-0.359-0.425-0.358c-0.003 0-0.134 0.072-0.292 0.159z"></path>
<path d="M16.080 13.727c-0.041 0.172-0.063 0.295-0.055 0.303 0.012 0.012 0.706 0.189 0.741 0.189 0.016 0 0.131-0.217 0.12-0.228-0.003-0.003-0.039 0.008-0.081 0.027-0.086 0.037-0.119 0.034-0.427-0.050l-0.178-0.050 0.009-0.048c0.005-0.027 0.020-0.1 0.034-0.162l0.025-0.114 0.050 0.011c0.027 0.005 0.113 0.030 0.192 0.055 0.105 0.034 0.153 0.058 0.181 0.091l0.038 0.045 0.027-0.094c0.009-0.028 0.016-0.061 0.021-0.095l0-0.004c-0.003-0.002-0.134-0.036-0.294-0.075s-0.302-0.077-0.313-0.081c-0.019-0.006-0.038 0.053-0.092 0.281z"></path>
</svg>
