<svg id="Layer_1" data-name="Layer 1" xmlns="http://www.w3.org/2000/svg" viewBox="0 0 397.91 323.7">
  <defs>
    <style>
      .cls-1 {
        opacity: 0.9;
      }

      .cls-2 {
        opacity: 0.5;
      }

      .cls-3 {
        fill: #051f44;
      }

      .cls-4 {
        fill: #ed2e24;
      }
    </style>
  </defs>
  <title>bluejays2</title>
  <g class="cls-2">
    <path class="cls-3" d="M369.48,300.58v1.61c0.21-.25.42-0.45,0.63-0.7C369.9,301.18,369.69,300.86,369.48,300.58Z" transform="translate(-369.48 -300.58)"/>
    <path class="cls-3" d="M600.34,306.74A159,159,0,0,0,466.5,394.07c-8.75,17.36-13.55,33.6-16.07,54.43-0.87,7.17-.87,26.7,0,33.95,2.35,19.39,7,35.56,14.73,51.63a153,153,0,0,0,29.43,42.14,156.5,156.5,0,0,0,55.65,37.1c26.67,10.64,57.12,13.65,86.2,8.58,43.82-7.67,83-34.23,106.89-72.41a159.28,159.28,0,0,0,7.24-155.33,163.15,163.15,0,0,0-28.14-39.41A158.91,158.91,0,0,0,600.34,306.74Zm19.63,6c43.57,3.53,81.87,24,109.09,58.27a203.39,203.39,0,0,1,12.63,18.69,172.91,172.91,0,0,1,12.6,28.74,154.78,154.78,0,0,1,5.95,67.2c-5.57,42.88-30.07,82.07-66.64,106.57a151.17,151.17,0,0,1-78.51,25.65c-40,1.54-77.07-11.38-107.2-37.42a201.43,201.43,0,0,1-16.1-16.24A153,153,0,0,1,598,312.59C601.85,312.31,615.88,312.38,620,312.69Z" transform="translate(-369.48 -300.58)"/>
    <path class="cls-3" d="M607.9,324.14c-2.07.11-2.52,0.21-2.21,0.59s0.49,3.29.63,7.42l0.21,6.93-0.84-.66c-0.46-.39-4.41-3.57-8.78-7.07L589,324.94l0.18,1.68c0.35,3.81,1.22,25.27,1,25.86s0.07,0.63,3.29.53,3.47-.18,3.18-0.74-0.94-13.69-.59-13.69c0.11,0,4,2.94,8.54,6.51,7.88,6.16,8.29,6.44,8.4,5.56,0.07-.52-0.21-6-0.63-12.18s-0.7-12-.59-12.95c0.14-1.51.07-1.64-.59-1.58C610.77,324,609.3,324.1,607.9,324.14Z" transform="translate(-369.48 -300.58)"/>
    <path class="cls-3" d="M625.09,327.46c-0.42,1.23-.87,2.49-1,2.8-0.21.52-.07,0.56,1,0.39,1.64-.24,6.51.56,6.76,1.16,0.14,0.42-3.64,19.57-4,20.27a8.19,8.19,0,0,1-.84,1.09l-0.67.74,3.78,0.77c2.07,0.39,3.92.74,4.06,0.74a1.07,1.07,0,0,0,.07-1.05c-0.24-1.05,3.15-20.89,3.64-21.42,0.32-.31,6.23,1.05,7.18,1.64l0.81,0.56,0.17-2.91c0.07-1,.11-2,0.11-3-0.07-.11-19.46-3.92-20-3.92A4.92,4.92,0,0,0,625.09,327.46Z" transform="translate(-369.48 -300.58)"/>
    <path class="cls-3" d="M562.12,331.94a14.69,14.69,0,0,0-9.48,5.71,14.43,14.43,0,0,0,2.9,20.23,14.64,14.64,0,0,0,5.88,2.63,14.1,14.1,0,0,0,15.86-7.84c1.29-2.56,1.33-2.8,1.33-6.34,0-3.32-.11-3.92-1-5.77A14.63,14.63,0,0,0,562.12,331.94Zm6,6.26c7.28,3.36,6.76,14.07-.8,16.63a8.93,8.93,0,0,1-11.34-5.6c0-.14-0.1-0.28-0.14-0.42a9,9,0,0,1,4.93-10.61A10.62,10.62,0,0,1,568.11,338.21Z" transform="translate(-369.48 -300.58)"/>
    <path class="cls-3" d="M660.68,337.33a14.94,14.94,0,0,0-9.56,7.88c-1.05,2.17-1.12,2.52-1.12,6.16s0.07,4,1.12,6.19a14.62,14.62,0,0,0,7,7,15.61,15.61,0,0,0,10.29.77,14.62,14.62,0,0,0,9.34-19.25A14.78,14.78,0,0,0,660.68,337.33Zm7.56,6.09a9,9,0,0,1,2.63,14.18c-5.32,5.91-15.43,1.93-15.43-6.06,0-6.51,7.14-11,12.81-8.12h0Z" transform="translate(-369.48 -300.58)"/>
    <path class="cls-3" d="M528.38,350.81a7.5,7.5,0,0,0-2.1.74c-1.3.66-9.38,6.26-9.62,6.61-0.1.17,0.1,0.42,0.45,0.52,1.05,0.35,2.17,1.71,9,11.2,4,5.57,6.58,9.52,6.72,10.22l0.21,1.12,2.94-2.31c2.83-2.24,2.94-2.35,2.17-2.73s-7.17-9.14-6.9-9.38c0.07-.07,3.36,1,7.32,2.45s7.25,2.59,7.35,2.59a25.94,25.94,0,0,0,2.9-2.27c2.7-2.21,2.73-2.24,1.75-2.45-1.19-.24-12-4.06-12-4.24s0.25-1,.52-2.14a6.17,6.17,0,0,0,.14-3.71,9.78,9.78,0,0,0-4.83-5.6A11.87,11.87,0,0,0,528.38,350.81Zm4.1,6.19a3.42,3.42,0,0,1,1,3.74,9.09,9.09,0,0,1-2.27,2.49l-1.89,1.57-0.6-.77a55.2,55.2,0,0,1-3.5-5.21c0-.31,2.83-2.1,3.82-2.41a4.38,4.38,0,0,1,3.43.59h0Z" transform="translate(-369.48 -300.58)"/>
    <path class="cls-3" d="M692.71,367.26c-9.83,9.56-24.26,16.52-47.08,22.75-13.12,3.57-21.35,5.15-38.18,7.21-23.66,2.9-31.43,4.06-38.36,5.77-11.34,2.76-17.18,5.88-24.29,12.95-4.34,4.3-6.27,7.21-6.27,9.41,0,6.3,4.62,12.18,10.25,13.16l1.37,0.21-0.32-1.15c-0.56-2.27-.32-5.95.56-7.6,3.53-6.79,16.1-10.64,31.11-9.52a99.61,99.61,0,0,1,21.94,4.16l2.1,0.63h-7c-3.85,0-8.08.1-9.45,0.28l-2.42.28,5.57,1.93c12.53,4.3,19.14,6.37,23.66,7.42a152.45,152.45,0,0,0,16.87,2.7l2.69,0.25v-1.65a2.44,2.44,0,0,1,.28-1.61c0.17,0,4,.63,8.64,1.36s8.4,1.36,8.43,1.33,0.84-2.14,1.86-4.62a48,48,0,0,1,2.17-4.86c0.18-.18,2.94,2.24,7,6.3l6.68,6.61-0.21-1.57c-0.52-3.92-2.69-25.66-2.56-25.76s2.77,0.91,6,2.17,6,2.17,6.13,2,3-4.8,6.33-10.25l6.06-9.9,1.54,2.38c0.84,1.33,3.18,5.21,5.25,8.61s3.85,6.13,4,6a7.84,7.84,0,0,0,.63-2.31c2.13-10.92,5.36-19.88,8.4-23.17l0.91-1-2.62.18c-3.26.21-5.71,1.12-9.59,3.57-1.64,1-3,1.71-3,1.5a37.2,37.2,0,0,1,1.89-4.3,91.39,91.39,0,0,1,10.15-15.54,21.74,21.74,0,0,0,2.52-3.46c-0.28-.24-5.46.94-8.61,2a51.53,51.53,0,0,0-6.27,2.62c-1.75.88-3.22,1.57-3.33,1.57a6.65,6.65,0,0,1,.49-2c0.7-2.31,1.54-7.84,1.33-9.24C695.86,364.21,695.72,364.32,692.71,367.26Z" transform="translate(-369.48 -300.58)"/>
    <path class="cls-3" d="M600.48,365.19c-14.21,1.36-29.4,5.88-40.92,12.14a99.1,99.1,0,0,0-13.86,9.41,131.07,131.07,0,0,0-18.83,19.78,101.64,101.64,0,0,0-10.43,18.62c-0.42,1-1,2.52-1.37,3.4l-0.63,1.61,3-.45a11.49,11.49,0,0,0,3.15-.74c0.07-.14,1.37-2.9,2.9-6.05,3-6.12,6.82-12.21,8.22-13.12a1.87,1.87,0,0,0,.84-1.26,4.53,4.53,0,0,1,.95-1.92l0.95-1.23,0.6,0.74,0.6,0.74,0.77-.95a2,2,0,0,0,.52-1.82c-0.14-.66.1-1.33,0.91-2.41a5,5,0,0,1,1.4-1.47,2.14,2.14,0,0,1,.84,1.05c0.63,1.23.88,1.26,1.89,0.42l0.77-.6-0.91-1.33a2.84,2.84,0,0,1-.7-1.61,17.77,17.77,0,0,1,1.89-1.75l1.72-1.44,0.91,1.54c1.15,2,1.37,2.1,2.66,1.44l1-.56-1.43-2.14-1.47-2.14,1.37-1.15a7,7,0,0,1,1.78-1.19,4.26,4.26,0,0,1,1.54,1.65c2,2.94,2,3,3.18,2.35l1-.52-1.43-2.66a11.62,11.62,0,0,1-1.3-3,8.13,8.13,0,0,1,1.75-1.54l1.61-1.15,1.4,1.85a10.44,10.44,0,0,1,1.68,3.43c0.32,1.57.32,1.57,1.68,1.5a7.09,7.09,0,0,0,1.47-.21,15.26,15.26,0,0,0-.1-1.79,11.33,11.33,0,0,0-1.75-4l-1.47-2.31,1.08-.84a33.9,33.9,0,0,1,5.5-3.22c0.18,0,0,.8-0.49,1.79l-0.84,1.75,1.19,2a12.64,12.64,0,0,1,1.4,3.5c0.21,1.36.32,1.54,1,1.36a6.09,6.09,0,0,1,1.57-.21c0.77,0,.8-0.07.6-1.68a15.47,15.47,0,0,0-1.26-3.71l-1-2.1,0.88-2.24c0.88-2.17,1-2.31,3-3.22,1.19-.53,2.48-1.09,2.94-1.23,0.73-.21.77-0.14,0.56,0.77a18.3,18.3,0,0,1-1.29,2.94l-1,2,0.73,0.95a13.75,13.75,0,0,1,2.17,5.78c0,1,.07,1,1.58,1h1.58V388a8.42,8.42,0,0,0-1.64-5.21l-0.87-1.15,1.29-3c0.7-1.68,1.37-3.25,1.54-3.54,0.32-.63,8.78-2.87,14.73-4,3.82-.7,5.57-0.81,14-0.81,10,0,12.39.21,20.65,2,8.86,1.86,17.08,4.76,22.43,7.88l2.1,1.22,3.36-1.19,3.39-1.19-1.54-1a114.38,114.38,0,0,0-15.33-7.18,97.36,97.36,0,0,0-21.07-5.07A141.35,141.35,0,0,0,600.48,365.19Z" transform="translate(-369.48 -300.58)"/>
    <path class="cls-3" d="M502.8,375.55a14.24,14.24,0,0,0-6.37,4,14.52,14.52,0,1,0,24.47,14.07,16,16,0,0,0-1.12-10.92A14.91,14.91,0,0,0,502.8,375.55Zm8.5,6.2a7.91,7.91,0,0,1,3.78,4.2,8.87,8.87,0,0,1-4.48,11.72,8.66,8.66,0,0,1-3.75.77,8.78,8.78,0,0,1-8-5,9.89,9.89,0,0,1,0-7.74,10.07,10.07,0,0,1,4.65-4.37,9.31,9.31,0,0,1,7.77.45h0Z" transform="translate(-369.48 -300.58)"/>
    <path class="cls-3" d="M585.43,377a34.66,34.66,0,0,1-2.21,3.36c-0.94,1.23-1,1.36-.49,1.93a8.25,8.25,0,0,1,1.64,5.32v2.1H586c1.51,0,1.54,0,1.78-1.22a8.55,8.55,0,0,0-1.12-5.64c-0.87-1.26-.87-1.3-0.21-2a26,26,0,0,0,2.13-3c1.4-2.24,1.4-2.27.63-2.52C587.08,374.68,586.59,374.89,585.43,377Z" transform="translate(-369.48 -300.58)"/>
    <path class="cls-3" d="M596,377.51a24.65,24.65,0,0,1-2.52,2.87l-1.72,1.68,0.81,1.22a10.68,10.68,0,0,1,1.43,6.05c-0.14.88-.07,1,0.91,1.19,2.48,0.49,2.52.49,2.24-2.24s-0.67-4-1.68-5.11c-0.63-.74-0.63-0.74.18-1.3,1.37-.87,4.23-4.45,3.88-4.8a6.16,6.16,0,0,0-1.54-.52C596.95,376.39,596.74,376.46,596,377.51Z" transform="translate(-369.48 -300.58)"/>
    <path class="cls-3" d="M603.77,381.08l-2.1,2.84,0.81,1.57a16.37,16.37,0,0,1,1.22,3.4l0.46,1.85h3.39l-0.24-1.15a18.2,18.2,0,0,0-1.29-3.32l-1.08-2.17,0.73-.7a15.84,15.84,0,0,0,2.87-4.13,2.07,2.07,0,0,0-1.33-.66l-1.37-.35Z" transform="translate(-369.48 -300.58)"/>
    <path class="cls-3" d="M613,383.46L611,386l0.94,1.61c1.26,2.17,1.29,2.2,2.73,2,1-.21,1.22-0.39,1-0.84-1-2.45-1-2.27.46-4.55a13.08,13.08,0,0,0,1.47-2.45c0-.28-1.68-0.8-2.42-0.77A24.7,24.7,0,0,0,613,383.46Z" transform="translate(-369.48 -300.58)"/>
    <path class="cls-3" d="M478.47,411.74l-3.92,9.45,2.42,1.57c0.84,0.56,1.72,1.09,2.59,1.57a2.24,2.24,0,0,0,.18-1.22c0-1.26,2-6.48,2.45-6.48,0.88,0,18.9,7.95,19.67,8.68a2.07,2.07,0,0,0,1.08.74c0.07-.1.77-1.71,1.57-3.64l1.43-3.5-1.65-.17c-1.23-.14-19.15-6.93-20-7.56-0.28-.18,2.45-5.91,3.15-6.69,0.56-.6.63-0.84,0.25-0.95-0.8-.28-4.76-1.26-5.07-1.26A95.74,95.74,0,0,0,478.47,411.74Z" transform="translate(-369.48 -300.58)"/>
    <path class="cls-4" d="M686.76,413.81c-3,4.86-5.63,8.89-5.77,9a27.28,27.28,0,0,1-4.34-1.65,20.3,20.3,0,0,0-4.31-1.54,67.83,67.83,0,0,0,.56,7.45c0.88,8.3,1.4,16.49,1.16,18.38a1.6,1.6,0,0,1-.77,1.5c-1.4.45-3.29-1-9.1-6.69s-6-5.81-6.27-4.94a68.18,68.18,0,0,1-2.77,6.26,70,70,0,0,1-7.77-.95c-4.13-.63-7.56-1.12-7.63-1.09s0.14,3.43.46,7.42,0.56,7.84.59,8.5l0.11,1.22-2.73.88a12.49,12.49,0,0,0-2.69,1.09c0,0.11,7.32,6.54,16.27,14.31S668,487.2,668,487.34a26.55,26.55,0,0,1-2.48,3.12,21.41,21.41,0,0,0-2.38,3c0.07,0.07,5.67-.28,12.39-0.73s12.77-.8,13.44-0.77c1,0.1,1.33.35,2.31,2.13l1.12,2,1.12-2.07a13.51,13.51,0,0,1,1.37-2.27c0.14-.07,5.84.32,12.67,0.88s12.77,1,13.23,1c0.73,0,.53-0.35-1.64-3a30.32,30.32,0,0,1-2.48-3.29c0-.14,7.35-6.62,16.31-14.38l16.28-14.14-2.62-1.19c-3.12-1.4-2.87-.18-2.13-10.68,0.28-4,.49-7.35.46-7.42s-3.53.52-7.73,1.22l-7.67,1.3-0.46-.91c-0.24-.49-0.87-2.24-1.43-3.92l-1-3L721.9,439c-4.52,4.51-8.51,7.7-9.62,7.7a2.3,2.3,0,0,1-1.19-.7c-0.94-.95-0.91-2.24.32-15.57,0.56-6,1-10.89.91-11a32,32,0,0,0-4.17,1.71,17.49,17.49,0,0,1-4.48,1.61,90.17,90.17,0,0,1-5.42-8.36c-2.73-4.51-5.18-8.44-5.46-8.82C692.36,405.06,691.8,405.79,686.76,413.81Z" transform="translate(-369.48 -300.58)"/>
    <path class="cls-3" d="M531.57,426.37a19.35,19.35,0,0,0-7.25,6.9c-1.57,2.45-1.68,2.55-3.25,2.76-3.33.49-15.43,2.73-20,3.75-18.69,4.13-30.7,8.33-34.37,12l-1.5,1.47,36.54,0.1,36.5,0.07,1.26-1.09c2.45-2.17,3.92-2.59,9-2.59,4.41,0,4.62,0,6.83,1.12a33.24,33.24,0,0,1,5.42,3.75c5.6,4.65,8.19,5.81,13.19,5.81,4.76,0,7.35-1.15,12.49-5.7a29.13,29.13,0,0,1,4.23-3.19c3.53-1.92,4.06-2,25.62-2h19.88v-1.36c0-.74-0.11-2.06-0.21-2.94l-0.24-1.61-20.33-.1c-19.88-.1-20.37-0.1-22.16-0.87-2.07-.8-4.48-2.49-7.63-5.15-4.52-3.89-6.44-4.86-10.18-5.29a17.58,17.58,0,0,0-8.89,1.79,33.44,33.44,0,0,0-4.27,3c-6.82,5.53-8.4,6.34-12.35,6.34s-7.07-1.47-10.4-4.8c-2.48-2.49-4.8-7.45-5.35-11.51a3.07,3.07,0,0,0-.45-1.65A16.78,16.78,0,0,0,531.57,426.37Zm37.77,14.42v3.85h-1.92c-1.89,0-1.93,0-1.93-1a8.89,8.89,0,0,1,2.35-5.39c0.45-.45.91-0.87,1.4-1.3A32,32,0,0,1,569.33,440.79Z" transform="translate(-369.48 -300.58)"/>
    <path class="cls-3" d="M465.73,455.74c0,0.7,2.48,2.55,5.35,4,10,5,30.17,11.2,49.6,15.19,3.36,0.7,7.77,1.82,9.8,2.52,18.17,6.16,35.07,22.47,53,51.07a304.5,304.5,0,0,1,26.71,56,14.67,14.67,0,0,0,1.19,2.9,15.81,15.81,0,0,0,1.58-2.52c11.13-20.68,24.88-41.62,37.34-56.73a271.39,271.39,0,0,1,26.32-27.51c3.85-3.5,4.38-4.06,3.67-4.17-0.46-.07-6.51.38-13.41,1s-12.63,1-12.67.95,1.89-2.42,4.31-5.25,4.34-5.25,4.27-5.28-2.73-2.42-5.88-5.25-5.84-5.11-6-5.11c-0.35,0-6.58,10.32-9.66,16.07-2.45,4.55-6.09,12.22-6.09,12.81a57.65,57.65,0,0,0,6.48.18h6.48l-4.58,5.32C634,523,629,529.52,623.13,538.72a46.84,46.84,0,0,1-3.15,4.65c-0.18.07-.77-1-1.4-2.52-3.26-7.42-9.52-17.43-15.78-25.17a174.94,174.94,0,0,0-16.13-16.07c-9.77-8.12-17-12.53-30.28-18.41-3.36-1.5-7.52-3.4-9.27-4.23-8.4-4-12.46-8.19-13.62-13.93L533,460.92l-3.43-.6c-8.57-1.5-26.18-3.33-40.22-4.13C478.61,455.6,465.73,455.35,465.73,455.74Z" transform="translate(-369.48 -300.58)"/>
    <path class="cls-3" d="M509.13,479.26c0,1.05,2,9.87,3.18,14.1a92.47,92.47,0,0,0,14.38,29.75,141.58,141.58,0,0,0,18.48,20c9.42,8,22.3,14.7,35.35,18.41,4.06,1.15,12.95,3.18,12.95,2.94,0-.07-0.59-1.43-1.37-3l-1.33-2.94-2.07-.21c-6.37-.67-20.33-6.27-29.54-11.87-4.55-2.73-8.75-5.85-8.75-6.48a15.21,15.21,0,0,1,.84-2.52c0.77-1.89.77-2.1,0.28-3.22a13.34,13.34,0,0,1-.56-4.41l0-3.18-1.08-.56-1.12-.52-0.21,1.3a9.6,9.6,0,0,0,.49,5.53l0.67,2-0.95,1.89a6.82,6.82,0,0,1-1.12,1.89,19.73,19.73,0,0,1-2.24-2.07L543.33,534l0.77-1.08a2.29,2.29,0,0,0,.6-1.37,13.3,13.3,0,0,1-.49-2.35,9.13,9.13,0,0,1,.42-4.93c0.17-.56,0-0.84-1.15-1.47l-1.4-.8-0.35,1.33a10.75,10.75,0,0,0,.1,5.77,2.56,2.56,0,0,1,0,2.42l-0.49,1.15-1.89-1.89-1.93-1.89V525.6a10.9,10.9,0,0,1,.6-4.48l0.6-1.26-1-.84c-0.38-.32-0.8-0.6-1.23-0.87a6.81,6.81,0,0,0-.95,1.89,6.57,6.57,0,0,0-.56,3.78l0.21,1.85-1.82-2.24a12.76,12.76,0,0,1-1.78-2.59,25.45,25.45,0,0,1,.77-2.8l0.77-2.42-0.84-.63c-1-.77-1-0.73-1.78,1.12a3.46,3.46,0,0,1-.8,1.43,4.55,4.55,0,0,1-1.33-1.37l-1.05-1.47,0.7-1.58,0.7-1.57-1-1c-0.63-.56-1.12-0.8-1.23-0.6a5.92,5.92,0,0,1-.6,1c-0.45.63-.49,0.6-1-0.42a3.83,3.83,0,0,1-.38-2.24,2.62,2.62,0,0,0-1.65-2.83c-0.35-.14-1.33-2.1-2.35-4.72a97.94,97.94,0,0,1-4.62-15c-0.6-2.52-1.19-4.83-1.26-5.15s-0.84-.7-2.17-1c-1.08-.21-2.27-0.49-2.59-0.56S509.13,479,509.13,479.26Z" transform="translate(-369.48 -300.58)"/>
    <path class="cls-3" d="M698,497.91c-0.35,1-2,4.76-3.78,8.3-2.8,5.78-3.18,6.4-3.64,5.92a4,4,0,0,1-.73-2c-0.18-1.37-.24-1.43-1.43-1.43h-1.23l0.24,1.61a12.19,12.19,0,0,0,1.12,3.29l0.91,1.65-1.33,2.07c-9.94,15.78-27,29.37-46.41,37l-3.39,1.33-2.07,3.22a28.32,28.32,0,0,0-2,3.29c0.18,0.21,9.13-2.8,12.81-4.3,12.92-5.25,23.38-12.53,34.13-23.73a98.55,98.55,0,0,0,19.11-28.32,78,78,0,0,0,3.43-9.45,6.41,6.41,0,0,0-2.56-.28h-2.52Z" transform="translate(-369.48 -300.58)"/>
    <path class="cls-3" d="M504.93,499a4.16,4.16,0,0,1-2.42,3.53c-0.7.35-7.07,3.36-14.21,6.72-13.4,6.27-14.56,6.65-16.2,5.5a1.09,1.09,0,0,0-.77-0.35c0,0.56,5.39,12.11,6.62,14.18,1.78,3,4.52,5.85,6.65,6.82,1.3,0.6,2.27.73,4.93,0.73,3,0,3.5-.1,5.22-1.05a9.23,9.23,0,0,0,4.38-5.35l0.56-1.65h2.87c2.52,0,3.12-.14,4.52-0.95a11,11,0,0,0,5.5-8.89c0.28-3.53-.35-5.35-5.15-15.19C505.63,499.49,504.93,498.3,504.93,499Zm2.1,10.75c2.31,4.65,2.73,6.58,2.13,9.17a6.73,6.73,0,0,1-4,4.93,6.44,6.44,0,0,1-6.27.1l-1.58-.77,0,1.58a8.5,8.5,0,0,1-5.18,7.17,9.61,9.61,0,0,1-3.36.6c-4.34,0-7.07-2.77-10.5-10.71a31.25,31.25,0,0,1-1.37-3.4,2.87,2.87,0,0,1,1.33-.77c0.73-.28,6.9-3.22,13.72-6.51s12.53-5.85,12.7-5.74a35.37,35.37,0,0,1,2.35,4.34h0Z" transform="translate(-369.48 -300.58)"/>
    <path class="cls-3" d="M498,510.2l-5,2.55,1.57,3.12c2.55,5.15,4.76,7.18,7.67,7.18,2.52,0,5.15-3,5.15-5.85,0-2.35-3-9.59-4-9.52C503.18,507.68,500.77,508.83,498,510.2Zm6,6.86a2.5,2.5,0,0,1-2.52,2.48h-0.07c-1.08,0-2.38-1.3-3.53-3.57l-0.7-1.33,2.55-1.19,2.55-1.15,0.84,1.78a8.31,8.31,0,0,1,.88,3h0Z" transform="translate(-369.48 -300.58)"/>
    <path class="cls-3" d="M485.44,516.25c-3.32,1.61-6.05,3.12-6.05,3.36a27.64,27.64,0,0,0,1.61,3.71c1.85,3.82,4.48,6.79,6.47,7.35a6.37,6.37,0,0,0,7.32-3.5c1.3-3,.7-6.05-2.35-11.9l-1-1.93Zm6.55,5.42c0.53,1.65.63,2.52,0.42,3.15a3.4,3.4,0,0,1-3.22,2.24c-1.72,0-3.15-1.3-4.58-4.13l-1.05-2,2.55-1.12c4.62-2.07,4.27-2,4.73-1.15A18.79,18.79,0,0,1,492,521.68Z" transform="translate(-369.48 -300.58)"/>
    <path class="cls-3" d="M710.8,509.57c-6.37,2.31-9.87,7.14-9.87,13.58,0,5.22,2.45,9.07,6.82,10.71s7.49,0.88,12.81-3.43c5-4.06,6.93-4.55,8.19-2.1,1.43,2.77-.63,5.88-4.27,6.48a4.56,4.56,0,0,1-2.17-.18c-0.91-.49-0.94-0.21-0.24,2.07l0.49,1.57,1.72,0a11.47,11.47,0,0,0,5.81-2.17,9.12,9.12,0,0,0,2.56-5.7,5.37,5.37,0,0,0-.63-3.82,6.35,6.35,0,0,0-8-2.73,26,26,0,0,0-4.83,3.36c-4.31,3.47-5.49,4.06-8,3.85a8,8,0,0,1-7.18-8.15c0-3.67,2.87-7.84,6.44-9.55a9.13,9.13,0,0,1,2.52-.77,1.51,1.51,0,0,0,1.08-.35,6.42,6.42,0,0,0-.84-3.22A6.53,6.53,0,0,0,710.8,509.57Z" transform="translate(-369.48 -300.58)"/>
    <path class="cls-3" d="M680.49,509.32c-0.21.32,1.16,3.71,2.13,5.35l0.7,1.19-1.54,3.08L680.25,522l1.29-.1c1.22-.1,1.29-0.21,2.77-3.33l1.51-3.18L685,514.22a21.75,21.75,0,0,1-2.1-4.58C682.73,509,680.84,508.76,680.49,509.32Z" transform="translate(-369.48 -300.58)"/>
    <path class="cls-3" d="M673.53,511.77c-1.54,1.57-1.51,1.85.63,4.23l1.19,1.3-1.23,2.77c-0.67,1.5-1.19,2.83-1.19,2.94a2.43,2.43,0,0,0,1.4.1c1.4-.14,1.43-0.17,3-3.29s1.54-3.18.94-3.64a2.69,2.69,0,0,0-.87-0.49c-0.42,0-2.1-3.12-2.34-4.23l-0.21-1.05Z" transform="translate(-369.48 -300.58)"/>
    <path class="cls-3" d="M712.24,514.75a9.71,9.71,0,0,0-5.11,4.48c-2.45,4.87-.14,9.48,4.76,9.52,2.24,0,3.22-.49,6.37-3.25,4.52-4,7.14-5,10.47-4.06,3.78,1.12,6.09,4.73,5.74,9.1a10.47,10.47,0,0,1-9.07,9.55,5,5,0,0,0-1.89.45,5.55,5.55,0,0,0,.32,2c0.42,1.61.49,1.72,1.47,1.61,1.75-.21,5.95-2.38,7.67-4a13.36,13.36,0,0,0,4.79-10.78c0-4.87-2.1-8.54-6-10.43-1.75-.87-2.38-1-5.32-1-4.13,0-5.42.6-9.56,4.2s-5,4-6.72,2.52c-2.87-2.45,1-7.45,5.28-6.79,0.67,0.1,1.19.1,1.12,0s-0.38-1-.77-1.92C715.11,514.12,714.51,513.91,712.24,514.75Z" transform="translate(-369.48 -300.58)"/>
    <path class="cls-3" d="M667,517.9c-0.53.6-.63,0.91-0.35,1.19s0.14,1.12-.52,3.15c-0.49,1.5-.91,2.87-0.91,3a1.75,1.75,0,0,0,1.33.18l1.29-.1,1.08-3.15c1-2.94,1.08-3.18.52-3.78C668.42,517.16,667.82,517.06,667,517.9Z" transform="translate(-369.48 -300.58)"/>
    <path class="cls-3" d="M519.63,528.82c0,1.65.25,1.4-13.65,14-5.28,4.8-10.18,9-10.82,9.24a5,5,0,0,1-2.59.28l-1.37-.25,2.38,2.73,7.84,8.92,5.39,6.16,1.54-1,1.54-1-1.19-1.3c-0.67-.7-3.4-3.67-6.05-6.65-4.76-5.28-4.83-5.39-4.13-6,0.42-.32,6.2-5.42,12.85-11.37l12.08-10.82-1-1.26a21.72,21.72,0,0,0-1.93-2.1l-0.91-.84v1.33h0Z" transform="translate(-369.48 -300.58)"/>
    <path class="cls-3" d="M556.14,529.55a13.67,13.67,0,0,0,0,2.87c0.18,2.35,1,4.45,2,5.18,0.49,0.38.45,0.56,0,1.75-0.91,2.13-1.05,2.9-.8,4.2,0.17,1,.35,1.19,1.19,1.19s1-.14,1.26-1.68a9.7,9.7,0,0,1,1-2.94c0.67-1.23.67-1.37,0.14-2-1.08-1.19-1.65-3.15-1.65-5.81v-2.59l-1.08-.38C556.63,528.89,556.38,528.89,556.14,529.55Z" transform="translate(-369.48 -300.58)"/>
    <path class="cls-3" d="M693.79,532.11l-2,2,4,12.39,4,12.39,5.08,5.18,5.07,5.18L712.1,567l2.24-2.24-1.43.18c-1.4.17-1.51,0.14-4.52-2.7-5.92-5.53-5.28-4.41-9.17-16.24-1.93-5.77-3.57-11.1-3.71-11.8a6.62,6.62,0,0,1,.14-2.62,6.51,6.51,0,0,0,.28-1.43A16.7,16.7,0,0,0,693.79,532.11Z" transform="translate(-369.48 -300.58)"/>
    <path class="cls-3" d="M564.5,533.93c0.18,2.77.84,4.48,2.24,5.7,0.8,0.7.8,0.8,0.32,2.13a8.45,8.45,0,0,0-.32,4.62c0.17,0.67.45,0.8,1.58,0.8h1.37v-1.93a9.8,9.8,0,0,1,.52-3.18c0.49-1.23.49-1.3-.42-2.38a8.8,8.8,0,0,1-2.2-5.92c0-1.47-.14-2-0.49-2a8.53,8.53,0,0,1-1.61-.25l-1.15-.21Z" transform="translate(-369.48 -300.58)"/>
    <path class="cls-3" d="M573.88,534.24a8.48,8.48,0,0,0,2.8,5.74l1.37,1.23-0.38,2.24a10.42,10.42,0,0,0-.14,3.18c0.18,0.77.42,0.91,1.58,0.91h1.33l0.21-3.43c0.18-3.36.18-3.4-.81-4.45a10,10,0,0,1-2.45-4.8c-0.35-1.37-.56-1.65-1.47-1.82C574,532.67,573.88,532.74,573.88,534.24Z" transform="translate(-369.48 -300.58)"/>
    <path class="cls-3" d="M512.42,544l-12,10.78,5.43,5.92c3,3.25,5.53,5.88,5.67,5.88a23.42,23.42,0,0,0,3.88-2.62,1.32,1.32,0,0,0-.95-0.45c-1.54-.42-3.67-2.1-6.51-5.22-1.47-1.65-2.7-3-2.7-3.15,0-.32,17.68-15.92,19.15-16.9a5,5,0,0,1,2.63-.84h1.37l-1.82-2.1a16.49,16.49,0,0,0-2-2.1C524.46,533.19,519,538.06,512.42,544Z" transform="translate(-369.48 -300.58)"/>
    <path class="cls-3" d="M687.53,538.37c-2.17,2.2-2.31,2.38-1.4,2.28a2.48,2.48,0,0,1,1.57.32c0.46,0.35,4.48,10.25,4.48,11,0,0.38-1.26-.07-5.84-2-5.25-2.24-5.18-2.2-5.43-4.62-0.11-.95-0.17-0.91-2.66,1.58l-2.52,2.59,10.74,4.06c5.95,2.24,10.82,4,10.85,4S690.26,536,690.08,536A25.58,25.58,0,0,0,687.53,538.37Z" transform="translate(-369.48 -300.58)"/>
    <path class="cls-3" d="M537.24,548.84c0.07,1.85-.6,3-8.4,14.88a90.22,90.22,0,0,0-4.69,7.77c-2.55,5.46-1.72,10,2.66,14.42,5.18,5.25,12.81,6.51,18.06,3,1.85-1.23,3.25-3.15,9.55-13.27,5.7-9.17,6.72-10.53,8.23-10.85,0.49-.1,1.05-0.25,1.26-0.28s-0.77-.73-2.1-1.54c-1.93-1.12-2.52-1.37-2.83-1s-3,4.58-6.27,9.7c-8.89,14.07-9.73,15.12-12.77,15.5a15.73,15.73,0,0,1-7.42-1.37c-2.45-1.22-5.35-4.2-5.85-5.95a9.91,9.91,0,0,1,.28-6.16c0.35-.84,3.82-6.44,7.7-12.5s6.93-11.1,6.79-11.27a27.1,27.1,0,0,0-2.27-1.5l-2-1.26Z" transform="translate(-369.48 -300.58)"/>
    <path class="cls-3" d="M672.44,552.76l-1.92,2,2.34,0.07c2.07,0,3.57.49,13,4.1l10.68,4,3.57,3.78c3.64,3.82,4.62,5.53,4.17,7.21-0.11.49,0.59,0,2-1.4l2.13-2.13-5-5.25-5-5.28-4.72-1.75-12-4.52-7.21-2.77Z" transform="translate(-369.48 -300.58)"/>
    <path class="cls-3" d="M541.4,554c-0.91,1.47-3.68,5.85-6.16,9.73s-5,7.84-5.57,8.75a8.52,8.52,0,0,0-1,6.65c0.8,2.45,4.17,5.07,7.91,6.2,3,0.88,5.81-.8,8.93-5.42,0.88-1.33,4-6.2,6.79-10.82,4.27-6.86,5.11-8.4,4.69-8.75-0.25-.25-1.26-1-2.24-1.72l-1.82-1.3,0.28,1.19a4,4,0,0,1-.17,2.2c-0.49,1.15-11.83,19.18-12.7,20.13-1.54,1.78-4.69,1.37-7-.95-2.52-2.52-2.48-2.62,4.48-13.83,3.29-5.28,6.37-10,6.86-10.53a4.3,4.3,0,0,1,2-1.15l1.12-.21-2.1-1.4a15.07,15.07,0,0,0-2.38-1.4A13.43,13.43,0,0,0,541.4,554Z" transform="translate(-369.48 -300.58)"/>
    <path class="cls-3" d="M657.53,559c0,0.56.49,9.77,1,20.44s0.94,19.88.84,20.48a13.48,13.48,0,0,1-.7,2c-0.28.56-.42,1-0.28,1,0.7,0,4.69-2.59,4.69-3s-0.49-8.19-1-17.53-1-17.12-1-17.25,6.27,4.58,13.76,10.57,13.83,10.92,14,11a7.89,7.89,0,0,0,2.77-1.12l2.38-1.3-1.64-.42c-2.1-.52-2-0.49-19.46-13.93-8-6.16-14.73-11.37-14.94-11.55S657.53,558.22,657.53,559Z" transform="translate(-369.48 -300.58)"/>
    <path class="cls-3" d="M571.47,568.26a6.59,6.59,0,0,1,.67,2.13c0,0.49-1,5-2.24,10.08s-2.83,11.76-3.53,14.84c-1.26,5.42-1.37,5.63-2.8,7.07l-1.47,1.47,2,0.38c1.08,0.21,6.26,1.5,11.55,2.83s9.66,2.42,9.8,2.42a4.06,4.06,0,0,0,1-1.54l0.77-1.5L577.7,604c-5.18-1.3-9.42-2.45-9.42-2.55,0-.42,7.28-29.82,7.42-30s14.73,3.5,17.12,4.23c0.49,0.14.63-.14,0.7-1.4l0.14-1.57-4.9-1.26c-2.69-.7-7.84-2-11.44-2.9L570.8,567Z" transform="translate(-369.48 -300.58)"/>
    <path class="cls-3" d="M662.89,569.63c0.14,0.84.42,4.58,0.63,8.26s0.56,6.75.73,6.75c0.42,0,11.48-6.09,11.44-6.3a41.51,41.51,0,0,0-3.92-3.18c-2.17-1.64-5.08-4-6.51-5l-2.59-2Z" transform="translate(-369.48 -300.58)"/>
    <path class="cls-3" d="M639.44,569.31a5.35,5.35,0,0,0-2.21,1c0,0.17,1.08,4.69,2.42,10,3.57,14.28,4,16.52,3.74,18.38-0.49,3.25-3.61,6.27-7.56,7.38a11.27,11.27,0,0,1-10.08-2.42l-1.08-.91-1.08,1.58L622.5,606l1.51,1.12c4.34,3.15,10.36,3.53,15.86,1,4.38-2,6.79-5.22,7.07-9.45,0.14-2-.21-3.78-2.83-14.32-1.64-6.58-3-12.25-3-12.6a6.36,6.36,0,0,1,.7-1.92C642.59,568.33,642.52,568.33,639.44,569.31Z" transform="translate(-369.48 -300.58)"/>
    <path class="cls-3" d="M632.19,571.1c-2.66.67-2.73,0.7-1.75,1.12a6.24,6.24,0,0,1,1.68,1.15c0.84,1,6.23,23.24,6,24.53a5.27,5.27,0,0,1-3.18,3.22,4.91,4.91,0,0,1-6-2.87l-0.59-1.33-1.19,2c-0.81,1.37-1,2.1-.84,2.45a11,11,0,0,0,2.38,1.78,7.23,7.23,0,0,0,4.44,1.4,7.88,7.88,0,0,0,6.76-2.62c2.48-2.48,2.48-2.27-1.19-17.36-1.78-7.35-3.32-13.55-3.47-13.75S634.08,570.64,632.19,571.1Z" transform="translate(-369.48 -300.58)"/>
    <path class="cls-3" d="M576.72,575.47c-1.19,4.48-2.45,9.7-2.34,9.77s3.22,0.88,7.07,1.78l7,1.72L589,586.6a8.36,8.36,0,0,0,.49-2.2,4.51,4.51,0,0,0-1.54.38c-1.33.49-1.82,0.45-5.39-.21a26.2,26.2,0,0,1-4.2-.95,25.81,25.81,0,0,1,1.26-5.88c0.07-.07,9.38,2.59,10.39,3a8.5,8.5,0,0,1,2,1.3l1.12,0.95v-2.48c0-3,.56-2.62-6.83-4.23-2.87-.6-6.16-1.33-7.24-1.57l-2-.45Z" transform="translate(-369.48 -300.58)"/>
    <path class="cls-3" d="M670.87,583.35l-6.41,3.57,0.21,4.72c0.14,2.59.32,5.39,0.46,6.2l0.17,1.47,2.69-1.43,2.66-1.47-1.37-1.3c-1.4-1.26-1.4-1.3-1.4-4l0-2.73,4.2-2.38a46.68,46.68,0,0,1,4.58-2.35,14.76,14.76,0,0,1,2.94,2.38c2.34,2.2,2.52,2.48,2.34,3.5a1.5,1.5,0,0,0,0,1.08,34.34,34.34,0,0,0,5-2.8c0-.18-9.34-8.05-9.52-8S674.4,581.39,670.87,583.35Z" transform="translate(-369.48 -300.58)"/>
    <path class="cls-3" d="M572.17,593.57c-0.91,3.85-1.4,6.62-1.23,6.79s15.82,4.23,16.59,4.23c0.35,0,2.94-4.87,2.69-5.11a5.42,5.42,0,0,0-1.82.6c-1.93.84-2.66,0.77-9.56-1.12l-4-1.12,0.21-1.08c0.11-.6.46-2.24,0.77-3.64l0.56-2.55,1.12,0.25c0.59,0.1,2.52.67,4.31,1.23,2.34,0.77,3.43,1.3,4.06,2l0.84,1,0.59-2.1a16.61,16.61,0,0,0,.49-2.2c-0.07,0-3-.8-6.58-1.68s-6.76-1.72-7-1.82C573.81,587.13,573.39,588.46,572.17,593.57Z" transform="translate(-369.48 -300.58)"/>
  </g>
</svg>
