<svg height="464pt" viewBox="0 -96 464 464" width="464pt" xmlns="http://www.w3.org/2000/svg"><path d="m328 0h-192c-75.121094 0-136 28.65625-136 64 0 15.703125 12.054688 30.0625 32 41.199219v142.800781c0 13.253906 10.746094 24 24 24h352c13.253906 0 24-10.746094 24-24v-142.800781c19.945312-11.136719 32-25.496094 32-41.199219 0-35.34375-60.878906-64-136-64zm0 0" fill="#f09e3e"/><path d="m307.558594 272h100.441406c13.253906 0 24-10.746094 24-24v-115.921875c-31.398438 54.71875-73.761719 102.355469-124.441406 139.921875zm0 0" fill="#f09235"/><path d="m272 64c0-35.34375-60.886719-64-136-64s-136 28.65625-136 64c0 15.703125 12.054688 30.0625 32 41.199219v142.800781c0 13.253906 10.746094 24 24 24h160c13.253906 0 24-10.746094 24-24v-142.800781c19.945312-11.136719 32-25.496094 32-41.199219zm0 0" fill="#f0dbc2"/><path d="m432 112h-144c-4.417969 0-8-3.582031-8-8s3.582031-8 8-8h144c4.417969 0 8 3.582031 8 8s-3.582031 8-8 8zm0 0" fill="#e68c33"/><g fill="#d68033"><path d="m320 136h16v16h-16zm0 0"/><path d="m384 152h16v16h-16zm0 0"/><path d="m272 208h16v16h-16zm0 0"/><path d="m376 224h16v16h-16zm0 0"/><path d="m296 32h16v16h-16zm0 0"/><path d="m384 48h16v16h-16zm0 0"/></g><path d="m211.382812 10.742188c-14.34375 102.960937-67.675781 196.480468-148.984374 261.257812h153.601562c13.253906 0 24-10.746094 24-24v-142.800781c19.945312-11.136719 32-25.496094 32-41.199219 0-22.222656-24.078125-41.785156-60.617188-53.257812zm0 0" fill="#f0d1b1"/></svg>