<svg height="463pt" viewBox="0 0 463.82068 463" width="463pt" xmlns="http://www.w3.org/2000/svg"><path d="m336 168.230469c0 22.089843-17.910156 40-40 40s-40-17.910157-40-40c0-22.09375 17.910156-40 40-40s40 17.90625 40 40zm0 0" fill="#f59f97"/><path d="m312 168.230469c0 8.835937-7.164062 16-16 16s-16-7.164063-16-16c0-8.835938 7.164062-16 16-16s16 7.164062 16 16zm0 0" fill="#f7a8a1"/><path d="m0 441.601562 192-192 22.625 22.625-191.996094 192zm0 0" fill="#d6d9db"/><path d="m152.683594 288.917969 39.316406-39.316407 22.625 22.628907-39.3125 39.316406zm0 0" fill="#cccfd1"/><path d="m216.800781 260.621094.445313-.222656c-2.398438-2.050782-4.796875-4.105469-7.046875-6.402344-20.449219-20.410156-32.902344-47.480469-35.085938-76.292969l-.457031-.160156c-.335938-2.105469-36.800781-9.289063-37.28125-64.203125-14.507812 42.050781-11.777344 88.136718 7.601562 128.175781 39.230469 38.5625 70.101563 17.859375 71.824219 19.105469zm0 0" fill="#9cdce6"/><path d="m203.609375 89.03125.261719.414062c2.039062-2.398437 4.082031-4.757812 6.335937-7.007812 20.414063-20.449219 47.484375-32.898438 76.296875-35.089844l.160156-.453125c2.105469-.335937 9.289063-36.800781 64.199219-37.28125-42.050781-14.511719-88.132812-11.777343-128.175781 7.601563-38.535156 39.222656-17.832031 70.09375-19.078125 71.816406zm0 0" fill="#9cdce6"/><path d="m286.664062 46.894531-.160156.453125c32.054688-2.539062 63.796875 7.785156 88.222656 28.699219l.464844-.210937c1.726563 1.25 32.601563-19.453126 71.824219 19.082031-19.304687-40.183594-53.953125-70.925781-96.152344-85.304688-54.910156.511719-62.0625 36.945313-64.199219 37.28125zm0 0" fill="#f59f97"/><path d="m174.664062 177.566406.457032.160156c-2.542969-32.082031 7.804687-63.851562 28.75-88.28125l-.261719-.414062c1.246094-1.722656-19.457031-32.59375 19.078125-71.816406-40.183594 19.304687-70.921875 53.953125-85.304688 96.152344.511719 54.910156 36.945313 62.0625 37.28125 64.199218zm0 0" fill="#f59f97"/><path d="m447.015625 94.917969c-39.199219-38.535157-70.097656-17.832031-71.824219-19.082031l-.464844.210937c2.402344 2.046875 4.800782 4.109375 7.066407 6.398437 20.429687 20.402344 32.875 47.445313 35.085937 76.230469l.457032.226563c.335937 2.101562 36.761718 9.289062 37.28125 64.199218 14.511718-42.050781 11.777343-88.140624-7.601563-128.183593zm0 0" fill="#9cdce6"/><path d="m417.335938 158.894531-.457032-.226562c2.558594 32.074219-7.769531 63.84375-28.695312 88.28125l.207031.472656c-1.246094 1.726563 19.457031 32.601563-19.078125 71.824219 40.183594-19.304688 70.921875-53.953125 85.304688-96.152344-.519532-54.914062-36.945313-62.0625-37.28125-64.199219zm0 0" fill="#f59f97"/><path d="m305.335938 289.566406.359374-.464844c-32.125 2.59375-63.960937-7.738281-88.4375-28.703124l-.449218.222656c-1.730469-1.246094-32.601563 19.457031-71.824219-19.078125 19.304687 40.183593 53.953125 70.921875 96.152344 85.300781 54.910156-.511719 62.0625-36.941406 64.199219-37.277344zm0 0" fill="#f59f97"/><path d="m388.390625 247.429688-.207031-.472657c-2.046875 2.402344-4.113282 4.800781-6.398438 7.074219-20.367187 20.394531-47.359375 32.839844-76.097656 35.078125l-.359375.464844c-2.105469.335937-9.289063 36.800781-64.199219 37.28125 42.050782 14.507812 88.132813 11.777343 128.175782-7.601563 38.542968-39.230468 17.839843-70.105468 19.085937-71.824218zm0 0" fill="#9cdce6"/><path d="m221.464844 157.917969.605468.414062c3.46875-26.488281 20.875-49.082031 45.601563-59.199219v-.617187c1.953125-.878906-9.601563-35.925781 44.152344-50.46875-42.988281-6-85.851563 11.757813-112 46.398437-14.289063 53.824219 21.855469 61.34375 21.640625 63.472657zm0 0" fill="#f59f97"/><path d="m324.34375 237.933594v-.601563c-24.683594 10.070313-52.859375 6.226563-73.945312-10.085937l-.558594.382812c-1.734375-1.253906-26.398438 26.402344-65.992188-13.199218 16.523438 40.175781 53.3125 68.410156 96.390625 73.984374 53.699219-14.585937 42.160157-49.601562 44.105469-50.480468zm0 0" fill="#f59f97"/><path d="m408.199219 122.039062c-39.589844-39.59375-64.253907-11.945312-65.992188-13.203124l-.488281.441406c2.488281 1.902344 4.855469 3.960937 7.089844 6.160156 16.480468 16.488281 24.292968 39.738281 21.109375 62.832031l.625.28125c-.214844 2.125 35.929687 9.648438 21.601562 63.496094 26.347657-34.285156 32.464844-80.003906 16.054688-120.007813zm0 0" fill="#f59f97"/><path d="m267.65625 98.527344v.613281c24.71875-10.109375 52.953125-6.246094 74.046875 10.128906l.488281-.441406c1.738282 1.257813 26.402344-26.398437 65.992188 13.203125-16.523438-40.167969-53.304688-68.398438-96.375-73.976562-53.746094 14.574218-42.207032 49.589843-44.152344 50.472656zm0 0" fill="#9cdce6"/><path d="m249.800781 227.628906.558594-.382812c-21.214844-16.152344-32.035156-42.511719-28.289063-68.914063l-.605468-.414062c.214844-2.128907-35.929688-9.648438-21.601563-63.496094-26.328125 34.292969-32.421875 80.003906-16 120 39.535157 39.601563 64.199219 11.953125 65.9375 13.207031zm0 0" fill="#9cdce6"/><path d="m370.535156 178.542969-.625-.28125c-3.523437 26.4375-20.917968 48.96875-45.597656 59.070312v.601563c-1.953125.878906 9.597656 35.929687-44.152344 50.472656 42.988282 6 85.851563-11.757812 112-46.402344 14.304688-53.773437-21.839844-61.335937-21.625-63.460937zm0 0" fill="#9cdce6"/><path d="m324.34375 237.933594v-.601563c-24.683594 10.070313-52.859375 6.226563-73.945312-10.085937l-.558594.382812c-.6875-.503906-5.023438 3.511719-12.40625 6.113282 23.347656 21.023437 56.175781 27.925781 86.015625 18.078124 1.429687-7.734374.109375-13.535156.894531-13.886718zm0 0" fill="#f5968e"/><path d="m341.710938 109.269531c2.488281 1.902344 4.855468 3.960938 7.089843 6.160157 16.480469 16.484374 24.292969 39.738281 21.109375 62.832031l.625.28125c-.085937.847656 5.601563 2.613281 11.585938 7.773437 6.476562-30.78125-4.019532-62.679687-27.511719-83.597656-7.386719 2.597656-11.722656 6.613281-12.410156 6.109375zm0 0" fill="#f5968e"/><path d="m221.464844 157.917969.605468.414062c3.46875-26.488281 20.875-49.082031 45.601563-59.199219v-.617187c.800781-.351563-.535156-6.148437.9375-13.886719-29.851563 9.804688-52.222656 34.761719-58.714844 65.503906 5.953125 5.167969 11.65625 6.9375 11.570313 7.785157zm0 0" fill="#f5968e"/><path d="m268.59375 84.636719c-1.472656 7.738281-.152344 13.535156-.9375 13.890625v.613281c24.71875-10.109375 52.953125-6.246094 74.046875 10.128906l.488281-.441406c.6875.503906 5.023438-3.511719 12.410156-6.109375-23.351562-21.027344-56.179687-27.925781-86.019531-18.082031zm0 0" fill="#7fd3e0"/><path d="m250.398438 227.246094c-21.214844-16.152344-32.035157-42.511719-28.285157-68.914063l-.609375-.414062c.089844-.847657-5.601562-2.617188-11.585937-7.777344-6.476563 30.785156 4.023437 62.679687 27.515625 83.601563 7.382812-2.601563 11.71875-6.617188 12.40625-6.113282zm0 0" fill="#7fd3e0"/><path d="m370.535156 178.542969-.625-.28125c-3.523437 26.4375-20.917968 48.96875-45.597656 59.070312v.601563c-.800781.351562.535156 6.152344-.9375 13.886718 29.851562-9.800781 52.222656-34.761718 58.710938-65.503906-5.933594-5.160156-11.636719-6.886718-11.550782-7.773437zm0 0" fill="#7fd3e0"/><path d="m282.800781 194.628906 1.070313-1.289062c-2.839844-1.320313-5.433594-3.117188-7.671875-5.308594-8.324219-8.355469-10.503907-21.039062-5.4375-31.691406l-1.160157-1.308594c1.246094-1.722656-19.464843-19.585938 6.125-58.632812-19.0625 5.355468-35.214843 18.074218-44.886718 35.355468-9.675782 17.277344-12.074219 37.695313-6.671875 56.746094 39.03125 25.59375 56.910156 4.882812 58.632812 6.128906zm0 0" fill="#9cdce6"/><path d="m269.601562 155.03125 1.160157 1.308594c3.089843-6.792969 8.8125-12.042969 15.847656-14.539063 7.035156-2.496093 14.785156-2.03125 21.46875 1.292969l1.121094-1.265625c1.71875 1.25 19.585937-19.460937 58.632812 6.128906-5.355469-19.066406-18.074219-35.214843-35.355469-44.890625-17.277343-9.671875-37.695312-12.070312-56.75-6.667968-25.589843 39.03125-4.878906 56.910156-6.125 58.632812zm0 0" fill="#f59f97"/><path d="m322.398438 181.429688-1.199219-1.238282c-3.105469 6.785156-8.835938 12.015625-15.871094 14.496094-7.039063 2.480469-14.78125 1.992188-21.457031-1.347656l-1.070313 1.289062c-1.722656-1.246094-19.585937 19.464844-58.632812-6.128906 5.355469 19.066406 18.074219 35.21875 35.355469 44.890625 17.277343 9.671875 37.695312 12.074219 56.75 6.671875 25.589843-39.03125 4.878906-56.914062 6.125-58.632812zm0 0" fill="#f59f97"/><path d="m367.832031 147.957031c-39.046875-25.597656-56.914062-4.878906-58.632812-6.128906l-1.121094 1.265625c6.734375 3.109375 11.925781 8.804688 14.398437 15.800781 2.46875 6.992188 2.007813 14.6875-1.277343 21.335938l1.199219 1.238281c-1.246094 1.722656 19.464843 19.585938-6.125 58.632812 19.0625-5.355468 35.214843-18.074218 44.886718-35.355468 9.675782-17.277344 12.074219-37.695313 6.671875-56.75zm0 0" fill="#9cdce6"/><path d="m295.542969 32.230469c-3.222657 4.714843-6.1875 9.601562-8.878907 14.640625l-.160156.453125c32.054688-2.539063 63.796875 7.785156 88.222656 28.699219l.464844-.210938c5.46875-1.664062 11.023438-3.027344 16.640625-4.078125-25.449219-25.34375-59.917969-39.550781-95.832031-39.503906-.152344 0-.304688 0-.457031 0zm0 0" fill="#f5968e"/><path d="m175.121094 177.726562c-2.542969-32.082031 7.804687-63.851562 28.75-88.28125l-.261719-.414062c-1.667969-5.464844-3.03125-11.019531-4.082031-16.632812-25.351563 25.445312-39.566406 59.910156-39.527344 95.832031v.457031c4.714844 3.222656 9.601562 6.183594 14.640625 8.878906zm0 0" fill="#f5968e"/><path d="m416.878906 158.667969c2.558594 32.074219-7.769531 63.84375-28.695312 88.28125l.207031.472656c1.667969 5.464844 3.03125 11.023437 4.082031 16.640625 25.351563-25.445312 39.566406-59.914062 39.527344-95.832031 0-.152344 0-.304688 0-.457031-4.714844-3.222657-9.601562-6.1875-14.640625-8.878907zm0 0" fill="#f5968e"/><path d="m217.257812 260.398438-.449218.222656c-.578125-.414063-4.449219 1.601562-10.738282 3.046875-1.945312.460937-3.917968.804687-5.902343 1.035156 3.710937 3.636719 7.621093 7.066406 11.71875 10.261719 23.933593 18.96875 53.578125 29.28125 84.113281 29.265625h.457031c3.222657-4.714844 6.1875-9.605469 8.878907-14.640625l.359374-.464844c-32.128906 2.589844-63.964843-7.753906-88.4375-28.726562zm0 0" fill="#f5968e"/><g fill="#7fd3e0"><path d="m210.207031 254.023438c-20.449219-20.414063-32.902343-47.484376-35.085937-76.296876l-.457032-.160156c-5.046874-2.691406-9.941406-5.65625-14.664062-8.878906.078125 30.375 10.378906 59.84375 29.238281 83.652344 3.382813 4.335937 7.027344 8.464844 10.90625 12.363281 1.984375-.230469 3.957031-.574219 5.902344-1.035156 6.289063-1.445313 10.160156-3.460938 10.738281-3.046875l.445313-.222656c-2.367188-2.050782-4.757813-4.105469-7.023438-6.375zm0 0"/><path d="m203.871094 89.445312c2.039062-2.398437 4.082031-4.757812 6.335937-7.007812 20.414063-20.449219 47.484375-32.898438 76.296875-35.089844l.160156-.453125c2.691407-5.046875 5.65625-9.941406 8.878907-14.664062-36.066407.074219-70.613281 14.523437-96 40.144531 1.050781 5.613281 2.414062 11.167969 4.082031 16.628906zm0 0"/><path d="m374.726562 76.046875c2.402344 2.046875 4.800782 4.109375 7.066407 6.398437 20.429687 20.402344 32.875 47.445313 35.085937 76.230469l.457032.226563c5.046874 2.6875 9.941406 5.648437 14.664062 8.871094-.074219-36.066407-14.523438-70.617188-40.144531-96-5.617188 1.050781-11.171875 2.414062-16.640625 4.082031zm0 0"/><path d="m388.183594 246.949219c-2.046875 2.398437-4.113282 4.800781-6.398438 7.074219-20.367187 20.394531-47.359375 32.839843-76.097656 35.078124l-.359375.464844c-2.691406 5.042969-5.652344 9.941406-8.871094 14.664063 36.066407-.078125 70.613281-14.523438 96-40.144531-1.050781-5.617188-2.414062-11.171876-4.082031-16.640626zm0 0"/><path d="m283.871094 193.828125c-2.839844-1.320313-5.433594-3.117187-7.671875-5.3125-8.324219-8.351563-10.503907-21.035156-5.4375-31.6875l-1.160157-1.3125c.527344-.726563-2.867187-4.382813-5.027343-11.269531-6.597657 8.292968-9.582031 18.894531-8.273438 29.414062 1.308594 10.515625 6.796875 20.066406 15.226563 26.488282 6.886718-2.167969 10.542968-5.597657 11.273437-5.03125zm0 0"/></g><path d="m264.574219 143.757812c2.160156 6.886719 5.554687 10.542969 5.027343 11.273438l1.160157 1.308594c3.089843-6.792969 8.8125-12.042969 15.847656-14.539063 7.035156-2.496093 14.785156-2.03125 21.46875 1.292969l1.121094-1.265625c.730469.53125 4.382812-2.863281 11.273437-5.023437-8.292968-6.597657-18.894531-9.582032-29.410156-8.273438s-20.0625 6.796875-26.488281 15.226562zm0 0" fill="#f5968e"/><path d="m321.199219 180.230469c-3.105469 6.785156-8.835938 12.015625-15.871094 14.496093-7.039063 2.480469-14.78125 1.996094-21.457031-1.34375l-1.070313 1.285157c-.730469-.527344-4.386719 2.867187-11.273437 5.027343 8.292968 6.597657 18.894531 9.578126 29.410156 8.273438 10.515625-1.308594 20.0625-6.796875 26.488281-15.226562-2.160156-6.886719-5.554687-10.542969-5.027343-11.273438zm0 0" fill="#f5968e"/><path d="m308.078125 143.09375c6.734375 3.109375 11.925781 8.804688 14.398437 15.800781 2.46875 6.992188 2.007813 14.6875-1.277343 21.335938l1.199219 1.238281c-.527344.730469 2.867187 4.386719 5.027343 11.273438 6.597657-8.292969 9.578125-18.894532 8.269531-29.410157-1.304687-10.515625-6.792968-20.0625-15.222656-26.488281-6.890625 2.160156-10.542968 5.554688-11.273437 5.027344zm0 0" fill="#7fd3e0"/></svg>