<svg height="464pt" viewBox="0 -80 464 464" width="464pt" xmlns="http://www.w3.org/2000/svg"><path d="m16 0h432c8.835938 0 16 7.164062 16 16v272c0 8.835938-7.164062 16-16 16h-432c-8.835938 0-16-7.164062-16-16v-272c0-8.835938 7.164062-16 16-16zm0 0" fill="#4398d1"/><path d="m448 0h-72l-304 304h376c8.835938 0 16-7.164062 16-16v-272c0-8.835938-7.164062-16-16-16zm0 0" fill="#3e8dc2"/><g fill="#0a4a7a"><path d="m48 40h16v224h-16zm0 0"/><path d="m80 40h16v192h-16zm0 0"/><path d="m112 248h16v16h-16zm0 0"/><path d="m144 248h16v16h-16zm0 0"/><path d="m112 40h16v192h-16zm0 0"/><path d="m144 40h16v192h-16zm0 0"/><path d="m176 248h16v16h-16zm0 0"/><path d="m176 40h16v192h-16zm0 0"/><path d="m208 40h16v224h-16zm0 0"/><path d="m240 40h16v224h-16zm0 0"/><path d="m272 248h16v16h-16zm0 0"/><path d="m304 248h16v16h-16zm0 0"/><path d="m272 40h16v192h-16zm0 0"/><path d="m304 40h16v192h-16zm0 0"/><path d="m336 248h16v16h-16zm0 0"/><path d="m336 40h16v192h-16zm0 0"/><path d="m368 40h16v192h-16zm0 0"/><path d="m400 40h16v224h-16zm0 0"/><path d="m80 248h16v16h-16zm0 0"/><path d="m368 248h16v16h-16zm0 0"/></g></svg>