<svg height="464pt" viewBox="-48 0 464 464" width="464pt" xmlns="http://www.w3.org/2000/svg"><path d="m0 400h368v64h-368zm0 0" fill="#22689c"/><path d="m0 96h368v304h-368zm0 0" fill="#4398d1"/><path d="m176 424h16v16h-16zm0 0" fill="#0a4a7a"/><path d="m336 144h-272c-8.835938 0-16 7.164062-16 16v208c0 8.835938 7.164062 16 16 16h272c8.835938 0 16-7.164062 16-16v-208c0-8.835938-7.164062-16-16-16zm0 0" fill="#3e8dc2"/><path d="m200 0h160c4.417969 0 8 3.582031 8 8v48c0 4.417969-3.582031 8-8 8h-160c-4.417969 0-8-3.582031-8-8v-48c0-4.417969 3.582031-8 8-8zm0 0" fill="#87ced9"/><path d="m328 24h16v16h-16zm0 0" fill="#5eb3d1"/><path d="m296 24h16v16h-16zm0 0" fill="#5eb3d1"/><path d="m264 24h16v16h-16zm0 0" fill="#5eb3d1"/><path d="m336 144c0-8.835938-7.164062-16-16-16h-272c-8.835938 0-16 7.164062-16 16v96h304zm0 0" fill="#e3584b"/><path d="m32 240v112c0 8.835938 7.164062 16 16 16h272c8.835938 0 16-7.164062 16-16v-112zm0 0" fill="#c74a44"/><path d="m264 64h32v64h-32zm0 0" fill="#d64740"/><path d="m264 64h32v16h-32zm0 0" fill="#cc3831"/><g fill="#ffc24f"><path d="m64 264h16v16h-16zm0 0"/><path d="m64 296h16v16h-16zm0 0"/><path d="m64 328h16v16h-16zm0 0"/><path d="m96 264h16v16h-16zm0 0"/><path d="m96 296h16v16h-16zm0 0"/><path d="m96 328h16v16h-16zm0 0"/><path d="m128 264h16v16h-16zm0 0"/><path d="m128 296h16v16h-16zm0 0"/><path d="m128 328h16v16h-16zm0 0"/><path d="m160 264h16v16h-16zm0 0"/><path d="m160 296h16v16h-16zm0 0"/><path d="m160 328h16v16h-16zm0 0"/><path d="m192 264h16v16h-16zm0 0"/><path d="m192 296h16v16h-16zm0 0"/><path d="m192 328h16v16h-16zm0 0"/><path d="m256 264h16v16h-16zm0 0"/><path d="m256 296h16v16h-16zm0 0"/><path d="m256 328h16v16h-16zm0 0"/><path d="m288 264h16v16h-16zm0 0"/><path d="m288 296h16v16h-16zm0 0"/><path d="m288 328h16v16h-16zm0 0"/></g><path d="m160 208h-96v-176l16 8 16-8 16 8 16-8 16 8 16-8zm0 0" fill="#d6d9db"/><path d="m64 192v16h96v-112zm0 0" fill="#cccfd1"/><path d="m88 168h48v16h-48zm0 0" fill="#b1b3b5"/><path d="m88 136h48v16h-48zm0 0" fill="#b1b3b5"/><path d="m88 104h48v16h-48zm0 0" fill="#b1b3b5"/><path d="m88 72h48v16h-48zm0 0" fill="#b1b3b5"/><path d="m192 160h112v48h-112zm0 0" fill="#87ced9"/><path d="m192 160h112v16h-112zm0 0" fill="#71c4d1"/></svg>