<svg height="464pt" viewBox="0 -24 464 464" width="464pt" xmlns="http://www.w3.org/2000/svg"><path d="m32 0h320c17.671875 0 32 14.328125 32 32v192c0 17.671875-14.328125 32-32 32h-320c-17.671875 0-32-14.328125-32-32v-192c0-17.671875 14.328125-32 32-32zm0 0" fill="#e3584b"/><path d="m0 56h384v64h-384zm0 0" fill="#8f4b08"/><path d="m112 144c-26.507812 0-48 21.492188-48 48v64h320v-112zm0 0" fill="#d45246"/><path d="m112 160h320c17.671875 0 32 14.328125 32 32v192c0 17.671875-14.328125 32-32 32h-320c-17.671875 0-32-14.328125-32-32v-192c0-17.671875 14.328125-32 32-32zm0 0" fill="#4398d1"/><path d="m432 160-256 256h256c17.671875 0 32-14.328125 32-32v-192c0-17.671875-14.328125-32-32-32zm0 0" fill="#3e8dc2"/><path d="m400 312c-9.222656.023438-17.980469 4.050781-24 11.039062-8.75-10.09375-22.851562-13.691406-35.367188-9.019531-12.515624 4.667969-20.8125 16.621094-20.8125 29.980469s8.296876 25.3125 20.8125 29.980469c12.515626 4.671875 26.617188 1.074219 35.367188-9.019531 9.691406 11.09375 25.714844 14.121093 38.789062 7.328124 13.070313-6.792968 19.800782-21.648437 16.292969-35.953124-3.511719-14.308594-16.351562-24.363282-31.082031-24.335938zm0 0" fill="#e3584b"/><path d="m128 208h48c4.417969 0 8 3.582031 8 8v48c0 4.417969-3.582031 8-8 8h-48c-4.417969 0-8-3.582031-8-8v-48c0-4.417969 3.582031-8 8-8zm0 0" fill="#ffc24f"/><path d="m120 232h24v16h-24zm0 0" fill="#ffa230"/><path d="m160 232h24v16h-24zm0 0" fill="#ffa230"/><g fill="#5eb3d1"><path d="m408 200h16v24h-16zm0 0"/><path d="m376 200h16v24h-16zm0 0"/><path d="m344 200h16v24h-16zm0 0"/><path d="m312 200h16v24h-16zm0 0"/><path d="m120 320h16v16h-16zm0 0"/><path d="m152 320h16v16h-16zm0 0"/><path d="m184 320h16v16h-16zm0 0"/><path d="m216 320h16v16h-16zm0 0"/><path d="m248 320h16v16h-16zm0 0"/><path d="m280 320h16v16h-16zm0 0"/><path d="m120 360h48v16h-48zm0 0"/><path d="m248 360h48v16h-48zm0 0"/></g></svg>