<svg height="464pt" viewBox="0 -24 464 464" width="464pt" xmlns="http://www.w3.org/2000/svg"><path d="m24 320 17.601562 72.414062c3.789063 13.914063 16.417969 23.570313 30.839844 23.585938h319.117188c14.421875-.015625 27.050781-9.671875 30.839844-23.585938l17.601562-72.414062" fill="#d6d9db"/><path d="m24 320 4.855469 20c6.039062 2.636719 12.554687 4 19.144531 4h368c6.589844 0 13.105469-1.363281 19.144531-4l4.855469-20zm0 0" fill="#cccfd1"/><path d="m48 64h368c26.507812 0 48 21.492188 48 48v168c0 26.507812-21.492188 48-48 48h-368c-26.507812 0-48-21.492188-48-48v-168c0-26.507812 21.492188-48 48-48zm0 0" fill="#d6d9db"/><path d="m416 64h-5.535156l-52.863282 114.472656c-19.722656 4.492188-35.632812 19.023438-41.882812 38.261719-10.398438 29.144531 1.480469 60 26.457031 68.851563 24.976563 8.847656 53.601563-7.53125 64-36.675782 7.136719-18.5 4.28125-39.375-7.566406-55.277344l52.65625-114.089843c-9.054687-9.898438-21.851563-15.539063-35.265625-15.542969zm0 0" fill="#c2c5c7"/><path d="m432 192c0-17.671875-14.328125-32-32-32h-16c0-17.671875-14.328125-32-32-32h-32c0-17.671875-14.328125-32-32-32h-112c-17.671875 0-32 14.328125-32 32h-80c-13.253906 0-24 10.746094-24 24h-16c-13.253906 0-24 10.746094-24 24v104c0 26.507812 21.492188 48 48 48h368c26.507812 0 48-21.492188 48-48v-56c0-17.671875-14.328125-32-32-32zm0 0" fill="#ffc24f"/><g fill="#e3584b"><path d="m80 176h16v16h-16zm0 0"/><path d="m128 232h16v16h-16zm0 0"/><path d="m208 128h16v16h-16zm0 0"/><path d="m176 288h16v16h-16zm0 0"/><path d="m264 160h16v16h-16zm0 0"/></g><path d="m442.183594 0c-8.496094 0-16.222656 4.941406-19.785156 12.65625l-76.527344 165.816406c-19.71875 4.492188-35.621094 19.027344-41.871094 38.261719-10.398438 29.144531 1.480469 60 26.457031 68.851563 24.976563 8.847656 53.597657-7.53125 64-36.675782 7.136719-18.5 4.28125-39.375-7.570312-55.277344l75.082031-162.710937c3.117188-6.75 2.578125-14.617187-1.425781-20.878906-4.007813-6.257813-10.925781-10.04687525-18.359375-10.042969zm0 0" fill="#e8ebed"/><path d="m424 280c0-17.671875-14.328125-32-32-32h-48c0-17.671875-14.328125-32-32-32h-48v96h160zm0 0" fill="#ffc24f"/><path d="m88 240c0 13.253906-10.746094 24-24 24s-24-10.746094-24-24 10.746094-24 24-24 24 10.746094 24 24zm0 0" fill="#648c15"/><path d="m280 280c0 13.253906-10.746094 24-24 24s-24-10.746094-24-24 10.746094-24 24-24 24 10.746094 24 24zm0 0" fill="#648c15"/><path d="m200 184c0 13.253906-10.746094 24-24 24s-24-10.746094-24-24 10.746094-24 24-24 24 10.746094 24 24zm0 0" fill="#648c15"/></svg>