<svg height="463pt" viewBox="0 -44 463.99146 463" width="463pt" xmlns="http://www.w3.org/2000/svg"><path d="m346.46875 373.601562-329.832031-158.277343c-14.585938-7.042969-20.738281-24.542969-13.777344-39.160157l75.664063-158.96875c3.324218-7.019531 9.308593-12.425781 16.625-15.019531 7.320312-2.597656 15.371093-2.1679685 22.375 1.1875l329.832031 158.28125c14.582031 7.039063 20.738281 24.539063 13.777343 39.160157l-75.664062 158.964843c-3.324219 7.019531-9.308594 12.425781-16.625 15.019531-7.320312 2.597657-15.371094 2.171876-22.375-1.1875zm0 0" fill="#22689c"/><path d="m55.996094 64.484375h352c17.671875 0 32 14.324219 32 32v176c0 17.671875-14.328125 32-32 32h-352c-17.671875 0-32-14.328125-32-32v-176c0-17.675781 14.328125-32 32-32zm0 0" fill="#4398d1"/><path d="m407.996094 64.484375-240 240h240c17.671875 0 32-14.328125 32-32v-176c0-17.675781-14.328125-32-32-32zm0 0" fill="#3e8dc2"/><path d="m439.996094 176.484375h-296v-112h-16v112h-104v16h104v112h16v-112h296zm0 0" fill="#c74a44"/><path d="m151.308594 188.820312 45.488281-18.257812c14.515625-5.753906 23.296875-20.601562 21.351563-36.09375-1.945313-15.496094-14.128907-27.707031-29.617188-29.695312-15.484375-1.988282-30.355469 6.753906-36.152344 21.253906l-15.238281 38.253906-15.199219-38.253906c-5.828125-14.425782-20.664062-23.097656-36.09375-21.097656-15.429687 2-27.558594 14.167968-29.515625 29.601562-1.957031 15.4375 6.757813 30.246094 21.199219 36.03125l45.449219 18.257812-2.167969 2.175782c-15.007812 15.167968-35.480469 23.675781-56.816406 23.605468v16c25.566406.058594 50.09375-10.140624 68.078125-28.3125l5.035156-5.054687 5.046875 5.0625c17.980469 18.171875 42.5 28.367187 68.0625 28.304687v-16c-21.308594.050782-41.75-8.457031-56.734375-23.605468zm15.886718-56.867187c3.113282-7.664063 11.007813-12.257813 19.210938-11.183594 8.203125 1.078125 14.648438 7.554688 15.679688 15.761719s-3.609376 16.078125-11.289063 19.152344l-39.34375 15.800781zm-83.769531 23.730469c-7.753906-3.035156-12.464843-10.9375-11.453125-19.203125 1.011719-8.265625 7.492188-14.796875 15.75-15.871094 8.257813-1.074219 16.195313 3.582031 19.289063 11.3125l15.761719 39.5625zm0 0" fill="#e3584b"/><g fill="#22689c"><path d="m375.996094 96.484375h16v32h-16zm0 0"/><path d="m343.996094 96.484375h16v32h-16zm0 0"/><path d="m311.996094 96.484375h16v32h-16zm0 0"/><path d="m279.996094 96.484375h16v32h-16zm0 0"/><path d="m375.996094 248.484375h16v16h-16zm0 0"/><path d="m343.996094 248.484375h16v16h-16zm0 0"/><path d="m311.996094 248.484375h16v16h-16zm0 0"/><path d="m279.996094 248.484375h16v16h-16zm0 0"/></g></svg>