<svg height="472pt" viewBox="-16 0 472 472" width="472pt" xmlns="http://www.w3.org/2000/svg"><path d="m232 0c-75.109375 0-136 60.890625-136 136v97.207031c0 51.949219 10.902344 103.320313 32 150.792969h216l4.945312-14.839844c12.621094-37.855468 19.054688-77.503906 19.054688-117.40625v-115.753906c0-75.109375-60.890625-136-136-136zm0 0" fill="#ffa217"/><path d="m401.414062 392.28125-95.6875-19.136719c-14.957031-2.992187-25.726562-16.121093-25.726562-31.375v-53.769531h-96v53.769531c0 15.253907-10.769531 28.382813-25.726562 31.375l-95.6875 19.136719c-22.4375 4.488281-38.589844 24.1875-38.585938 47.070312v32.648438h416v-32.648438c.003906-22.882812-16.148438-42.582031-38.585938-47.070312zm0 0" fill="#f8cab9"/><path d="m233.425781 336c16.371094-.035156 32.441407-4.410156 46.574219-12.679688v-35.320312h-96v34.953125c14.574219 8.496094 31.128906 12.996094 48 13.046875zm0 0" fill="#f6baa4"/><path d="m341.046875 136h-13.046875v56s4.664062-.167969 7.664062-.496094 11.921876-2.398437 11.921876-2.398437c13.210937-3.296875 21.894531-15.929688 20.230468-29.445313-1.664062-13.515625-13.148437-23.667968-26.769531-23.660156zm0 0" fill="#f6baa4"/><path d="m336 136-5.777344 81.167969c-1.425781 20.097656-8.617187 39.355469-20.703125 55.472656l-1.375 1.832031c-17.589843 23.597656-45.289062 37.507813-74.71875 37.527344h-1.425781c-30.214844 0-58.671875-14.226562-76.800781-38.398438-12.53125-16.714843-19.988281-36.683593-21.480469-57.523437l-5.71875-80.078125 32-72c40.707031 45.796875 99.058594 72 160.335938 72zm0 0" fill="#f8cab9"/><path d="m192 164c0 11.046875-8.953125 20-20 20s-20-8.953125-20-20 8.953125-20 20-20 20 8.953125 20 20zm0 0" fill="#8f4b08"/><path d="m296 164c0 11.046875-8.953125 20-20 20s-20-8.953125-20-20 8.953125-20 20-20 20 8.953125 20 20zm0 0" fill="#8f4b08"/><path d="m221.472656 223.59375-24-8c-2.632812-.878906-4.621094-3.054688-5.257812-5.753906-.636719-2.699219.167968-5.535156 2.128906-7.496094l24-24 11.3125 11.3125-14.847656 14.847656 11.71875 3.902344zm0 0" fill="#f5ad93"/><path d="m217.367188 256h-9.367188v-16h9.367188c12.375.035156 24.25-4.882812 32.976562-13.65625l11.3125 11.3125c-11.71875 11.785156-27.667969 18.394531-44.289062 18.34375zm0 0" fill="#f5ad93"/><path d="m86.28125 211.359375c7.90625 3.941406 11.121094 13.550781 7.179688 21.457031l-7.136719 14.320313c-3.941407 7.910156-13.550781 11.125-21.457031 7.183593-7.910157-3.941406-11.125-13.550781-7.183594-21.457031l7.140625-14.320312c3.941406-7.910157 13.546875-11.125 21.457031-7.183594zm0 0" fill="#f6baa4"/><path d="m120 272h-88c-8.835938 0-16-7.164062-16-16s7.164062-16 16-16h88zm0 0" fill="#8f4b08"/><path d="m176 224-56 16v32l56 24zm0 0" fill="#d68033"/><path d="m0 472v-212.800781c0-10.601563 8.597656-19.199219 19.199219-19.199219h36.800781c8.835938 0 16 7.164062 16 16v56c0 13.253906-10.746094 24-24 24l24 136" fill="#fad6c9"/></svg>