<svg height="471pt" viewBox="0 -3 471.99618 471" width="471pt" xmlns="http://www.w3.org/2000/svg"><path d="m470.03125 115.242188c-1.519531-1.742188-3.71875-2.746094-6.03125-2.742188h-401.441406l-16.558594-90-15.6875 3.140625 17.734375 95.890625 15.378906 222.96875h-6.011719c-16.808593-.289062-31.140624 12.121094-33.261718 28.796875-.90625 9 2.042968 17.964844 8.109375 24.671875 6.070312 6.707031 14.691406 10.53125 23.738281 10.53125h312c4.417969 0 8-3.582031 8-8 0-4.421875-3.582031-8-8-8h-311.097656c-8.042969.179688-15.0625-5.417969-16.679688-13.296875-.796875-4.652344.5-9.414063 3.539063-13.019531 3.042969-3.605469 7.519531-5.6875 12.238281-5.683594h355.089844c15.980468-.003906 29.507812-11.796875 31.695312-27.625l29.136719-211.28125c.316406-2.289062-.371094-4.605469-1.890625-6.351562zm-302.03125 13.257812h32v96h-32zm-16 96h-32v-96h32zm144 0h-32v-96h32zm16-96h32v96h-32zm-64 96h-32v-96h32zm-48 16v104h-32v-104zm16 0h32v104h-32zm48 0h32v104h-32zm48 0h32v104h-32zm48 0h31.703125l-7.199219 104h-24.503906zm0-16v-96h39.425781l-6.625 96zm-256-96v96h-32v11.71875l-7.433594-107.71875zm-31.703125 112h31.703125v104h-24.527344zm47.703125 0h32v104h-32zm306.9375 90.183594c-1.121094 7.898437-7.871094 13.78125-15.847656 13.816406h-10.515625l7.203125-104h31.628906zm14.664062-106.183594h-32.753906l6.625-96h39.351563zm0 0" fill="#b8bbbd"/><path d="m464 112.5h-94l-26 26v86h-32v-54l-16 16v38h-32v-6l-22 22h6v104h-32v-78l-16 16v62h-32v-30l-16 16v14h-14l-16 16h289.089844c15.980468-.003906 29.507812-11.796875 31.695312-27.625l29.136719-211.28125c.316406-2.289062-.375-4.605469-1.894531-6.347656-1.515625-1.746094-3.714844-2.746094-6.027344-2.746094zm-168 232h-32v-104h32zm48 0h-32v-104h32zm40.527344 0h-24.527344v-104h31.703125zm8.273437-120h-32.800781v-96h39.425781zm34.128907 106.183594c-1.121094 7.898437-7.863282 13.777344-15.839844 13.816406h-10.515625l7.203125-104h31.628906zm14.671874-106.183594h-32.753906l6.625-96h39.351563zm0 0" fill="#aeb1b3"/><path d="m120 432.5c0 17.671875-14.328125 32-32 32s-32-14.328125-32-32c0-17.675781 14.328125-32 32-32s32 14.324219 32 32zm0 0" fill="#4398d1"/><path d="m408 432.5c0 17.671875-14.328125 32-32 32s-32-14.328125-32-32c0-17.675781 14.328125-32 32-32s32 14.324219 32 32zm0 0" fill="#4398d1"/><path d="m48 24.5c0 13.253906-10.746094 24-24 24s-24-10.746094-24-24c0-13.257812 10.746094-24 24-24s24 10.742188 24 24zm0 0" fill="#e3584b"/></svg>