<svg height="464pt" viewBox="0 0 464 464" width="464pt" xmlns="http://www.w3.org/2000/svg"><path d="m48 112h384v272h-384zm0 0" fill="#b8bbbd"/><path d="m128 384h304v-272h-32zm0 0" fill="#aeb1b3"/><path d="m24 384h432v32h-432zm0 0" fill="#b8bbbd"/><path d="m88 192h304v152h-304zm0 0" fill="#87ced9"/><path d="m88 192h304v16h-304zm0 0" fill="#82c7d1"/><g fill="#e3584b"><path d="m144 32h64v80h-64zm0 0"/><path d="m80 112h-64l16-80h56zm0 0"/><path d="m464 112h-64l-8-80h48zm0 0"/><path d="m272 32h64v80h-64zm0 0"/></g><path d="m144 112h-64l8-80h56zm0 0" fill="#efefef"/><path d="m400 112h-64v-80h56zm0 0" fill="#efefef"/><path d="m208 32h64v80h-64zm0 0" fill="#efefef"/><path d="m144 112h64v16c0 17.671875-14.328125 32-32 32s-32-14.328125-32-32zm0 0" fill="#d64740"/><path d="m16 112h64v16c0 17.671875-14.328125 32-32 32s-32-14.328125-32-32zm0 0" fill="#d64740"/><path d="m400 112h64v16c0 17.671875-14.328125 32-32 32s-32-14.328125-32-32zm0 0" fill="#d64740"/><path d="m272 112h64v16c0 17.671875-14.328125 32-32 32s-32-14.328125-32-32zm0 0" fill="#d64740"/><path d="m80 112h64v16c0 17.671875-14.328125 32-32 32s-32-14.328125-32-32zm0 0" fill="#e0e0e0"/><path d="m336 112h64v16c0 17.671875-14.328125 32-32 32s-32-14.328125-32-32zm0 0" fill="#e0e0e0"/><path d="m208 112h64v16c0 17.671875-14.328125 32-32 32s-32-14.328125-32-32zm0 0" fill="#e0e0e0"/><path d="m32 0h408v32h-408zm0 0" fill="#b8bbbd"/><path d="m298.121094 213.878906c-5.222656-7.742187-11.046875-15.058594-17.425782-21.878906h-192.695312v152h237.039062c8.410157-45.226562-1.253906-91.945312-26.917968-130.121094zm0 0" fill="#82c7d1"/><path d="m304 312c0 83.949219-68.050781 152-152 152s-152-68.050781-152-152 68.050781-152 152-152 152 68.050781 152 152zm0 0" fill="#4398d1"/><path d="m264 312c0 61.855469-50.144531 112-112 112s-112-50.144531-112-112 50.144531-112 112-112 112 50.144531 112 112zm0 0" fill="#82c7d1"/><path d="m240 312c0 48.601562-39.398438 88-88 88s-88-39.398438-88-88 39.398438-88 88-88 88 39.398438 88 88zm0 0" fill="#87ced9"/><path d="m194.878906 358.152344-50.878906-42.398438v-91.753906h16v84.246094l45.121094 37.601562zm0 0" fill="#e3584b"/><path d="m64 304h16v16h-16zm0 0" fill="#22689c"/><path d="m224 304h16v16h-16zm0 0" fill="#22689c"/><path d="m144 384h16v16h-16zm0 0" fill="#22689c"/></svg>