<svg height="472pt" viewBox="-9 0 472 472" width="472pt" xmlns="http://www.w3.org/2000/svg"><path d="m21.042969 344h432v32h-432zm0 0" fill="#e3584b"/><g fill="#4398d1"><path d="m37.042969 128h32v168h-32zm0 0"/><path d="m197.042969 128h32v168h-32zm0 0"/><path d="m229.042969 115.816406c0-7.761718-1.878907-15.40625-5.480469-22.28125l-35.546875-67.816406c-8.285156-15.808594-24.660156-25.71875-42.511719-25.71875h-113.511718c-11.289063.00390625-21.746094 5.957031-27.507813 15.667969-5.765625 9.707031-5.984375 21.738281-.578125 31.652343l33.136719 60.757813v19.921875h32v-12.375c-.003907-7.640625-1.824219-15.167969-5.320313-21.960938l-31.730468-61.664062h123.546874l41.503907 76.078125v19.921875h32zm0 0"/><path d="m69.042969 176h128v80h-128zm0 0"/><path d="m85.042969 344h-64v-32l16-16h32l16 16zm0 0"/><path d="m245.042969 344h-64v-32l16-16h32l16 16zm0 0"/></g><path d="m165.042969 256h-96v-80h16zm0 0" fill="#3e8dc2"/><path d="m429.042969 424c0 26.507812-21.492188 48-48 48-26.511719 0-48-21.492188-48-48s21.488281-48 48-48c26.507812 0 48 21.492188 48 48zm0 0" fill="#4398d1"/><path d="m397.042969 440h-48l-32-64h80zm0 0" fill="#ffc24f"/><path d="m133.042969 424c0 26.507812-21.492188 48-48 48-26.511719 0-48-21.492188-48-48s21.488281-48 48-48c26.507812 0 48 21.492188 48 48zm0 0" fill="#4398d1"/><path d="m101.042969 440h-48l-32-64h80zm0 0" fill="#ffc24f"/><path d="m45.042969 320h16v16h-16zm0 0" fill="#22689c"/><path d="m205.042969 320h16v16h-16zm0 0" fill="#22689c"/><path d="m357.042969 400h16v16h-16zm0 0" fill="#f99512"/><path d="m61.042969 400h16v16h-16zm0 0" fill="#f99512"/><path d="m397.042969 392v-16h-80l8 16zm0 0" fill="#fca62d"/><path d="m101.042969 392v-16h-80l8 16zm0 0" fill="#fca62d"/></svg>