<svg height="472pt" viewBox="-4 0 472 472.7441" width="472pt" xmlns="http://www.w3.org/2000/svg"><path d="m352.351562 216.539062c.027344-11.085937-3.804687-21.835937-10.839843-30.402343-4.535157-5.625-4.535157-13.652344 0-19.28125 9.292969-11.355469 12.875-26.34375 9.714843-40.675781-3.15625-14.328126-12.703124-26.425782-25.90625-32.828126-7.484374-3.515624-11-12.203124-8.066406-19.933593 7.609375-20.242188.742188-43.070313-16.769531-55.757813-17.507813-12.683594-41.339844-12.097656-58.203125 1.4375-5.792969 4.679688-14.066406 4.679688-19.859375 0-16.863281-13.535156-40.691406-14.121094-58.203125-1.4375-17.511719 12.6875-24.378906 35.515625-16.769531 55.757813 2.933593 7.730469-.582031 16.417969-8.066407 19.933593-13.230468 6.398438-22.796874 18.511719-25.957031 32.863282-3.15625 14.355468.441407 29.363281 9.765625 40.722656 4.535156 5.625 4.535156 13.652344 0 19.28125-14.457031 17.664062-14.457031 43.070312 0 60.734375 4.527344 5.730469 4.445313 13.839844-.191406 19.480469-11.585938 14.386718-13.886719 34.148437-5.917969 50.8125 7.972657 16.664062 24.796875 27.277344 43.269531 27.292968 1.875-.054687 3.746094-.222656 5.601563-.503906l11.605469 80.980469c3.898437 27.269531 27.25 47.519531 54.792968 47.523437 27.542969-.003906 50.894532-20.253906 54.792969-47.523437l11.605469-80.980469c1.855469.28125 3.726562.449219 5.601562.503906 18.488282-.003906 35.328126-10.625 43.296876-27.304687 7.972656-16.679687 5.65625-36.453125-5.953126-50.839844-4.636718-5.640625-4.71875-13.75-.191406-19.480469 7.027344-8.5625 10.863282-19.300781 10.847656-30.375zm0 0" fill="#81ad2b"/><g fill="#77a321"><path d="m352.351562 136.539062c-.003906-13.046874-5.355468-25.519531-14.808593-34.511718-29.855469 103.984375-87.777344 197.742187-167.40625 270.980468l7.421875 52c3.882812 27.285157 27.242187 47.554688 54.800781 47.554688s50.917969-20.269531 54.800781-47.554688l11.589844-80.972656c1.855469.28125 3.726562.449219 5.601562.503906 18.488282-.003906 35.328126-10.625 43.296876-27.304687 7.972656-16.679687 5.65625-36.453125-5.953126-50.839844-4.636718-5.640625-4.71875-13.75-.191406-19.480469 14.457032-17.664062 14.457032-43.074218 0-60.738281-4.535156-5.625-4.535156-13.652343 0-19.277343 7.027344-8.554688 10.863282-19.289063 10.847656-30.359376zm0 0"/><path d="m32.351562.539062h16v128.664063h-16zm0 0"/><path d="m.371094 1.070312 15.964844-1.070312 9.3125 138.800781-15.960938 1.070313zm0 0"/><path d="m55.753906 136.539062 8.546875-136.507812 15.96875 1-8.546875 136.507812zm0 0"/></g><path d="m32.351562 104.539062h16v24.664063h-16zm0 0" fill="#648c15"/><path d="m9.6875 139.875 15.960938-1.066406-2.304688-34.269532h-16.03125zm0 0" fill="#648c15"/><path d="m55.6875 136.539062 15.96875 1 2.09375-33h-16.03125zm0 0" fill="#648c15"/><path d="m240.351562 432.539062h-16v-113.867187c-21.871093-6.742187-40.144531-21.933594-50.769531-42.207031l-4.308593-8.207032 14.160156-7.441406 4.308594 8.21875c7.851562 14.964844 20.855468 26.582032 36.609374 32.703125v-71.066406c-21.871093-6.742187-40.144531-21.933594-50.769531-42.207031l-4.308593-8.207032 14.160156-7.441406 4.308594 8.21875c7.851562 14.964844 20.855468 26.582032 36.609374 32.703125v-71.066406c-18.523437-5.722656-34.078124-18.457031-43.34375-35.488281l-3.695312-6.847656 14.078125-7.597657 3.695313 6.839844c6.4375 11.828125 16.78125 21.058594 29.265624 26.109375v-53.148438h16v53.148438c12.484376-5.050781 22.828126-14.28125 29.265626-26.109375l3.695312-6.839844 14.078125 7.597657-3.695313 6.847656c-9.265624 17.03125-24.820312 29.765625-43.34375 35.488281v71.066406c15.753907-6.121093 28.757813-17.738281 36.609376-32.703125l4.3125-8.21875 14.160156 7.441406-4.3125 8.207032c-10.625 20.273437-28.898438 35.464844-50.769532 42.207031v71.066406c15.753907-6.121093 28.757813-17.738281 36.609376-32.703125l4.3125-8.21875 14.160156 7.441406-4.3125 8.207032c-10.625 20.273437-28.898438 35.464844-50.769532 42.207031zm0 0" fill="#648c15"/><path d="m464.351562 416.539062c0 30.925782-25.070312 56-56 56-30.925781 0-56-25.074218-56-56 0-30.929687 25.074219-56 56-56 30.929688 0 56 25.070313 56 56zm0 0" fill="#e3584b"/><path d="m441.953125 371.832031c.238281 2.402344.367187 4.867188.367187 7.34375-.003906 40.515625-32.847656 73.355469-73.359374 73.363281-1.242188 0-2.449219-.128906-3.679688-.1875 13.75 16.691407 35.882812 23.972657 56.859375 18.707032 20.972656-5.269532 37.039063-22.140625 41.273437-43.347656 4.238282-21.207032-4.117187-42.960938-21.460937-55.878907zm0 0" fill="#d64740"/><path d="m424.351562 184.539062v-48l-24-128h-24l16 128v65.597657c-.550781 17.25-3.035156 34.386719-7.40625 51.082031-.710937 3.125-.785156 6.363281-.21875 9.519531 2.195313 12.246094 13.386719 20.785157 25.777344 19.671875 12.394532-1.117187 21.878906-11.519531 21.847656-23.960937 0-1.160157-.085937-2.324219-.253906-3.472657-4.304687-23.257812-6.894531-46.800781-7.746094-70.4375zm0 0" fill="#77a321"/><path d="m424.351562 136.539062 16-128h-24l-8 42.664063zm0 0" fill="#648c15"/><path d="m432.761719 326.007812c-2.960938 8.835938-8.722657 16.464844-16.410157 21.730469v-35.199219h-16v35.199219c-7.683593-5.257812-13.441406-12.871093-16.40625-21.695312l-15.203124 5.054687c5.871093 17.476563 19.589843 31.195313 37.066406 37.0625 1.640625.546875 3.414062.546875 5.054687 0 17.476563-5.867187 31.195313-19.585937 37.066407-37.0625zm0 0" fill="#648c15"/><path d="m40.351562 472.539062c-13.4375 0-24.492187-10.578124-25.085937-24l-13.394531-294.546874c-.398438-8.734376 2.796875-17.253907 8.84375-23.574219 6.042968-6.320313 14.410156-9.890625 23.15625-9.878907h12.992187c8.746094-.011718 17.113281 3.558594 23.160157 9.878907 6.042968 6.320312 9.238281 14.839843 8.839843 23.574219l-13.421875 294.546874c-.597656 13.421876-11.652344 24-25.089844 24zm0 0" fill="#ff7230"/><path d="m384.503906 437.875c-7.117187-7.957031-9.800781-18.933594-7.15625-29.277344 2.648438-10.339844 10.277344-18.679687 20.339844-22.234375l5.328125 15.085938c-5.03125 1.777343-8.84375 5.949219-10.167969 11.117187-1.320312 5.167969.019532 10.65625 3.574219 14.636719zm0 0" fill="#fa7366"/><path d="m424.679688 192.539062-32.328126-55.953124v65.550781c-.550781 17.25-3.035156 34.386719-7.40625 51.082031-.710937 3.125-.785156 6.363281-.21875 9.519531 2.195313 12.246094 13.386719 20.785157 25.777344 19.671875 12.394532-1.117187 21.878906-11.519531 21.847656-23.960937 0-1.160157-.085937-2.324219-.253906-3.472657-3.601562-20.664062-6.078125-41.507812-7.417968-62.4375zm0 0" fill="#d6d9db"/><path d="m40.351562 168.539062h-37.816406l.730469 16h37.085937zm0 0" fill="#de5718"/><path d="m40.351562 248.539062h34.183594l.730469-16h-34.914063zm0 0" fill="#de5718"/><path d="m40.421875 296.679688-32.078125-.285157.726562 16.007813 31.210938.277344zm0 0" fill="#de5718"/><path d="m40.351562 392.539062h27.640626l.71875-16h-28.359376zm0 0" fill="#de5718"/></svg>