<svg height="464pt" viewBox="0 0 464 464" width="464pt" xmlns="http://www.w3.org/2000/svg"><path d="m40 112h384v352h-384zm0 0" fill="#5e5e5e"/><path d="m232 0-232 80v384h40v-352h384v352h40v-384zm0 0" fill="#4398d1"/><path d="m288 112h136v352h40v-384l-107.078125-36.921875zm0 0" fill="#3e8dc2"/><path d="m72 384h96v80h-96zm0 0" fill="#ffb254"/><path d="m72 304h96v80h-96zm0 0" fill="#fca62d"/><path d="m168 384h96v80h-96zm0 0" fill="#fca62d"/><path d="m168 304h96v80h-96zm0 0" fill="#ffb254"/><path d="m72 224h96v80h-96zm0 0" fill="#ffc24f"/><path d="m168 224h96v80h-96zm0 0" fill="#fca62d"/><path d="m264 384h96v80h-96zm0 0" fill="#ffb254"/><path d="m264 304h96v80h-96zm0 0" fill="#ffc24f"/><g fill="#ff7230"><path d="m104 384h32v32h-32zm0 0"/><path d="m104 304h32v32h-32zm0 0"/><path d="m200 384h32v32h-32zm0 0"/><path d="m200 304h32v32h-32zm0 0"/><path d="m104 224h32v32h-32zm0 0"/><path d="m200 224h32v32h-32zm0 0"/><path d="m296 384h32v32h-32zm0 0"/><path d="m296 304h32v32h-32zm0 0"/></g><path d="m40 112v64h384v-64zm0 0" fill="#b8bbbd"/><path d="m256 176h168v-64h-104zm0 0" fill="#aeb1b3"/><path d="m40 136h384v16h-384zm0 0" fill="#999c9e"/></svg>